<?xml version="1.0" standalone="no"?>
<!DOCTYPE svg PUBLIC "-//W3C//DTD SVG 20010904//EN"
 "http://www.w3.org/TR/2001/REC-SVG-20010904/DTD/svg10.dtd">
<svg version="1.0" xmlns="http://www.w3.org/2000/svg"
 width="1000.000000pt" height="1000.000000pt" viewBox="0 0 1000.000000 1000.000000"
 preserveAspectRatio="xMidYMid meet">
<metadata>
Created by potrace 1.11, written by Peter Selinger 2001-2013
</metadata>
<g transform="translate(0.000000,1000.000000) scale(0.100000,-0.100000)"
fill="#000000" stroke="none">
<path d="M4749 9956 c-2 -2 -51 -7 -109 -10 -119 -8 -143 -11 -220 -20 -30 -4
-73 -9 -95 -12 -47 -6 -91 -13 -125 -19 -14 -3 -41 -7 -60 -10 -77 -13 -262
-51 -290 -60 -10 -3 -27 -7 -37 -9 -123 -25 -426 -121 -628 -201 -140 -55
-364 -155 -418 -186 -10 -5 -48 -26 -85 -46 -59 -31 -202 -112 -257 -146 -11
-7 -41 -27 -68 -44 -26 -18 -49 -33 -51 -33 -8 0 -136 -90 -251 -175 -336
-249 -672 -577 -962 -939 -98 -122 -289 -406 -381 -566 -113 -198 -332 -659
-332 -700 0 -6 -5 -18 -10 -28 -19 -33 -124 -355 -149 -457 -5 -22 -16 -65
-24 -95 -27 -97 -72 -329 -92 -475 -3 -22 -7 -49 -10 -60 -2 -11 -7 -49 -10
-85 -4 -36 -8 -76 -11 -90 -26 -168 -26 -740 1 -990 2 -25 7 -67 10 -95 16
-148 65 -427 97 -550 5 -22 11 -47 13 -55 11 -57 72 -273 85 -305 5 -11 21
-58 36 -105 30 -95 38 -117 120 -315 55 -136 184 -403 240 -502 46 -81 197
-328 204 -333 3 -3 23 -32 45 -65 70 -108 197 -270 353 -455 149 -176 464
-473 673 -636 46 -35 93 -72 104 -81 25 -21 383 -263 389 -263 2 0 49 -26 104
-59 133 -78 437 -227 597 -291 123 -50 488 -174 537 -184 13 -2 70 -16 128
-31 58 -15 112 -28 120 -30 8 -2 53 -10 100 -19 47 -9 96 -18 110 -21 41 -8
302 -45 350 -49 291 -28 842 -29 1011 -1 13 2 55 6 94 10 38 4 72 8 75 10 3 2
30 6 60 9 60 6 65 7 220 37 197 37 537 126 640 166 8 3 58 21 110 40 52 19
111 41 131 48 60 23 304 132 391 176 305 153 648 376 918 598 160 132 183 152
380 351 296 297 523 587 726 925 34 55 64 107 67 115 4 8 17 31 28 50 24 38
179 346 179 354 0 2 16 39 35 80 19 42 35 79 35 82 0 3 6 20 14 37 21 45 110
297 137 387 12 41 24 80 25 85 9 29 83 326 88 351 3 16 14 76 25 134 23 126
28 157 36 233 4 32 8 66 10 76 2 10 6 54 10 97 4 43 9 90 11 104 8 52 11 609
4 710 -9 114 -19 231 -25 270 -2 14 -7 48 -10 75 -4 28 -8 57 -10 65 -2 8 -7
35 -11 60 -10 75 -26 162 -39 220 -3 14 -7 36 -10 50 -3 14 -18 79 -35 145
-17 66 -33 130 -35 143 -13 55 -127 388 -172 502 -60 149 -159 361 -227 485
-27 50 -57 106 -67 125 -24 47 -194 316 -244 386 -58 81 -177 238 -184 244 -4
3 -14 14 -22 26 -48 70 -180 216 -359 394 -191 191 -366 346 -504 445 -16 11
-33 25 -40 31 -13 12 -25 20 -218 149 -261 174 -463 285 -738 407 -266 118
-661 249 -880 293 -8 2 -60 12 -115 24 -102 21 -241 45 -330 56 -52 7 -64 8
-180 20 -38 4 -81 9 -95 11 -31 6 -646 14 -651 10z m477 -801 c71 -3 145 -7
164 -10 19 -2 60 -7 90 -10 30 -4 66 -8 80 -10 14 -2 45 -7 70 -10 118 -16
322 -58 449 -91 101 -27 302 -89 336 -104 11 -5 74 -30 140 -55 399 -154 784
-385 1131 -676 114 -95 97 -80 205 -186 160 -155 228 -230 398 -438 207 -254
442 -662 581 -1010 104 -261 207 -619 235 -823 3 -20 9 -50 12 -67 3 -16 7
-39 9 -50 1 -11 7 -56 13 -100 37 -271 37 -766 0 -1030 -5 -38 -12 -86 -14
-105 -4 -29 -20 -119 -51 -280 -15 -81 -115 -434 -134 -475 -5 -11 -19 -47
-31 -80 -99 -277 -286 -637 -467 -900 -63 -92 -157 -219 -188 -253 l-21 -24
-1046 1048 -1046 1048 -27 -24 c-73 -68 -547 -548 -547 -555 0 -4 470 -478
1044 -1053 l1043 -1045 -34 -29 c-239 -202 -639 -445 -960 -583 -272 -117
-640 -230 -880 -269 -19 -3 -46 -8 -60 -10 -56 -11 -159 -26 -215 -31 -33 -3
-71 -8 -85 -10 -131 -23 -648 -23 -815 -1 -16 2 -64 7 -105 11 -41 4 -77 8
-80 10 -3 2 -30 6 -60 10 -30 3 -71 10 -90 15 -19 5 -54 12 -77 15 -95 13
-362 85 -533 142 -365 122 -768 331 -1084 561 -286 209 -513 422 -776 728 -25
28 -129 164 -197 257 -112 151 -323 526 -398 707 -15 36 -35 83 -45 105 -96
216 -234 709 -256 917 -3 29 -8 56 -10 59 -2 3 -6 33 -9 65 -4 32 -8 70 -10
82 -20 120 -28 656 -12 812 13 131 27 239 41 320 3 14 7 41 10 60 3 19 8 44
10 55 2 11 12 56 21 100 29 142 113 438 144 510 5 11 17 43 26 70 58 166 224
513 315 660 14 22 32 52 39 68 8 15 18 27 23 27 4 0 8 5 8 11 0 23 201 301
329 454 111 132 388 407 527 522 170 141 358 273 559 392 69 41 362 189 460
232 62 27 334 129 355 133 8 1 53 14 100 28 83 26 179 52 230 62 14 3 68 14
120 25 85 17 144 28 205 36 68 10 106 15 150 20 28 3 64 8 80 10 17 2 127 7
245 11 118 4 217 8 219 10 2 2 7 2 11 -1 3 -2 65 -7 136 -10z"/>
</g>
</svg>
