<?xml version="1.0" encoding="utf-8"?>
<!-- Generator: Adobe Illustrator 17.0.0, SVG Export Plug-In . SVG Version: 6.00 Build 0)  -->
<!DOCTYPE svg PUBLIC "-//W3C//DTD SVG 1.1//EN" "http://www.w3.org/Graphics/SVG/1.1/DTD/svg11.dtd">
<svg version="1.1" id="Layer_1" xmlns="http://www.w3.org/2000/svg" xmlns:xlink="http://www.w3.org/1999/xlink" x="0px" y="0px"
	 width="16px" height="16px" viewBox="0 0 16 16" enable-background="new 0 0 16 16" xml:space="preserve">
<path d="M8,0.203c-2.084,0-4.043,0.811-5.516,2.284c-3.041,3.041-3.041,7.99,0,11.031C3.957,14.992,5.916,15.804,8,15.804
	s4.043-0.811,5.515-2.284c3.041-3.041,3.041-7.99,0-11.031C12.042,1.014,10.083,0.203,8,0.203z M13.081,12.132L9.782,8.834
	L8.87,9.746l3.299,3.299c-1.172,0.967-2.629,1.494-4.162,1.494c-1.748,0-3.396-0.676-4.632-1.913
	c-2.552-2.552-2.553-6.701-0.002-9.254C4.609,2.136,6.253,1.456,8,1.456s3.399,0.672,4.635,1.909
	C15.034,5.763,15.188,9.563,13.081,12.132z"/>
</svg>
