<?xml version="1.0" encoding="utf-8"?>
<!-- Generator: Adobe Illustrator 22.0.0, SVG Export Plug-In . SVG Version: 6.00 Build 0)  -->
<svg version="1.1" id="Layer_1" xmlns="http://www.w3.org/2000/svg" xmlns:xlink="http://www.w3.org/1999/xlink" x="0px" y="0px"
	 viewBox="0 0 128 128" style="enable-background:new 0 0 128 128;" xml:space="preserve">
<style type="text/css">
	.st0{fill:#FFFFFF;}
</style>
<path class="st0" d="M63.8,11.3c-1.7,0-3,1.3-3,3V21c-5.4,1.3-9.3,6.2-9.3,11.9v8c0,4.4-1.8,8.6-5,11.5c-6.2,5.5-9.3,13.4-8.7,21.6
	c1,13,11.5,23.3,24.6,24.2c0.6,0,1.1,0.1,1.7,0.1c7,0,13.6-2.7,18.6-7.7c4.9-5.1,7.6-11.7,7.6-18.7c0-7.4-3.2-14.6-8.8-19.5
	c-3.4-3.1-5.4-7.4-5.4-11.8v-7.7c0-5.8-4-10.6-9.3-11.9v-6.7C66.8,12.6,65.5,11.3,63.8,11.3z M63.7,26.6c1.5,1.7,2.5,3.9,2.5,6.3
	v6.3h-8.7v-6.3C57.5,29.5,60.3,26.7,63.7,26.6z M57.1,45.1h13.6c1,4.4,3.4,8.5,6.9,11.7c4.3,3.8,6.8,9.3,6.8,15.1
	c0,5.4-2.1,10.5-6,14.3c-4.2,4.1-9.8,6.3-15.7,5.9c-10-0.6-18.2-8.6-18.9-18.6c-0.5-6.4,2-12.4,6.7-16.7
	C53.9,53.8,56.2,49.6,57.1,45.1z"/>
</svg>
