<?xml version="1.0" encoding="utf-8"?>
<!-- Generator: Adobe Illustrator 22.0.0, SVG Export Plug-In . SVG Version: 6.00 Build 0)  -->
<svg version="1.1" id="Layer_1" xmlns="http://www.w3.org/2000/svg" xmlns:xlink="http://www.w3.org/1999/xlink" x="0px" y="0px"
	 viewBox="0 0 959.6 488.3" style="enable-background:new 0 0 959.6 488.3;" xml:space="preserve">
<style type="text/css">
	.st0{fill:#FFFFFF;}
</style>
<title>Asset 3s</title>
<g id="Layer_2_1_">
	<g id="Layer_1-2">
		<path class="st0" d="M637,482.6c-0.8-6.4-1.6-12.4,1.2-18.2c3.5-7.2,12.2-13.6,20.6-15.3c6.2-1.4,12.7,0.2,17.4,4.4
			c5.8,5,7,14.1,8.2,22.9c0.5,4,1.2,8,2.2,11.9h1c-1-4-1.7-8-2.2-12.1c-1.2-8.9-2.5-18.2-8.5-23.5c-5-4.4-11.8-6.1-18.2-4.6
			c-8.7,1.7-17.6,8.4-21.3,15.8c-2.9,6-2.1,12.4-1.2,18.7c0.2,1.9,0.5,3.7,0.6,5.6h0.9C637.5,486.4,637.3,484.5,637,482.6z"/>
		<path class="st0" d="M629.3,488.3c0.2-2.4,0.1-4.8,0.1-7.2c0-4.9-0.1-9.4,1.3-14c2.7-8.8,12.6-20.8,20-24.2
			c7.9-3.6,24.8-0.3,32,4.9c6.2,4.5,7.2,10.7,8.2,17.3c0.6,4,1.3,8.2,3.2,12c1.6,2.8,3.5,5.3,5.9,7.5c1.2,1.2,2.3,2.4,3.3,3.7h1.2
			c-1.2-1.5-2.4-3-3.8-4.3c-2.3-2.1-4.2-4.6-5.7-7.2c-1.8-3.7-2.5-7.8-3.1-11.7c-1-6.5-2.1-13.2-8.6-17.9c-7.5-5.4-24.8-8.8-33-5
			c-7.6,3.5-17.8,15.7-20.5,24.7c-1.4,4.7-1.4,9.6-1.3,14.3c0,2.4,0,4.8-0.1,7.2L629.3,488.3L629.3,488.3z"/>
		<path class="st0" d="M249.4,470.9c-0.9-3.2-0.8-5.4,0.3-6.4c2.5-2.2,9.8,1.2,14.7,3.3c1.6,0.7,3,1.3,4,1.7
			c1.5,0.5,2.9,0.9,4.4,1.2c1.6,0.4,3.4,0.8,5.3,1.4c5.2,1.7,10.3,3.7,15.2,6c4.6,2,8.5,3.7,10.9,4.2c3.8,0.7,8.5-0.4,13.5-1.5
			c4.1-0.9,8.3-1.9,11.9-1.8c4.7,0.1,9.4,2.7,13.9,5.3c3.1,1.7,6.1,3.4,8.9,4.1h4.2c2.4-0.8,5.1-3.3,8.2-6.2
			c6.3-5.9,13.3-12.5,20.5-7.5c4.4,3.1,4.9,8.2,5.1,13.8h0.9c-0.2-5.6-0.7-11.2-5.5-14.5c-7.7-5.4-15.4,1.8-21.6,7.6
			c-3.3,3.1-6.4,6-8.8,6.3c-3.2,0.3-7.2-1.9-11.5-4.2c-4.6-2.6-9.5-5.3-14.4-5.4c-3.7-0.1-8,0.9-12.1,1.9c-4.9,1.1-9.5,2.2-13.1,1.5
			c-2.3-0.5-6.2-2.2-10.7-4.2c-5-2.3-10.1-4.4-15.3-6.1c-1.9-0.6-3.7-1-5.4-1.4c-1.7-0.4-3.2-0.8-4.3-1.1c-1-0.4-2.4-1-3.9-1.7
			c-5.4-2.4-12.7-5.7-15.6-3.2c-1.5,1.3-1.6,3.7-0.5,7.4l0.1,0.2c5.2,6.4,6.6,11.2,7.6,17h1C256.2,482.4,254.8,477.5,249.4,470.9z"
			/>
		<path class="st0" d="M316.8,488.3h4.7c4.6-0.8,9-1.3,12.5-0.1c0.1,0,0.2,0.1,0.2,0.1h2.2c-0.7-0.4-1.4-0.7-2.1-1
			C329.5,485.7,323.1,487,316.8,488.3z"/>
		<path class="st0" d="M645.5,478c-0.8-5.6-0.8-8.1,1-11.6c3.8-7.3,10.1-10.4,17-8.1c6.5,2.1,12.6,9.3,11.2,17.5
			c-1.1,6.7-7,11.2-13,12.6h3.2c5.2-2.1,9.8-6.5,10.7-12.5c1.4-8.7-5-16.3-11.9-18.5c-7.4-2.4-14.1,0.8-18.1,8.6
			c-1.9,3.8-2,6.5-1.1,12.2l0,0c0.9,4.9,3.4,8.4,7.1,10.2h2.6C649.7,487.1,646.5,483.4,645.5,478z"/>
		<path class="st0" d="M708.9,477.2c-1.1-1.2-2.2-2.5-3.1-3.9c-1.9-3.1-2.3-5.6-2.7-8.8c-0.3-2.2-0.7-4.5-1.3-6.7
			c-4.4-17-24.1-20.6-39.9-23.4l-1.4-0.3c-15.4-2.8-18.2,1.2-25.1,11.1l-1.1,1.6c-6.1,8.5-10.1,18.4-11.6,28.8
			c-0.3,1.9-0.5,3.7-0.8,5.4c-0.3,2.6-0.6,4.9-1,7.2h1c0.4-2.2,0.7-4.6,1-7.1c0.2-1.7,0.5-3.5,0.7-5.4c1.5-10.3,5.4-20,11.5-28.4
			l1.1-1.6c6.8-9.7,9.4-13.4,24.2-10.7l1.3,0.2c15.6,2.8,34.9,6.4,39.2,22.8c0.5,2.2,1,4.3,1.3,6.5c0.5,3.3,0.9,5.9,2.9,9.2
			c1,1.4,2,2.7,3.2,4c2.3,2.6,4.9,5.5,5.7,8.2c0.2,0.7,0.4,1.5,0.4,2.3h0.9c-0.1-0.9-0.2-1.7-0.5-2.5
			C713.8,482.9,711.2,479.9,708.9,477.2z"/>
		<path class="st0" d="M388,462.3c-6-2.9-11.6,0.1-17.6,3.2c-3.7,1.9-7.6,3.9-11.9,4.9c-4.2,0.9-8.7-0.1-13.9-1.3
			c-6.2-1.4-13.3-3-21.4-1.5c-2,0.4-3.9,1-5.8,1.7c-5.3,1.7-11.2,3.7-20,1.5c-4.5-1.2-9.6-3.6-15.1-6.3c-3-1.5-6.2-3-9.3-4.3
			c-1.7-0.7-3.3-1.4-5-2.1c-6.9-2.8-14-5.6-18.1-9.9c-2.3-2.3-4.2-5.1-5.6-8.1c-1.4-2.7-2.5-4.9-6.5-7c-6.6-3.4-17.7-2.3-22.6,0.9
			c-5,3.3-10.1,8.7-15.6,16.3c-4.6,6.4-6.8,14-9,21.3c-1.7,5.6-3.4,11.4-6.2,16.8h1.1c2.5-5.3,4.5-10.8,6-16.5
			c2.2-7.6,4.3-14.7,8.9-21c5.4-7.5,10.4-12.8,15.4-16c4.6-3.1,15.3-4.2,21.6-0.9c3.8,1.9,4.8,3.9,6.1,6.6c1.4,3.1,3.4,5.9,5.8,8.3
			c4.2,4.4,11.5,7.3,18.5,10.1c1.7,0.7,3.4,1.4,5,2.1c3.1,1.3,6.2,2.8,9.3,4.3c5.5,2.7,10.6,5.2,15.2,6.3c9,2.3,15.2,0.3,20.6-1.5
			c1.9-0.7,3.8-1.2,5.7-1.6c7.9-1.5,14.9,0.1,21.1,1.4c5.1,1.2,9.9,2.3,14.3,1.3c4.4-0.9,8.4-3,12.2-5c6-3.1,11.2-5.8,16.8-3.1
			c7.6,3.7,9.6,13.2,11.5,22.5c0.2,0.9,0.4,1.9,0.6,2.8h1c-0.2-1-0.4-2-0.6-3C398,475.9,396,466.1,388,462.3z"/>
		<path class="st0" d="M819.7,486c-2.7-3-5.5-6.1-9.9-6.9h-0.1h-0.1c-5.1,0.8-9.4,4.4-11.3,9.2c0,0,0,0,0,0.1h1
			c1.8-4.4,5.7-7.6,10.4-8.4c4.1,0.9,6.6,3.7,9.3,6.7c0.5,0.6,1.1,1.2,1.6,1.7h1.3C821.1,487.6,820.4,486.8,819.7,486z"/>
		<path class="st0" d="M269,483.5c-1.7,1.2-3,2.9-3.8,4.9h1c0.7-1.6,1.9-3.1,3.3-4.1c6.7-5.1,14.7-0.9,21.8,2.7c1,0.5,1.9,1,2.9,1.4
			h2.2c-1.5-0.7-3.1-1.5-4.7-2.3C284.4,482.3,276.1,478.1,269,483.5z"/>
		<path class="st0" d="M867.6,481.7l-0.1-0.1c-4.5-2.3-8.3-0.3-12.4,1.7c-4.3,2.1-9.1,4.6-15.9,3.1c-5.7-1.3-10-5-14.1-8.5
			c-5.1-4.4-10-8.6-16.8-7.1c-9.2,2.1-13.7,9.8-17.8,17.6h1.1c3.9-7.5,8.3-14.8,16.9-16.7c6.4-1.4,10.9,2.4,16,6.9
			c4.2,3.6,8.5,7.4,14.5,8.7c7.1,1.6,12.1-0.9,16.6-3.1c4-2,7.4-3.8,11.4-1.8c0.9,1.9,1.5,3.9,1.5,6h1c-0.1-2.3-0.6-4.5-1.7-6.5
			L867.6,481.7z"/>
		<path class="st0" d="M234.6,482.7L234.6,482.7c4.7,0,8.8,3.1,11.4,5.6h1.3c-2.7-2.9-7.3-6.5-12.6-6.5h-0.1
			c-3.4,0-9.9,2.8-15.8,6.5h1.8C226,485.1,231.6,482.7,234.6,482.7z"/>
		<path class="st0" d="M580.4,371.2c1.5,3.4,2,7.2,2.5,10.9c0.6,4.9,1.3,10,4.3,14.1l0.1,0.1h0.1c2.6,0.9,5.3,1.4,8,1.4
			c10.9,0,20.8-7.5,30.5-14.7c4.4-3.5,9.1-6.7,14-9.6c1.4-0.8,2.9-1.5,4.3-2.2c3.1-1.5,5.8-2.8,7-4.3c6.6-7.6,7.1-23.8,0.9-29.9
			c-5.1-5-30.6-6.8-41.1-4c-9.6,2.6-22.9,11.2-28.7,22C579.3,360.6,578.7,366,580.4,371.2L580.4,371.2z M583.1,355.4
			c5.7-10.6,18.7-19,28.1-21.5c10.1-2.7,35.4-1,40.2,3.7c5.9,5.8,5.4,21.4-1,28.7c-1.2,1.3-3.9,2.7-6.8,4.1
			c-1.4,0.7-2.9,1.4-4.3,2.3c-4.9,2.9-9.6,6.1-14.1,9.7c-11.7,8.8-23.8,17.9-37.5,13.2c-2.8-3.9-3.4-8.6-4-13.5
			c-0.5-3.8-1-7.7-2.5-11.2C579.7,366,580.3,360.8,583.1,355.4L583.1,355.4z"/>
		<path class="st0" d="M206.7,480.5l0.5,0.2h0.1c6.2-1,8.8-6,11.2-10.7c1.1-2.4,2.5-4.6,4.2-6.6c2-2,4.3-3.6,6.9-4.6
			c2.7-1.1,5.1-2.6,7.1-4.6l0.1-0.2c1.8-5.1,0.3-8.5-1.3-10.4c-2.5-2.8-6.2-4.1-9.8-3.5c-5.6,1-15.2,11.1-20.1,21.3
			c-2.4,4.9-4.7,11.9-2.1,17C203.8,479.7,205.5,480.1,206.7,480.5z M206.4,461.7c4.8-9.7,14.2-19.8,19.5-20.7c0.5-0.1,1-0.1,1.5-0.1
			c2.8,0,5.6,1.2,7.5,3.3c1.4,1.7,2.8,4.7,1.2,9.4c-2,1.9-4.3,3.3-6.8,4.3c-2.7,1.1-5.2,2.7-7.2,4.8c-1.7,2.1-3.2,4.4-4.3,6.8
			c-2.4,4.7-4.8,9.2-10.5,10.2l-0.2-0.1c-1.1-0.3-2.4-0.7-2.6-1.7v-0.1C202.3,474.1,203.1,468.4,206.4,461.7z"/>
		<path class="st0" d="M556.1,446c-2.3,0.9-4.7,1.8-5.2,3.5c-0.2,1,0.1,2,0.7,2.7c2.3,3.5,7.1,3.5,11.8,3.5c1.6-0.1,3.2,0,4.8,0.1
			c1.4,0.2,2.7,0.5,4.1,0.9c1.3,0.4,2.6,0.7,4,0.8c0.9,0,1.9-0.2,2.7-0.6c5.3-2.3,10.2-13.5,13.5-20.9l0.8-1.7
			c1-2.5,1.9-5.1,2.5-7.8c0.9-3.2,1.7-6.3,3.3-8.6c2.1-2.9,5.4-4.9,9-7.1c1.8-1.1,3.6-2.2,5.4-3.5c1.9-1.4,3.7-2.8,5.4-4.2
			c2.4-2.1,5.1-4,7.9-5.7c4.7-2.2,9.3-2.6,13.8-3c4.6-0.4,8.9-0.8,12.7-3.1c9.6-5.8,19.5-27.9,21.2-36c4.6-21.5-7.8-46-21.8-53.6
			c-8.2-4.4-26.9-1.9-40.4,1.6c-9.8,2.5-23.7,11.7-31.6,20.9c-2,2.3-3.8,4.9-5.6,7.4c-4.5,6.2-9.1,12.7-16.5,15.8l-0.1,0.1l-0.1,0.2
			c-4.3,8.3-4.5,18-4.7,27.4c-0.1,3.1-0.1,6-0.3,8.9v0.2l0.2,0.2c22.7,16.7,13.7,44.5,6.3,59.6C558.7,444.9,557.4,445.6,556.1,446z
			 M560.6,444.5c7.5-15.3,16.7-43.5-6.3-60.7c0.2-2.8,0.3-5.8,0.3-8.7c0.2-9.2,0.4-18.7,4.5-26.8c7.6-3.3,12.2-9.8,16.7-16
			c1.8-2.5,3.6-5,5.6-7.3c7.8-9.1,21.5-18.2,31.1-20.7c13.3-3.5,31.7-6,39.7-1.7c12.2,6.6,26.3,29.8,21.4,52.6
			c-1.7,8-11.4,29.8-20.8,35.4c-3.6,2.2-7.9,2.6-12.3,3c-4.6,0.4-9.3,0.8-14.1,3.1c-2.4,1.2-5.1,3.4-8,5.8c-1.7,1.4-3.5,2.9-5.4,4.2
			c-1.7,1.2-3.5,2.3-5.3,3.4c-3.7,2.2-7.1,4.3-9.3,7.4c-1.7,2.4-2.6,5.6-3.5,8.9c-0.6,2.6-1.4,5.2-2.5,7.6l-0.7,1.7
			c-3.2,7.3-8,18.3-13,20.4c-2.1,0.9-3.9,0.4-6.1-0.3c-1.4-0.4-2.8-0.7-4.2-0.9c-1.1-0.1-2.2-0.1-3.3-0.1c-0.6,0-1.1,0-1.7,0
			c-4.4,0.1-9,0.1-11-3l0,0c-0.5-0.5-0.7-1.2-0.6-2c0.4-1.3,2.5-2.1,4.6-2.9c1.5-0.5,2.9-1.2,4.1-2.2L560.6,444.5z"/>
		<path class="st0" d="M31.6,486.7L31.6,486.7c-5.6-7.2-0.2-11.8,5-16.2c1.7-1.3,3.2-2.8,4.6-4.5c1.5-2,2.5-5,3.7-8.2
			c1.8-5.3,3.9-11.3,8.4-13.2c1-0.4,2.1-0.6,3.2-0.6c2.4,0.1,4.7,0.7,6.8,1.8c3.1,1.5,4.5,3.8,6.4,6.9c1.4,2.4,2.9,4.6,4.7,6.8
			c2.3,2.7,4.8,5.1,7.6,7.3c5.3,4.4,9.5,8,8.4,15.6c-0.3,2-0.9,4-1.7,5.8h1c0.8-1.8,1.3-3.7,1.6-5.7c1.2-8.2-3.4-12-8.7-16.5
			c-2.7-2.1-5.2-4.6-7.5-7.2c-1.7-2.1-3.2-4.3-4.6-6.7c-1.9-3.1-3.5-5.6-6.8-7.2c-4.3-2-7.9-2.5-10.8-1.2c-4.9,2-7,8.2-8.9,13.8
			c-1.1,3.1-2.1,6.1-3.5,8c-1.3,1.6-2.8,3-4.4,4.3c-5,4.3-11.2,9.6-5.2,17.4c0.2,0.4,0.4,0.8,0.6,1.2h1
			C32.1,487.8,31.9,487.2,31.6,486.7z"/>
		<path class="st0" d="M53.5,487.1c-1-6.6,2.2-13.9,7.1-16.1c6.1-2.8,12.6,1.2,15.3,6.6c1.7,3.3,2,7.6-1,10.8h1.2
			c2.7-3.5,2.2-7.9,0.6-11.2c-2.9-5.8-9.9-10-16.5-7c-5.3,2.4-8.7,10.3-7.6,17.4l0.1,0.2l0.2,0.1c0.3,0.2,0.7,0.4,1,0.6h2
			C55.1,487.9,54.3,487.5,53.5,487.1z"/>
		<path class="st0" d="M355.3,349.8c2.5,4.2,2.6,10.9,0.2,19.7c-0.6,1.8-1.3,3.6-2.1,5.3c-1.7,3.7-3.5,7.6-2.2,11.9v0.2l0.2,0.1
			c1.6,0.8,3.3,1.2,5.1,1.3c3.8,0,6.9-2.3,10.1-4.7c2.4-1.9,5-3.5,7.8-4.7c4.6-1.8,10.5-1.8,16.9-1.9c3,0,6.2-0.1,9.1-0.3
			c1.6-0.1,3.3-0.2,4.9-0.3c6.7-0.5,13.6-0.9,19.8-2.6c2.2-0.7,4.4-1.4,6.5-2.3c2.3-1,4.7-1.8,7.2-2.6c1.8-0.5,3.7-0.9,5.5-1.2
			c3.5-0.6,6.8-1.2,9.1-3c6.7-4.9,11.5-20.4,8.7-28.1c-1.6-4.4-4-7.3-7.3-8.7c-6.7-2.9-15.7,0.9-23.7,4.3c-2,0.9-3.9,1.7-5.7,2.3
			c-9.7,3.6-19,6.6-27.2,4.2c-2.5-0.9-4.8-2.1-7-3.7c-1.6-1.1-3.3-2.1-5-3c-1.5-0.7-3-1.3-4.6-1.7c-1.6-0.5-3.2-1.1-4.7-2
			c-6.6-4.1-14.8-12.6-20-20.7c-3-4.7-4.8-9.6-6.8-14.8c-2.7-7.2-5.4-14.6-11.6-21.9c-3.8-4.5-8.4-9.3-13.2-14.3
			c-4-4.2-8.2-8.5-11.9-12.7c-2.1-2.4-4-5-5.8-7.6c-4.3-6.2-8.4-12-16-13.2l0,0h-0.1c-8,1.1-11.6,9.7-15.1,18
			c-1.3,3.4-2.9,6.6-4.6,9.8c-1.2,2-2.7,3.9-4,5.7c-4.1,5.5-8,10.6-6.4,18.7c0.2,8.5,8,10.4,15.6,12.2c3.9,1,8,1.9,10.8,3.9
			c2.7,1.9,5,5.7,7.4,9.7c2.5,4.2,5.5,9,9.4,12.5c2.8,2.4,5.9,4.4,9.2,6.1c2.7,1.4,5.2,3.1,7.6,5c1.3,1.3,2.5,2.7,3.6,4.2
			c2.1,2.7,4.5,5.7,7.6,7.9c3.5,2.3,7.2,4.2,11.2,5.6C348.5,344.5,353.3,346.5,355.3,349.8z M332.8,336c-2.8-2.2-5.3-4.8-7.4-7.8
			c-1.1-1.5-2.4-3-3.7-4.3c-2.4-2-5-3.7-7.8-5.1c-3.2-1.7-6.2-3.7-9-6c-3.8-3.4-6.7-8.2-9.2-12.3c-2.5-4.1-4.9-8-7.7-10
			c-2.9-2-7.1-3-11.1-4c-7.6-1.8-14.7-3.5-14.9-11.3v-0.1c-1.5-7.7,2.3-12.7,6.3-18c1.4-1.8,2.8-3.7,4-5.8c1.8-3.2,3.4-6.5,4.7-9.9
			c3.4-8,6.9-16.3,14.3-17.4c7.2,1.2,11,6.5,15.3,12.8c1.8,2.7,3.8,5.3,5.9,7.7c3.8,4.2,7.9,8.6,11.9,12.7c4.8,5,9.3,9.7,13.2,14.2
			c6.1,7.1,8.8,14.5,11.5,21.6c2,5.3,3.8,10.2,6.8,15c5.3,8.2,13.6,16.8,20.3,21c1.6,0.9,3.2,1.6,4.9,2c1.5,0.5,3,1,4.4,1.7
			c1.7,0.9,3.4,1.9,5,2.9c2.2,1.6,4.6,2.8,7.2,3.8c8.5,2.5,18-0.6,27.8-4.2c1.8-0.7,3.7-1.5,5.8-2.4c7.8-3.3,16.6-7,22.9-4.3
			c3.1,1.3,5.3,4,6.8,8.2c2.7,7.4-1.9,22.3-8.3,27c-2.2,1.6-5.4,2.2-8.7,2.8c-1.8,0.3-3.7,0.7-5.6,1.2c-2.5,0.7-4.9,1.6-7.3,2.6
			c-2.1,0.9-4.2,1.6-6.4,2.3c-6.1,1.7-13,2.1-19.6,2.6c-1.6,0.1-3.3,0.2-4.9,0.3c-3,0.2-6.1,0.3-9.1,0.3c-6.4,0.1-12.5,0.1-17.3,2
			c-2.9,1.3-5.5,2.9-7.9,4.8c-4.4,3.3-8.2,6.1-14,3.4c-1.1-3.9,0.5-7.3,2.2-11c0.9-1.7,1.6-3.6,2.2-5.4c2.4-9.1,2.3-15.9-0.3-20.4
			c-2.1-3.6-7.1-5.6-12.3-7.8C339.9,340.1,336.3,338.2,332.8,336L332.8,336z"/>
		<path class="st0" d="M293.7,189.8h0.2c3.6-0.1,9.7-1.5,10.5-10.6c0.6-7-6-18.6-13.7-20.9c-4.5-1.3-11.3,0.6-15.6,4.5
			c-3,2.7-4.3,5.9-3.7,9.1C272.6,181.5,284.7,189.8,293.7,189.8z M272.3,171.7c-0.7-3.7,1.5-6.5,3.4-8.3c3.3-2.9,7.5-4.5,11.9-4.7
			c1,0,1.9,0.1,2.8,0.4c7.1,2.1,13.6,13.4,13,19.9c-0.6,6.2-3.9,9.7-9.6,9.8h-0.2C285.1,188.9,273.4,180.9,272.3,171.7L272.3,171.7z
			"/>
		<path class="st0" d="M338.7,384.4c-3.2,7.5-6.5,15.2-6.4,22.2v0.5l0.5-0.1c4.6-0.5,8.9-2.3,12.9-4.1c2.1-0.9,4.2-1.8,6.4-2.6
			c3.9-1.2,7.8-2.2,11.8-3c4.2-0.8,8.3-1.8,12.3-3.1c2.9-1.1,5.7-2.5,8.3-4.2c2.5-1.6,5.2-3,8-4.1c5.2-1.8,10.7-2.7,16.2-2.9
			c2.5,0,5,0.1,7.5,0.5c3.2,0.5,6.5,0.6,9.7,0.3c3.3-0.6,6.4-1.7,9.3-3.3c2-1,4.1-1.9,6.3-2.5c2.7-0.5,5.4-0.6,8.2-0.3
			c4,0.2,7.9,0.4,10.7-1.5c5.3-3.6,11.2-23.4,13.8-31.9l0.1-0.4c0.9-3.1,1.6-6.2,2.3-9.2c1-4.9,2.3-9.6,4-14.3
			c0.3-0.9,0.9-2.1,1.4-3.3c2.6-5.7,6.2-13.5,2.3-18.8c-1.9-2.6-8.7-6.1-14.2-4c-2.7,1-5,3.8-7.2,6.4c-1.3,1.7-2.8,3.2-4.4,4.5
			c-1.9,1.2-3.9,2.3-6,3.1c-2.6,1-5.1,2.3-7.5,3.9c-2.4,1.8-4.6,3.9-6.6,6.1s-4.2,4.2-6.6,5.9c-8.5,5.6-15.6,7.7-22.5,6.7
			c-3.1-0.4-6.6-2.1-9.9-3.7c-1.9-0.9-3.9-1.8-5.8-2.6c-1.7-0.6-3.4-1.2-5.1-1.7c-3.7-1.1-7.2-2.2-10.3-4.3
			c-4.9-3.4-12.5-11.8-15.6-16.7c-2.1-3.6-3.8-7.3-5.2-11.2c-1.9-5.1-4.2-10-7-14.7c-5.1-7.9-12-14.9-18.8-21.6
			c-7-7-13.6-13.6-17.8-20.9c-1.2-2.2-2.2-4.4-3.1-6.7c-1.7-4.3-3.5-8.8-6.6-11.8c-2.4-2.4-5.2-3.6-7.9-4.7
			c-1.9-0.7-3.7-1.6-5.3-2.7c-1.5-1.1-2.9-2.3-4.2-3.7c-3.1-3-6.2-6-11.8-7h-0.1h-0.1c-7.2,1.5-9.4,4.9-10.5,7.4
			c-2.1,5,0.8,10.2,3.6,15.3c2,3.6,3.8,6.9,4.1,10.1c0.6,8.2-4,14.9-8.9,22c-5.7,8.4-11.7,17.1-8.3,28.2c0.3,3.4,2.1,6.3,3.9,9.4
			c1.5,2.3,2.7,4.7,3.7,7.3c0.8,2.4,1.4,4.9,1.8,7.4c1.2,6.3,2.3,11.7,9.9,14.9c3.9,1.7,7.8,0.8,11.7,0c2.4-0.6,4.9-0.9,7.4-0.9
			c5,0.4,14.2,5,19.2,9c2.7,2.3,5.1,4.9,7.2,7.7c2.7,3.5,5.7,6.7,9.1,9.6c1.7,1.2,3.5,2.3,5.4,3.3c3.3,1.8,6.7,3.6,8.3,6.1
			c2.5,3.7,3.2,8.8,2,15C343.3,373.6,341,379.1,338.7,384.4z M343,353c-1.8-2.6-5.3-4.5-8.6-6.4c-1.8-0.9-3.6-2-5.3-3.2
			c-3.3-2.8-6.3-5.9-8.9-9.4c-2.2-2.9-4.6-5.5-7.3-7.8c-5.2-4.1-14.4-8.7-19.7-9.2c-0.4,0-0.7,0-1.1,0c-2.2,0.1-4.5,0.4-6.6,1
			c-3.7,0.8-7.5,1.6-11.1,0.1c-7.2-3-8.1-8-9.4-14.2c-0.4-2.6-1.1-5.1-1.9-7.5c-1-2.6-2.2-5.1-3.7-7.5c-1.8-3-3.5-5.9-3.8-9.1v-0.1
			c-3.3-10.7,2.5-19.2,8.2-27.4c4.7-7,9.7-14.1,9.1-22.6c-0.3-3.4-2.3-7-4.2-10.4c-2.7-4.9-5.5-9.9-3.6-14.5c1-2.4,3-5.4,9.7-6.8
			c5.2,0.9,8.3,3.9,11.2,6.7c1.3,1.4,2.8,2.6,4.4,3.8c1.7,1.1,3.6,2,5.5,2.8c2.6,1.1,5.4,2.3,7.6,4.5c2.9,2.9,4.7,7.2,6.4,11.5
			c0.9,2.3,1.9,4.6,3.1,6.8c4.3,7.4,10.9,14.1,17.9,21.1c6.7,6.7,13.6,13.6,18.6,21.5c2.8,4.6,5.1,9.5,6.9,14.5
			c1.4,3.9,3.2,7.7,5.3,11.4c3.2,5,10.8,13.5,15.9,16.9c3.2,2.2,7,3.3,10.6,4.5c1.7,0.5,3.4,1,5,1.6c1.9,0.7,3.9,1.6,5.7,2.5
			c3.4,1.6,6.9,3.3,10.2,3.7c7.1,1,14.5-1.2,23.2-6.8c2.5-1.7,4.7-3.8,6.7-6s4.2-4.2,6.5-6c2.3-1.5,4.7-2.8,7.3-3.8
			c2.2-0.8,4.3-1.9,6.2-3.2c1.7-1.4,3.2-2.9,4.5-4.7c2.1-2.5,4.3-5.2,6.8-6.1c5-1.9,11.4,1.3,13.1,3.7c3.5,4.9,0.1,12.4-2.4,17.9
			c-0.6,1.2-1.1,2.3-1.4,3.3c-1.7,4.7-3.1,9.5-4,14.4c-0.7,3-1.3,6.1-2.3,9.2l-0.1,0.3c-2.3,7.6-8.4,27.9-13.4,31.4
			c-2.5,1.7-6.2,1.5-10.1,1.3c-2.8-0.3-5.7-0.2-8.5,0.4c-2.2,0.6-4.4,1.5-6.4,2.6c-2.8,1.5-5.9,2.6-9.1,3.2
			c-3.2,0.3-6.3,0.2-9.5-0.3c-2.5-0.4-5.1-0.5-7.6-0.5c-5.6,0.1-11.2,1.1-16.5,2.9c-2.8,1.1-5.6,2.5-8.2,4.2c-2.6,1.6-5.3,3-8.1,4.1
			c-4,1.3-8,2.3-12.2,3.1c-4,0.8-8,1.8-11.9,3c-2.2,0.8-4.4,1.7-6.5,2.6c-4,1.7-7.9,3.4-12.2,4c0.1-6.7,3.2-14.1,6.3-21.3
			c2.3-5.4,4.6-10.9,5.7-16C346.5,362.2,345.7,356.9,343,353z"/>
		<path class="st0" d="M321.3,193l0.1,0.1h0.2c4.2-0.4,7-3.4,9.7-6.2c0.9-1,1.9-2,2.9-2.9c0.9-0.8,2-1.6,3.2-2.4
			c3.9-2.7,8.7-6.1,8.7-11.7c0-6.7-7.4-12.3-14.5-13.8c-6.7-1.4-12,0.7-14.3,5.8v0.1c-0.1,1.1-0.2,2.3-0.4,3.6
			C316,175.7,314.7,188.2,321.3,193z M318,165.6c0.1-1.2,0.2-2.4,0.4-3.5c2.1-4.6,7.1-6.5,13.3-5.2c6.6,1.4,13.7,6.8,13.7,12.9
			c0,5.1-4.4,8.2-8.3,10.9c-1.2,0.9-2.4,1.7-3.3,2.5c-1,0.9-2,1.9-3,2.9c-2.6,2.7-5.3,5.5-9,5.9C315.7,187.6,317,174.9,318,165.6z"
			/>
		<path class="st0" d="M284.5,373.2c1.2,1.6,3.1,2.6,5.1,2.6c0.4,0,0.9,0,1.3-0.1c3.3-0.7,6.7-4.1,7.9-8.2c1-3.4,0.4-6.5-1.7-8.7
			l-0.2-0.1c-3.9-1.7-8.7,1-11.4,4.6S282.4,370.6,284.5,373.2L284.5,373.2z M286.2,363.9c2.4-3.2,6.8-5.8,10.3-4.4
			c1.8,1.9,2.3,4.6,1.4,7.7c-1.1,3.8-4.1,6.9-7.2,7.5c-2.1,0.4-4.2-0.4-5.4-2.2C283.1,370,284.4,366.4,286.2,363.9z"/>
		<path class="st0" d="M492.4,483.9c-1.9-10.5,10.8-16.2,20.1-20.3c1.7-0.8,3.3-1.5,4.7-2.1c4.1,1.2,4.1,4.6,4.1,8.7
			c0,2.4,0,4.9,1,6.8c1.1,1.8,2.5,3.3,4.3,4.3c1.6,1.2,3.1,2.2,3.9,3.9c-0.2,1.1-0.6,2.2-1,3.2h1c0.4-1,0.7-2.1,0.9-3.2V485
			l-0.1-0.1c-1-1.8-2.5-3.3-4.3-4.4c-1.7-1-3-2.3-4-4c-0.9-1.7-0.9-4.1-0.9-6.4c0-4.1,0.1-8.3-5-9.6l-0.2-0.1l-0.2,0.1
			c-1.4,0.7-3.1,1.4-4.8,2.2c-9.6,4.3-22.8,10.2-20.6,21.5v0.1l0.1,0.1c1.5,1.4,3.1,2.7,4.7,3.9h1.6
			C496,487,494.2,485.5,492.4,483.9z"/>
		<path class="st0" d="M597.7,382.9l0.1,0.1c2,1.6,3.6,2.3,5.1,2.3c2.9,0,5.1-2.6,7.4-5.3c1.4-1.7,2.9-3.3,4.6-4.7
			c3-2.2,7.8-4.5,12.4-6.8c6.2-3.1,12.1-5.9,14.3-8.6c4-5,4.4-9.8,1-12.9c-4.1-3.7-12.7-3.6-18.9,2.5c-3.6,3.5-5.4,8.1-7,12.5
			c-1.4,3.7-2.7,7.2-5.1,9.7c-1.6,0.6-3.2,1-4.8,1.3c-3.7,0.8-7.9,1.7-9.3,4.4c-0.7,1.5-0.6,3.2,0.3,5.4L597.7,382.9z M598.2,377.9
			c1.2-2.3,5.1-3.2,8.7-3.9c1.7-0.3,3.4-0.8,5.1-1.4l0.2-0.1c2.5-2.7,3.9-6.3,5.4-10.1c1.6-4.3,3.3-8.7,6.8-12.1
			c5.9-5.7,13.9-5.9,17.7-2.5c3,2.7,2.6,7.1-1.1,11.7c-2,2.5-8.1,5.5-13.9,8.3c-4.7,2.3-9.5,4.7-12.5,6.9c-1.7,1.4-3.3,3-4.7,4.8
			c-3.4,4-6,7.1-11.1,3C597.7,380.5,597.6,379,598.2,377.9z"/>
		<path class="st0" d="M898.2,469.9c5.1,2.9,9.3,1,14.1-1.2c3.3-1.7,6.9-2.9,10.6-3.5c1.8-0.2,3.6-0.1,5.4,0.3
			c1,0.2,1.9,0.3,2.9,0.4c12.5,0.6,17.8-6,23.4-13.1c1.6-2,3.2-4.1,5.1-6v-1.3c-2,2.2-4,4.4-5.8,6.8c-5.7,7.2-10.6,13.3-22.6,12.7
			c-0.9-0.1-1.9-0.2-2.8-0.4c-1.9-0.4-3.8-0.5-5.7-0.3c-3.8,0.6-7.4,1.8-10.8,3.6c-4.8,2.2-8.6,4-13.3,1.3c-2.4-1.5-4.6-3.2-6.5-5.3
			c-1.4-1.5-3-2.9-4.7-4c-8.4-5.5-25.3-7.3-38.2-6.7c-1.6,0.1-3.1,0.3-4.5,0.5c-2.5,0.5-5,0.5-7.5,0.2c-1.6-0.3-3.1-0.7-4.7-1.3
			c-2.4-0.8-4.7-1.6-7.6-1.3c-13.2,1.5-33.3,12.8-44.5,22.6c-1.5,0.2-3,0.2-4.5-0.1c-1.6-0.2-3.2-0.3-4.8-0.1
			c-1.3,0.3-2.6,0.8-3.7,1.7c-0.8,0.6-1.8,1.1-2.8,1.4c-2.1,0.5-4.4,0.6-6.5,0.5c-0.5,0-0.9,0-1.4,0H756c-2.4-0.1-5.6-0.1-7.4,1.3
			c-2,1.5-4.2,2.8-6.5,4c-3.2,1.6-6.2,3.5-8.9,5.8c-0.1,0.1-0.1,0.1-0.2,0.2h1.4c2.5-2,5.3-3.7,8.1-5.1c2.3-1.2,4.5-2.5,6.6-4.1
			c1.5-1.2,4.7-1.2,6.8-1.1h0.8c0.4,0,0.9,0,1.3,0.1c2.3,0.2,4.6,0,6.8-0.5c1.1-0.3,2.1-0.9,3-1.5c1-0.7,2.1-1.3,3.4-1.5
			c1.5-0.2,3-0.1,4.6,0.1s3.2,0.3,4.8,0h0.1l0.1-0.1c11-9.7,31-21,44.1-22.5c2.5-0.2,4.9,0.3,7.2,1.3c1.6,0.6,3.2,1,4.8,1.3
			c2.6,0.3,5.2,0.2,7.8-0.2c1.4-0.2,2.9-0.4,4.4-0.5c12.8-0.6,29.4,1.2,37.7,6.6c1.6,1.1,3.1,2.5,4.5,3.9
			C893.5,466.6,895.7,468.4,898.2,469.9z"/>
		<path class="st0" d="M885.1,470.9c-0.7-2.7-2.5-4.9-4.9-6.2c-6.3-3.8-16.1-4.1-22.6-2.4c-2,0.7-3.8,1.5-5.6,2.6
			c-4.6,2.4-10.4,5.5-15.6,4.7c-2.3-0.5-4.4-1.5-6.2-2.9c-0.7-0.5-1.5-1-2.2-1.3c-18.7-8.6-36.6,6-47.2,22.5c-0.3,0.1-1,0.1-1.6,0.2
			c-0.8,0.1-1.3,0.2-1.5,0.2c-0.1,0-0.1,0-0.2,0.1h4.1c10.4-16.2,27.9-30.5,46-22.2c0.7,0.4,1.4,0.8,2.1,1.3c2,1.5,4.2,2.5,6.6,3
			c5.5,0.9,11.4-2.3,16.2-4.7c1.7-1,3.5-1.9,5.4-2.5c7.2-1.9,16.6-0.9,21.8,2.3c2.2,1.2,3.9,3.2,4.5,5.6c0.6,2.7-1.3,9.8-4,17.2h1
			C883.8,480.9,885.7,473.8,885.1,470.9z"/>
		<path class="st0" d="M442.3,455.8l-0.2-0.1l-0.2,0.1c-6.8,3.9-10.8,10.1-11.8,18.6c-0.2,2.3,0.1,4.7,0.9,6.9
			c0.6,1.7,0.9,3.5,0.9,5.2c0,0.6-0.1,1.2-0.2,1.8h0.9c0.1-0.6,0.1-1.1,0.2-1.7c0-1.9-0.3-3.8-1-5.6c-0.7-2.1-1-4.3-0.9-6.5
			c1-8.1,4.7-14.1,11.2-17.8c8.6,3.5,7.3,9.4,5.7,16.8c-1,4.5-2.1,9.5-1.2,14.8h0.9c-0.9-5.1,0.1-10.2,1.1-14.6
			C450.5,466.1,451.9,459.6,442.3,455.8z"/>
		<path class="st0" d="M722,468.8c-2-1.9-3.9-3.9-5.6-6.1c-1.9-2.6-3.6-5.5-5.1-8.4c-2.7-5.1-5.2-9.9-11.3-13.6
			c-10.1-6.2-34.1-12.5-44.1-14.6c-18.5-3.8-23.3,5.1-30.6,18.5c-1.4,2.5-2.5,5.1-3.4,7.8c-1.7,5.7-3.6,13.3-5.6,23.3
			c-0.5,2.3-0.8,4.3-1.1,6c-0.3,2.3-0.8,4.5-1.4,6.7h1c0.6-2.2,1-4.4,1.3-6.6c0.3-1.7,0.6-3.7,1.1-6c2-10,3.9-17.6,5.6-23.2
			c0.9-2.6,2-5.2,3.3-7.6c7.1-13.1,11.8-21.7,29.6-18c10,2.1,33.8,8.3,43.8,14.5c5.9,3.6,8.3,8.3,10.9,13.3c1.5,3,3.2,5.9,5.2,8.6
			c1.7,2.2,3.7,4.3,5.7,6.2c3.8,3.6,6,5.8,4.6,11.8c-0.6,2.4-1.5,4.8-2.5,7.1h1c1-2.2,1.8-4.5,2.4-6.9
			C728.4,474.9,725.9,472.4,722,468.8z"/>
		<path class="st0" d="M326.4,280.2c-0.5-0.7-1.1-1.4-1.6-2.2c-7.4-9.9-16.5-22.3-29.8-23h-0.1l-0.1,0.1c-2,0.9-2.9,3.2-2,5.2
			c0,0,0,0.1,0.1,0.1l0.1,0.1l0.1,0.1c6.1,4.5,8.6,12.9,11,20.9c2,6.9,4.2,14.1,8.7,18.9c4.5,4.9,12.3,7.6,21.5,7.6
			c0.6,0,1.1,0,1.7,0h0.3l0.1-0.2c4.6-9.6-0.5-15.8-6.4-23.1C328.7,283.2,327.5,281.7,326.4,280.2z M335.5,307
			c-9.5,0.3-17.6-2.3-22.2-7.3c-4.3-4.6-6.4-11.7-8.5-18.5c-2.4-8.1-4.9-16.5-11.2-21.3c-0.7-1.5,0-3.3,1.5-4
			c12.7,0.7,21.7,12.8,29,22.6c0.6,0.8,1.1,1.5,1.6,2.2c1.2,1.5,2.3,3,3.5,4.4C334.8,292.2,339.7,298.2,335.5,307z"/>
		<path class="st0" d="M360.8,333.3c4.1-5.7-0.9-11.7-5.8-17.5c-2.1-2.3-3.9-4.8-5.4-7.5c-1.3-2.9-2.3-5.9-3-9
			c-1-4.5-2.6-8.9-4.7-13.1c-2.4-4.4-6-8.6-9.5-12.6c-1.2-1.4-2.4-2.8-3.6-4.2c-1.3-1.6-2.7-3.3-3.9-4.9c-3-3.9-6.3-7.7-9.7-11.3
			l-0.5-0.5c-7.7-7.7-18.3-18.3-26.2-15.1c-4.1,1.6-6.7,6.9-9.3,12c-0.8,1.7-1.6,3.2-2.5,4.6c-0.9,1.5-1.8,2.9-2.8,4.2
			c-3.1,4.5-6,8.7-4,13.6v0.1c2.6,4.8,6.5,5.1,10.7,5.4c2.7,0.1,5.3,0.6,7.7,1.7c5.7,2.8,8.6,8.9,11.6,15.4
			c2.4,5.1,4.9,10.4,8.9,14.2c2.5,2.4,5.8,3.8,9.1,5.3c2.9,1.1,5.7,2.6,8.2,4.5c2.1,1.8,3.9,3.8,5.5,6c1.5,2.1,3.2,4,5.2,5.6
			c4.4,3.4,9.8,5.3,15.4,5.5c2.9,0.1,5.8-0.7,8.4-2.2L360.8,333.3z M337.5,329.4c-1.9-1.6-3.6-3.4-5-5.4c-1.6-2.3-3.5-4.4-5.7-6.2
			c-2.6-1.9-5.4-3.4-8.5-4.6c-3.3-1.5-6.4-2.9-8.8-5.1c-3.9-3.7-6.3-8.9-8.6-13.9c-3.1-6.6-6.1-12.9-12.1-15.8
			c-2.6-1.1-5.3-1.7-8.1-1.8c-4-0.3-7.5-0.6-9.9-4.9c-1.8-4.4,0.9-8.2,3.9-12.7c1-1.4,2-2.8,2.8-4.3c0.8-1.4,1.6-3,2.5-4.7
			c2.5-4.9,5.1-10,8.8-11.5c7.3-2.9,17.6,7.4,25.2,14.9l0.5,0.5c3.4,3.6,6.6,7.3,9.6,11.2c1.3,1.6,2.6,3.3,4,4.9
			c1.2,1.4,2.4,2.9,3.6,4.2c3.6,4.2,7,8.1,9.4,12.5c2,4.1,3.6,8.4,4.6,12.9c0.7,3.2,1.8,6.3,3.1,9.2c1.6,2.7,3.5,5.3,5.6,7.6
			c4.6,5.5,9.3,11.2,5.8,16.3C353.1,336.9,343.8,334.1,337.5,329.4z"/>
		<path class="st0" d="M521.7,376.7c-5.7,0.9-19.1,7.9-22.6,15.1c-1,1.8-1.1,4.1-0.1,6l0.1,0.1c5.5,5.9,10.7,8.8,15.6,8.8
			c1.6,0,3.2-0.3,4.7-0.9c2.4-0.9,4.4-3.3,6.6-5.7c1.5-1.9,3.2-3.6,5.1-5.1c1.7-1.2,3.5-2.2,5.4-3c3.1-1.3,5.7-2.5,6.5-5.9l0.1-0.2
			l-0.1-0.2C539.2,380.3,530.4,375.4,521.7,376.7z M536.2,391.1c-2,0.8-3.9,1.8-5.6,3.1c-1.9,1.6-3.7,3.3-5.2,5.3
			c-2.1,2.4-4,4.6-6.2,5.5c-6,2.4-12.3-0.1-19.3-7.6c-0.8-1.6-0.8-3.5,0.1-5.1c3.1-6.4,15.8-13.7,21.9-14.6
			c9.2-1.4,17.3,4.3,20.4,8.4C541.3,388.8,539.1,389.8,536.2,391.1z"/>
		<path class="st0" d="M392.4,365.7l0.1,0.1c2.7,1.8,5.9,2.8,9.1,2.8c4.9,0,9.4-2.2,14.2-4.5c3.2-1.7,6.6-3.1,10.1-4.2
			c3-0.7,6-1.2,9-1.5c4.8-0.6,9.3-1.1,11.9-3.1c3.9-3.2,5.3-7.8,3.6-11.8c-1.6-3.5-5.9-6.9-13.5-5.9c-2.7,0.4-6.2,2.2-10.7,4.6
			c-4.4,2.4-8.9,4.5-13.6,6.4c-2.4,0.9-4.9,1.6-7.4,2.2c-5.7,1.5-11,2.9-13,6.7C391.1,359.6,391.1,362.3,392.4,365.7L392.4,365.7z
			 M393.1,357.9c1.8-3.4,6.9-4.7,12.4-6.2c2.5-0.7,5-1.4,7.5-2.3c4.7-1.8,9.3-4,13.7-6.4c4.2-2.2,7.9-4.1,10.4-4.5
			c7.1-1,11.1,2.1,12.6,5.3c1.6,3.6,0.3,7.8-3.3,10.7c-2.3,1.9-6.7,2.4-11.4,2.9c-3.1,0.3-6.2,0.8-9.2,1.5c-3.6,1.1-7,2.5-10.3,4.2
			c-7.6,3.7-14.1,6.8-22.3,1.8C392.2,362.1,392.2,359.7,393.1,357.9z"/>
		<path class="st0" d="M572.9,384.3c0.7,2.6,1.2,5.2,1.4,7.9c0.7,6.1,1.3,11.9,7.8,15.1c1.7,0.8,3.6,1.1,5.4,1.1
			c7.5,0,17.9-4.2,23.8-7.7c2.9-1.6,6.2-3.8,9.7-6.2c6.6-4.4,14.1-9.4,21.6-12.7c0.8-0.4,1.7-0.7,2.7-1.1c4.2-1.7,9.4-3.8,12.5-7.3
			c7.3-8.3,9.5-26.1,4.7-39.6c-3.1-8.9-8.7-14.4-15.9-15.7c-1.8-0.3-3.8,0.2-6,0.8c-1.6,0.5-3.2,0.8-4.9,1c-5,0.2-9-0.8-13-1.8
			c-5.4-1.4-10.1-2.5-15.6,0.1c-4.9,2.4-10.5,7.6-15.4,12.2c-0.9,0.8-1.8,1.7-2.6,2.4c-1.4,1.3-3,2.7-4.5,4.1
			c-7,6.3-14.3,12.8-17.1,18.3c-2,4.1-1.9,7.9-1.1,12.2c0.4,3.2,1.8,6.2,3.3,9.5C571,379.2,572,381.7,572.9,384.3z M568.4,355.5
			c2.6-5.4,9.9-11.8,16.8-18.1c1.5-1.4,3.1-2.7,4.5-4.1c0.9-0.8,1.7-1.6,2.6-2.4c4.9-4.6,10.4-9.7,15.2-12c2-1,4.2-1.5,6.4-1.5
			c2.9,0.1,5.8,0.6,8.5,1.4c4.3,1.3,8.8,1.9,13.2,1.8c1.7-0.2,3.4-0.5,5.1-1c2.1-0.5,4-1,5.6-0.8c6.8,1.2,12.2,6.5,15.2,15.1
			c4.6,13.3,2.6,30.6-4.6,38.7c-3,3.3-8,5.4-12.1,7.1c-1,0.4-1.9,0.8-2.7,1.1c-7.6,3.4-15.2,8.4-21.8,12.8c-3.5,2.3-6.8,4.5-9.6,6.1
			c-8,4.6-22.1,9.7-28.4,6.5c-6-3-6.6-8.5-7.3-14.3c-0.2-2.7-0.7-5.4-1.4-8.1c-0.8-2.6-1.9-5.2-3.1-7.6c-1.5-3.2-2.9-6.1-3.3-9.2
			l0,0C566.6,363,566.5,359.4,568.4,355.5z"/>
		<path class="st0" d="M136.3,476.6c-3.2,3.9-6.1,7.8-9,11.7h1.2c2.7-3.7,5.5-7.4,8.5-11.1c1.7-2.1,3.2-4.3,4.6-6.6
			c2.5-4.1,5-7.9,8.8-10.1c11.9,3.2,19.5,3.2,25.8-5.7c4.8-6.9,5.4-15.9,1.7-26.2c-0.1-6.8,9.9-11.4,18.8-15.4
			c5.9-2.7,11.1-5,13-7.8c3.9-5.7,0.4-10.3-3.7-15.7c-0.6-0.8-1.3-1.7-2-2.6c-0.3-1.2-0.1-2.4,0.5-3.4c0.3-0.1,0.6-0.3,0.9-0.4
			c8.7,3.4,14.4,1.8,21.5-0.2c2-0.6,4.1-1.2,6.4-1.7c3.3-0.7,6.6-1.1,9.9-1.3c8.1-0.7,17.4-1.5,22.3-7.1c1.4-1.9,2.6-3.9,3.6-6.1
			c1.5-3.1,3.2-6.6,6.1-9.3c4.2-3.9,8.9-7.3,13.8-10.2c4.1-2.2,8.3-2.5,12.1-0.9c4.9,2.1,8.9,7.2,10.7,13.8
			c2.7,9.6-1.6,20.4-11.6,28.7c-1.6,1.3-3.3,2.5-5.1,3.6c-2.9,1.9-5.6,3.6-7.6,6.2c-1.4,2.1-2.5,4.4-3.4,6.8
			c-1.6,4.2-3.1,8.1-7.6,9.8l-0.2,0.1l-0.1,0.2c-4.1,7.6-9.7,21.5-0.8,29c6,5.1,18,5.7,26.7,3.7c4.3-1,8.7-3.1,13.4-5.3
			c2.9-1.3,5.8-2.7,9-4c2.1-0.9,4.2-1.7,6.3-2.5c5.8-2.1,11.4-4.5,16.9-7.2c0.8-0.4,1.6-0.9,2.4-1.4c1.9-1.3,3.9-2.2,6.1-2.9
			c3.4-0.7,8.3,0.6,12.3,1.6c1.4,0.4,2.9,0.7,4.3,1c3.7,0.5,7.5,0.9,11.2,0.9c0.2,0,0.4,0,0.6,0c10.8,0,20-5,29.7-10.2
			c7.4-4,15.1-8.1,23.8-10.1c8.1-1.9,14.9-1.4,19,1.2c2.4,1.5,4.1,3.9,4.6,6.7c0.9,4-1.1,9.3-2.9,14.1c-1.1,2.6-1.9,5.3-2.5,8.1
			c-0.9,5.8,0.2,11.4,1.3,16.8c0.5,2.5,1,5,1.3,7.5c0.5,4.4-0.1,8.7-0.7,13c-0.6,4.5-1.2,8.8-0.4,12.7h1c-0.9-3.8-0.3-8.1,0.3-12.6
			c0.6-4.3,1.2-8.7,0.7-13.2c-0.3-2.5-0.8-5-1.3-7.5c-1-5.3-2.1-10.9-1.3-16.5c0.6-2.7,1.4-5.3,2.4-7.9c1.8-4.9,3.9-10.4,2.9-14.6
			c-0.6-3-2.4-5.7-5-7.3c-4.3-2.7-11.3-3.2-19.7-1.3c-8.9,2-16.6,6.2-24,10.2c-9.8,5.3-19,10.2-29.9,10c-3.7-0.1-7.4-0.4-11.1-0.9
			c-1.4-0.2-2.8-0.6-4.2-1c-4-1-9.1-2.4-12.7-1.6c-2,0.4-4.2,1.7-6.4,3c-0.8,0.5-1.6,0.9-2.3,1.3c-5.4,2.7-11,5.1-16.7,7.2
			c-2,0.8-4.1,1.6-6.3,2.4c-3.2,1.3-6.2,2.7-9.1,4.1c-4.6,2.2-9,4.2-13.2,5.2c-8.5,2-20.1,1.4-25.9-3.5c-8.3-7-3-20.3,1-27.7
			c4.7-1.9,6.4-6.2,7.9-10.3c0.8-2.3,1.9-4.5,3.2-6.6c1.8-2.5,4.5-4.2,7.3-6c1.8-1.1,3.5-2.3,5.2-3.6c10.2-8.6,14.7-19.6,11.9-29.6
			c-1.9-6.9-6.1-12.3-11.2-14.5c-4-1.7-8.5-1.4-12.8,0.9c-5,2.9-9.7,6.4-14,10.3c-3.1,2.8-4.8,6.4-6.3,9.6c-0.9,2.1-2.1,4.1-3.4,5.9
			c-4.7,5.3-13.7,6.1-21.7,6.8c-3.4,0.2-6.7,0.6-10,1.3c-2.4,0.5-4.5,1.1-6.5,1.7c-7.3,2.1-12.6,3.6-21.1,0.2l-0.2-0.1l-0.2,0.1
			c-0.3,0.2-0.7,0.4-1.1,0.6l-0.1,0.1l-0.1,0.1c-1,1.2-0.9,2.8-0.7,4.3v0.1l0.1,0.1c0.7,0.9,1.4,1.9,2,2.7c4,5.3,7.2,9.5,3.7,14.6
			c-1.8,2.6-7,4.9-12.6,7.5c-9.2,4.1-19.6,8.8-19.3,16.3v0.1c3.6,10.1,3.1,18.7-1.6,25.4c-6,8.5-13.4,8.4-24.9,5.3l-0.2-0.1
			l-0.2,0.1c-4.2,2.2-6.7,6.2-9.3,10.5C139.4,472.3,137.9,474.5,136.3,476.6z"/>
		<path class="st0" d="M8.7,488.3c2.2-5.3,3.4-11,3.5-16.8c0-2.4-0.2-4.7-0.5-7.1c-0.5-4.1-0.9-7.6,0.6-10.9
			c1.4-3.1,4.1-5.1,6.9-7.3c1.7-1.2,3.2-2.6,4.7-4c1.7-1.6,3-3.2,4.4-4.8c2.7-3.1,5-5.8,8.5-7.3c6.3-2.6,29.5-2.5,37.2-0.4
			c4.4,1.2,9.1,3.7,14.1,6.4c4.6,2.5,9.4,5,13.8,6.4c1.7,0.5,3.4,1,5,1.4c6.7,1.6,12.4,3,13.2,11c0.4,3.9-3,9.9-5.9,15.2
			c-1.3,2.3-2.4,4.4-3.3,6.3c-1.8,3.8-3.9,7.8-6,11.9h1.1c2.1-4,4.1-7.9,5.8-11.5c0.9-1.9,2.1-4,3.3-6.2c3.2-5.7,6.5-11.5,6-15.7
			c-0.9-8.7-7.2-10.2-13.9-11.9c-1.6-0.4-3.3-0.8-5-1.3c-4.4-1.4-9.1-3.9-13.7-6.3c-4.8-2.6-9.8-5.2-14.3-6.5
			c-7.2-1.9-31-2.4-37.8,0.5c-3.7,1.5-6.1,4.3-8.8,7.5c-1.3,1.6-2.7,3.1-4.3,4.7c-1.5,1.4-3,2.7-4.7,3.9c-2.9,2.3-5.7,4.4-7.2,7.7
			c-1.6,3.5-1.1,7.4-0.6,11.4c0.3,2.3,0.5,4.6,0.5,6.9c-0.1,5.8-1.3,11.5-3.5,16.8L8.7,488.3L8.7,488.3z"/>
		<path class="st0" d="M65.1,258.5c-5.1,2.2-10.8,4.7-8.3,12.6l0.1,0.1c1.6,2.4,3.4,3.7,5.3,3.9c3.2,0.4,6.3-2.1,9.5-4.8
			c2.9-2.4,5.8-4.8,9-5.3c9.2-1.4,15.1,6.7,20.9,14.5c1.6,2.2,3.3,4.4,4.9,6.4c2.5,2.7,5.1,5.2,8,7.5c2.5,2,4.8,4.1,6.9,6.4
			c3.4,3.7,5.9,8.1,8.3,12.4c2.5,4.5,4.9,8.7,8,11.4c3.3,2.9,13.4,7,20.1,8.1c2.9,0.4,5.8,0.7,8.8,0.7c4.1,0.2,7.9,0.3,11.6,1.4
			c4.5,1.4,8.3,3.8,12.1,6.1c4,2.5,7.8,4.9,12.2,5.8c0.9,0.2,1.9,0.3,2.9,0.3c4,0,7.9-1.8,10.6-4.8c5-5.3,7-13.8,5.1-21.4
			c-1.2-4.5-3.6-8.4-6-12.1c-2.9-4.5-5.8-9.2-6.5-15.1c-0.1-2.4,0.2-4.9,0.8-7.2c0.5-2,0.8-4,0.9-6.1c-0.1-9.3-2.5-15.8-8-21.9
			l-0.1-0.1h-0.1c-2.3-0.6-4.7-0.9-7.1-0.8c-2.1,0.1-4.2-0.2-6.2-0.7c-7.2-2.1-23.9-11.2-26.7-15.8c-3.1-5-2.5-10.9-2-17.1
			c0.5-5.6,1-11.5-1.4-16.7c-3.5-7.3-11.5-13.4-20.5-15.4c-4.2-0.9-9.2-0.3-14.9,0.5c-3.1,0.4-6.2,0.8-9.6,1c-2.8,0-5.6-0.1-8.4-0.5
			c-6.5-0.6-13.9-1.4-18.9,0.9c-12.6,5.8-13.5,24.2-12.7,41.5c0.1,1.6,0.2,3.3,0.4,4.9c0.5,5.6,1,11.5-1.9,15.2
			C70.6,256.1,67.8,257.3,65.1,258.5z M72.8,254.7c3.1-4,2.6-10,2.1-15.8c-0.2-1.6-0.3-3.2-0.4-4.8c-0.8-16.9,0.1-35,12.2-40.6
			c4.7-2.2,12-1.5,18.4-0.8c2.8,0.4,5.7,0.6,8.6,0.5c3.4-0.2,6.5-0.6,9.6-1c5.6-0.8,10.5-1.4,14.6-0.5c8.7,1.9,16.5,7.8,19.9,14.9
			c2.4,5,1.8,10.7,1.3,16.2c-0.6,6-1.2,12.3,2.1,17.6c3,5,20.6,14.2,27.2,16.2c2.1,0.5,4.3,0.8,6.4,0.7c2.3,0,4.5,0.2,6.7,0.8
			c5.3,5.9,7.6,12.2,7.7,21.2c-0.1,2-0.3,4-0.8,5.9c-0.6,2.4-0.9,5-0.8,7.5c0.6,6.1,3.7,10.9,6.6,15.5c2.4,3.7,4.8,7.5,5.9,11.9
			c1.9,7.2-0.1,15.5-4.9,20.5c-3.2,3.5-8,5.1-12.6,4.2c-4.1-0.8-7.9-3.1-11.9-5.6c-3.8-2.3-7.6-4.8-12.3-6.2
			c-3.8-1.2-7.9-1.3-11.9-1.4c-2.9,0-5.8-0.3-8.7-0.7c-6.5-1.1-16.4-5.1-19.6-7.9c-2.9-2.6-5.3-6.8-7.8-11.2
			c-2.4-4.3-5-8.7-8.4-12.6c-2.2-2.3-4.5-4.5-7-6.5c-2.8-2.3-5.4-4.7-7.9-7.4c-1.7-2-3.3-4.2-4.9-6.3c-5.5-7.4-11.1-15-19.6-15
			c-0.7,0-1.5,0.1-2.2,0.2c-3.4,0.5-6.5,3.1-9.5,5.5c-3.1,2.5-6,5-8.8,4.6c-1.6-0.2-3.1-1.3-4.6-3.5c-2.2-7,2.7-9.2,7.8-11.5
			C68.3,258.1,71.2,256.8,72.8,254.7L72.8,254.7z"/>
		<path class="st0" d="M231.7,277c0.5,0,1,0,1.6-0.1h0.2c6.8-3.4,7.8-10.5,8.8-17.3c0.3-2.9,0.9-5.7,1.7-8.4
			c0.6-1.6,1.3-3.1,2.2-4.6c1.9-3.4,3.6-6.5,1.8-10.4l-0.1-0.1l-0.1-0.1c-7-4.6-16.9-3.6-24.2,2.4c-6.7,5.5-9,13.6-6,21.1
			C218.7,268.4,223.6,277,231.7,277z M218.3,259.1c-3.4-8.5,0.7-15.9,5.7-20.1c3.9-3.2,8.7-5,13.7-5.1c3.3,0,6.5,0.9,9.3,2.6
			c1.5,3.4,0,6.2-1.8,9.5c-0.9,1.5-1.6,3.1-2.2,4.7c-0.8,2.8-1.4,5.7-1.7,8.6c-0.9,6.6-1.9,13.4-8.2,16.6
			c-9.5,1.2-13.7-9.9-14.7-16.7L218.3,259.1z"/>
		<path class="st0" d="M151.6,423.1h0.2l0.1-0.1c5.9-3.3,8.8-12.9,7.4-19.3v-0.3l-0.3-0.1c-2.9-1-6.1-0.4-8.5,1.6
			c-3.6,2.7-6.1,7.5-5.8,11.6v0.1C145.8,419.9,148.4,422.3,151.6,423.1z M151.2,405.7c2-1.7,4.8-2.3,7.4-1.6
			c1.1,5.9-1.6,14.9-6.9,17.9c-2.8-0.7-5.1-2.8-6-5.6C145.5,412.8,147.8,408.2,151.2,405.7z"/>
		<path class="st0" d="M254.8,404.9c2.3,1.9,6.1,4.1,9.7,4.1c2.2,0,4.2-0.9,5.6-2.5l0.1-0.1c2.2-4.5,0.3-7.2-1-8.4
			c-3.4-2.7-8-3.1-11.8-1c-2.7,1.6-3.6,4.3-2.7,7.7L254.8,404.9L254.8,404.9z M257.8,397.8c3.1-1.9,8.1-1.5,10.7,0.9
			c1.4,1.2,2.6,3.5,0.9,7.3c-3.9,4.4-10.5,1.1-13.9-1.6C254.8,401.4,255.6,399.1,257.8,397.8z"/>
		<path class="st0" d="M252.4,424.9l-0.1-0.1c-5-3.1-10.2-2.9-15.2-2.7c-2.2,0.2-4.5,0.1-6.7,0c-2.5-0.3-5-0.8-7.4-1.5
			c-4.4-1.1-8.5-2.1-13.2-1.1c-9.3,2-11.8,8-14.9,15.6c-0.6,1.4-1.2,2.9-1.9,4.4c-1.1,2.5-2.2,5.2-3.4,7.9
			c-4.8,11.3-9.8,23-16.2,31.1c-5,6.4-9.4,4.8-14.5,3c-3.3-1.2-6.8-2.4-10.7-1.4c-3.2,0.8-7.6,4-12.1,8.3h1.4
			c4.1-3.8,8.1-6.7,10.9-7.4c3.6-0.9,6.9,0.3,10.1,1.4c5,1.8,10.1,3.7,15.6-3.3c6.4-8.2,11.4-19.9,16.3-31.3
			c1.2-2.7,2.3-5.3,3.4-7.8c0.7-1.5,1.3-3,1.9-4.4c3.1-7.6,5.4-13.1,14.2-15.1c4.5-1,8.5,0,12.8,1.1c2.5,0.7,5,1.2,7.5,1.5
			c2.3,0.2,4.6,0.2,6.8,0.1c4.8-0.2,9.8-0.4,14.6,2.5c1.6,1.9,1.5,4.4,1.5,6.8c0,0.6,0,1.2,0,1.7v0.1c1.4,5.3,3.8,10.8,11.4,14.9
			c7.7,4.1,24.4,12.2,29,13c7.9,1.2,14.9-3.5,21.7-8.1c5-3.4,9.7-6.5,14.8-7.5c1.8-0.2,3.7-0.3,5.6-0.1c2.6,0.2,5.2,0.2,7.8-0.1
			c0.8-0.1,1.8-0.3,2.8-0.4c6.2-1,16.7-2.7,20.7,1.1l0.1,0.1h0.2c3,0,5.9-0.2,8.7-0.4c3.3-0.2,6.7-0.5,10.2-0.4
			c1.2,0,2.5,0.2,3.7,0.4c2.8,0.4,5.5,0.8,8.9-0.8c3.3-1.6,5.4-4.1,7.4-6.6c2.9-3.5,5.6-6.8,11.8-7.9c0.4-0.1,0.9-0.1,1.4-0.2
			c1.1-0.2,2.4-0.4,4.2-0.7c3.6-0.8,6.2-3,8.7-5.2c4-3.5,7.4-6.5,14-2.6c3.4,5.4,1.6,11.6-1.6,15.2c-2.8,3.2-7.7,5.6-13.3,2.9
			l-0.2-0.1l-0.2,0.1c-2.9,1.5-5.8,3.1-8.6,4.6c-5.3,3.1-10.8,5.8-16.4,8.1l-0.2,0.1c-6.1,6.2-1.4,17.1,3.2,22.9
			c2.4,3,3.6,6.4,4.7,9.6c0.2,0.7,0.5,1.3,0.7,2h1c-0.3-0.8-0.6-1.5-0.8-2.3c-1.2-3.4-2.4-6.8-4.9-9.9c-4.2-5.3-8.9-15.9-3.4-21.6
			c5.7-2.3,11.2-5,16.5-8.2c2.7-1.5,5.5-3.1,8.3-4.5c6,2.7,11.3,0.1,14.2-3.2c4.1-4.5,4.7-11.2,1.6-16.4l-0.1-0.1l-0.1-0.1
			c-7.3-4.3-11.1-0.9-15.2,2.6c-2.4,2.1-4.9,4.3-8.3,5c-1.7,0.3-3.1,0.5-4.1,0.7c-0.5,0.1-1,0.2-1.4,0.2c-6.5,1.1-9.5,4.7-12.4,8.2
			c-2,2.5-3.9,4.8-7,6.3s-5.7,1.1-8.4,0.7c-1.3-0.2-2.5-0.3-3.8-0.4c-3.5-0.1-7,0.2-10.3,0.4c-2.7,0.2-5.6,0.4-8.5,0.4
			c-4.4-4-15-2.3-21.3-1.3c-1.1,0.2-2,0.3-2.8,0.4c-2.5,0.3-5.1,0.3-7.6,0.1c-1.9-0.2-3.9-0.2-5.8,0.1c-5.2,1-10.3,4.4-15.1,7.7
			c-6.6,4.5-13.5,9.1-21,7.9c-4.5-0.7-21.1-8.7-28.7-12.9c-6.8-3.7-9.3-8.3-10.9-14.2c0-0.5,0-1.1,0-1.6
			C254.2,429.8,254.3,427.1,252.4,424.9z"/>
		<path class="st0" d="M21.9,486.4v-0.1c-4.2-9.9,0.8-16.5,6-23.5c2.1-2.6,3.9-5.4,5.6-8.3c1.1-2.1,2.1-4.4,2.9-6.6
			c1.4-3.6,2.7-7,4.8-8.7c3.3-2.6,8.4-3.4,13.4-3.4c5.3,0,10.6,0.8,15.6,2.4c5,1.9,8.5,5.6,12,9.2c2.7,2.9,5.5,5.8,9,7.8
			c2,1,4,1.6,6.2,2c3.2,0.7,6.2,1.4,8.1,3.7c0.8,7.2-2.7,16.6-5.8,23.1c-0.7,1.5-1.4,3-2.1,4.4h1c0.6-1.3,1.3-2.6,1.9-4
			c3.1-6.7,6.7-16.3,5.8-23.8v-0.1l-0.1-0.1c-2.2-2.7-5.5-3.4-8.7-4.1c-2.1-0.3-4.1-1-6-1.9c-3.3-1.9-6-4.6-8.8-7.6
			c-3.5-3.7-7.1-7.5-12.3-9.4c-3.9-1.5-21.9-5.1-30,1.2c-2.3,1.8-3.6,5.4-5.1,9.1c-0.8,2.2-1.7,4.4-2.8,6.5
			c-1.7,2.8-3.5,5.6-5.5,8.2c-5.4,7.2-10.4,14-6.1,24.3c0.1,0.6,0.2,1.2,0.3,1.8h0.9C22.1,487.7,22,487,21.9,486.4z"/>
		<path class="st0" d="M316.9,400.5c-5.7,4.7-11.5,9.7-11.3,14.9c0.1,2.8,1.8,5.4,5.3,7.9c1.4,1,8.5,2.2,12.7,1.6
			c6-1,11.3-5,16.8-9.3c4.5-3.5,9.2-7.1,14.4-8.9c6.1-2.1,12.8-1.7,18.6-1.3c4.6,0.3,8.9,0.6,12.3-0.4c4.2-1.2,7.9-4.1,11.1-6.7
			c2-1.8,4.2-3.3,6.6-4.5c2.9-1.3,6-2.1,9.1-2.4c2.7-0.1,5.5,0,8.2,0.4c3.7,0.4,7.6,0.8,11.2,0c2.8-0.7,5.6-1.7,8.2-3
			c1.9-1,3.9-1.6,5.9-2c4-0.3,20,3.4,23.9,5.8c2.4,1.5,4.1,3.9,5.7,6.3c1,1.7,2.3,3.3,3.6,4.7c2.3,2.1,4.8,3.8,7.5,5.3
			c5.2,3.1,10.5,6.4,11.3,12.9c-4,4.6-9.8,11.6-8.9,17.3c0.5,2.4,2,4.4,4.2,5.5c2.6,1.5,5,1.9,7.1,1.3c4.1-1.3,6.5-6.3,8.6-10.8
			c1.2-2.5,2.3-4.8,3.5-6c3.2-3.1,8.3-3.6,12.8-4.1c1.8-0.1,3.5-0.4,5.3-0.8c1.5-0.4,2.9-0.9,4.3-1.6c3.6-1.5,6.4-2.7,8.6,0.5
			c-1.1,3.2-3,4.5-5,5.9c-1.7,1-3.2,2.4-4.4,4.1c-5.9,9.5-2.1,23.9,4.7,31.8c2.5,2.9,6.5,5.1,10.4,7.3c7.3,4.1,14.2,8,11.7,15.9h1
			c2.6-8.4-4.9-12.6-12.2-16.7c-3.8-2.1-7.7-4.3-10.1-7.1c-6.6-7.6-10.3-21.5-4.6-30.7c1.1-1.6,2.5-2.9,4.1-3.8
			c2.1-1.5,4.3-2.9,5.4-6.6l0.1-0.2l-0.1-0.2c-2.7-4.1-6.3-2.5-9.9-1c-1.3,0.6-2.7,1.1-4.1,1.5c-1.7,0.4-3.4,0.6-5.2,0.7
			c-4.7,0.5-10,1-13.4,4.3c-1.3,1.3-2.5,3.7-3.7,6.3c-2,4.3-4.3,9.2-8,10.3c-1.9,0.6-3.9,0.2-6.3-1.2c-1.9-0.9-3.3-2.7-3.8-4.9
			c-0.9-5.4,5.2-12.5,8.8-16.7l0.1-0.2v-0.2c-0.7-7.1-6.3-10.5-11.7-13.8c-2.6-1.4-5.1-3.2-7.3-5.2c-1.3-1.4-2.5-2.9-3.5-4.5
			c-1.7-2.5-3.4-5-6-6.6c-4.2-2.5-20.2-6.2-24.5-5.9c-2.2,0.4-4.3,1.1-6.2,2.1c-2.6,1.2-5.3,2.2-8,2.9c-3.5,0.8-7.2,0.4-10.9,0
			c-2.8-0.4-5.6-0.5-8.4-0.4c-3.3,0.3-6.4,1.2-9.4,2.5c-2.4,1.3-4.7,2.8-6.8,4.6c-3.3,2.7-6.8,5.4-10.8,6.5c-3.3,0.9-7.5,0.6-12,0.3
			c-5.9-0.4-12.7-0.9-19,1.3c-5.3,1.8-10.1,5.5-14.7,9c-5.4,4.2-10.6,8.1-16.4,9.1c-3.9,0.7-10.8-0.5-12-1.4
			c-3.2-2.3-4.9-4.7-4.9-7.2c-0.2-4.8,5.5-9.6,11-14.2c2.5-2,4.8-4.1,7-6.4c6-6.5,14.9-24.2,10.6-34.7c-1.3-3.1-4.2-5.5-7.2-8.1
			c-1.5-1.2-2.9-2.5-4.3-3.9c-1.8-1.9-3.5-4.1-5.4-6.4c-4.4-5.6-9-11.4-15.4-13.2c-7.2-2.1-13,0.6-19.2,3.4
			c-5,2.3-10.1,4.6-16.3,4.5c-2.8-2.1-4.2-5.3-5.5-8.3c-0.6-1.3-1.1-2.6-1.8-3.8c-1-1.7-2.1-3.4-3.1-5.1c-1.9-2.7-3.5-5.5-4.7-8.6
			c-1-2.6-1.1-5.6-1.3-8.7c-0.1-2.5-0.3-5.1-0.8-7.6c-0.3-1.1-0.6-2.1-1.1-3.2c-0.4-1-0.8-2-1-3.1c-1.7-9.8,0.1-24.3,3.9-32.3
			c1.4-2.5,3-4.8,5-6.8c2.4-2.8,5-5.8,6-9.3c2.4-8.3-3-13.9-7.8-18.7c-1.9-1.8-3.6-3.7-5.1-5.8c-4.5-6.9-8.3-14.4-11.2-22.1
			c-2.8-9.8,4.5-14.8,11.6-19.6c3.7-2.5,7.2-4.9,9-7.9c2.5-4.3,1.7-10,1-15.5c-1.2-8.6-2.3-16.7,7.8-20.2c3.6,1.2,7.1,2.7,10.5,4.4
			c4.5,2.2,8.8,4.3,14.4,5.4c7,1.3,16.5,1.3,24.1,1.3c1,0,2,0,3,0c2.1,0,4.1-0.2,6.1-0.4c3.6-0.4,6.8-0.7,10.1,0.5
			c14,5.3,25.5,22,20.1,36.6c-1.8,4.9-4.7,7-8.3,9.7c-1.3,1-2.7,2-4.2,3.3c-1.4,1.2-2.9,2.7-4.5,4.2c-2.4,2.5-4.9,4.8-7.6,6.9
			c-1.4,1-2.6,1.9-3.8,2.7c-9.3,6.5-14,9.8-10,23c3.8,12.8,12.6,20.7,21.8,29.2c6.5,6,13.3,12.2,18.3,20.3c2.9,4.7,5.3,9.3,7.7,13.7
			c5.4,10.2,10.1,19,17.3,23.9c4.7,3.2,20.5,8.6,26.9,9.6c12.3,1.9,18.4-4.4,24.2-10.6c1.8-1.9,3.7-3.7,5.6-5.4
			c2.9-2.3,6-4.3,9.3-6.1c2.4-1.4,4.8-2.9,7-4.6c1.3-1.1,2.5-2.3,3.6-3.5c2.1-2.2,4-4.3,6.8-5.4c9.6-3.8,23.3,1.1,28.1,10
			c1.3,2.4,1.7,5.5,2.1,8.4c0.2,1.9,0.6,3.9,1.1,5.8c0.5,1.7,1.1,3.3,1.8,4.9c1.3,3.1,2.4,5.7,1.7,8.5c-1.5,2.8-3.5,3.2-5.9,3.7
			c-1.8,0.2-3.5,0.9-5,1.8c-5.5,3.8-6.3,9-7.2,15.1c-0.4,3.4-1.1,6.8-2.1,10c-0.8,2.3-1.7,4.5-2.8,6.6c-2.8,5.9-5.4,11.5-0.7,14.8
			l0.1,0.1c2.8,1,5.1,0.1,7.5-0.9c1.2-0.5,2.4-0.9,3.6-1.2c2-0.4,4-0.7,6.1-0.9c3.1-0.2,6.3-0.8,9.3-1.7c3.3-1.3,6.4-3,9.3-5
			c3.2-2.1,6.5-3.9,9.9-5.5c1.7-0.8,3.2-1.3,4.8-1.9c4.1-1.5,7.7-2.9,9.9-6.1c1.7-2.5,2.3-6.4,2.8-10.1c0.6-4.3,1.3-8.8,3.7-11.2
			c2-2,5-2.3,8.1-2.7c2.4-0.3,4.9-0.5,7-1.6c3.1-1.7,5.4-4.9,7.8-8.3c2.2-3,4.4-6.2,7.3-8.3c1.8-1.2,3.7-2.1,5.7-2.8
			c1.2-0.5,2.5-1,3.8-1.6c2.4-1.1,5-2.5,7.5-3.8c3.5-1.9,7.1-3.8,10.5-5.2c16.7-6.8,38.1-8.5,51-4c7.4,2.5,11.5,6.9,16.7,12.4
			c1.3,1.4,2.7,2.8,4.1,4.3c1.1,1.1,2.3,2.2,3.5,3.3c3.2,2.9,6.2,5.7,7.5,8.6c1.6,3.6,1.1,7.7,0.5,12c-0.3,2.3-0.5,4.5-0.5,6.8
			c0,1.6,0.2,3.1,0.5,4.6c0.4,1.7,0.5,3.4,0.4,5.1c-0.8,5.6-4.1,10.6-7.2,15.4c-2.8,4.4-5.8,8.9-7,14c-1.1,4.5-0.3,8.2,0.5,12.1
			c0.7,3.5,1.4,7.1,0.9,11.5c-8,7.1-16.1,4.2-24.7,1c-6.1-2.2-12.4-4.5-18.5-2.8c-13.7,3.9-26.8,28.7-28.5,40.1
			c-0.5,3.5,0.4,6.4,1.3,9.2c0.6,1.6,1,3.2,1.2,4.9c1.4,10.7-3.9,22.5-10.8,30.2h1.2c6.8-7.9,11.9-19.6,10.5-30.3
			c-0.3-1.7-0.7-3.4-1.3-5.1c-0.9-2.8-1.7-5.4-1.2-8.8c1.6-11.2,14.5-35.5,27.8-39.3c5.8-1.7,11.9,0.6,17.9,2.7
			c8.5,3.1,17.3,6.3,25.7-1.3l0.1-0.1v-0.2c0.7-4.6-0.1-8.3-0.8-11.9c-0.8-3.8-1.5-7.4-0.5-11.7c1.2-4.9,4.1-9.4,6.9-13.7
			c3.2-4.9,6.5-9.9,7.3-15.7c0.1-1.8,0-3.6-0.4-5.4c-0.3-1.5-0.4-3-0.5-4.5c0-2.2,0.2-4.5,0.5-6.7c0.5-4.4,1-8.6-0.6-12.5
			c-1.3-3.1-4.4-6-7.7-9c-1.2-1-2.3-2.1-3.4-3.2c-1.5-1.5-2.8-2.9-4.1-4.3c-5.3-5.6-9.4-10-17.1-12.6c-13.1-4.5-34.9-2.8-51.7,4.1
			c-3.4,1.4-7.1,3.3-10.6,5.2c-2.5,1.3-5,2.7-7.4,3.8c-1.3,0.6-2.5,1.1-3.7,1.6c-2.1,0.7-4.1,1.7-5.9,2.9c-3,2.2-5.3,5.4-7.5,8.5
			c-2.4,3.3-4.6,6.5-7.5,8c-1.9,1-4.3,1.3-6.6,1.5c-3.2,0.3-6.4,0.7-8.7,2.9c-2.6,2.5-3.2,7.2-3.9,11.7c-0.5,3.7-1.1,7.5-2.7,9.8
			c-2.1,3-5.4,4.2-9.5,5.7c-1.6,0.6-3.1,1.2-4.9,1.9c-3.5,1.6-6.8,3.5-10,5.6c-2.8,2-5.9,3.6-9.1,4.9c-2.9,0.9-6,1.5-9,1.7
			c-2.1,0.1-4.2,0.4-6.2,0.9c-1.3,0.3-2.5,0.8-3.7,1.3c-2.3,1-4.3,1.8-6.8,0.9c-4.1-2.8-1.7-7.8,1-13.6c1.1-2.2,2-4.4,2.9-6.7
			c1-3.3,1.8-6.7,2.1-10.2c0.9-6.1,1.6-10.9,6.8-14.5c1.4-0.9,3-1.4,4.6-1.7c2.4-0.5,4.9-1,6.6-4.2V326c0.8-3.1-0.4-6-1.7-9.1
			c-0.7-1.6-1.3-3.1-1.8-4.8c-0.5-1.8-0.8-3.7-1-5.6c-0.4-3.1-0.9-6.3-2.3-8.8c-5.1-9.5-19-14.4-29.2-10.4c-3,1.2-5.1,3.4-7.2,5.6
			c-1.1,1.2-2.3,2.4-3.5,3.4c-2.2,1.7-4.5,3.2-6.9,4.5c-3.3,1.8-6.4,3.9-9.4,6.2c-2,1.7-3.9,3.6-5.7,5.5c-6,6.2-11.6,12.1-23.4,10.3
			c-6.2-0.9-22-6.4-26.5-9.4c-7-4.8-11.6-13.5-17-23.6c-2.4-4.5-4.8-9.1-7.7-13.8c-5-8.2-11.8-14.4-18.5-20.5
			c-9.1-8.4-17.8-16.3-21.5-28.8c-3.8-12.6,0.4-15.5,9.6-22c1.2-0.8,2.5-1.7,3.8-2.7c2.8-2.1,5.4-4.4,7.8-6.9c1.5-1.5,3-3,4.4-4.2
			c1.5-1.3,2.8-2.3,4.2-3.3c3.6-2.7,6.7-5,8.6-10.2c5.6-15-6.3-32.3-20.6-37.8c-3.6-1.3-6.9-1-10.6-0.6c-2,0.2-4,0.4-6.1,0.4h-3
			c-7.6,0-17,0.1-23.9-1.3c-5.5-1.1-9.7-3.1-14.2-5.3c-3.5-1.8-7.1-3.3-10.8-4.5h-0.2h-0.1c-10.9,3.8-9.7,12.7-8.6,21.3
			c0.7,5.3,1.5,10.8-0.9,14.9c-1.6,2.8-5.1,5.1-8.7,7.6c-7,4.7-15,10.2-11.9,20.6l0,0c2.9,7.9,6.7,15.4,11.3,22.4
			c1.6,2.1,3.3,4.1,5.2,6c4.8,4.9,9.8,10,7.6,17.8c-1,3.4-3.4,6.2-5.8,9c-2,2.1-3.7,4.5-5.1,7c-4,8.2-5.8,22.6-4,32.8
			c0.2,1.1,0.6,2.2,1.1,3.3c0.4,1,0.8,2,1,3c0.4,2.5,0.7,5,0.8,7.5c0.2,3.2,0.3,6.2,1.4,9c1.3,3.1,2.9,6,4.8,8.7
			c1,1.6,2.1,3.3,3.1,5c0.7,1.2,1.2,2.5,1.8,3.8c1.4,3.2,2.8,6.5,5.9,8.8l0.1,0.1h0.1c6.4,0.1,11.7-2.3,16.8-4.6
			c6-2.7,11.7-5.3,18.6-3.4c6.1,1.7,10.6,7.4,14.9,12.9c1.7,2.2,3.5,4.4,5.4,6.4c1.4,1.4,2.9,2.7,4.4,3.9c3,2.5,5.8,4.9,6.9,7.7
			c3.8,9.3-3.8,26.4-10.4,33.7C321.6,396.4,319.3,398.5,316.9,400.5z"/>
		<path class="st0" d="M163.8,388.8c0.2,2.4,0.5,4.9,2.7,6.5l0.1,0.1h0.1c1,0.2,2,0.3,3,0.3c8.3,0,15.1-6.2,21.1-11.8
			c2-1.8,3.9-3.6,5.9-5.1l0.2-0.1v-0.2c0.8-11.8-8.4-24.5-18.3-25.2c-4.1-0.5-8.1,1.1-10.8,4.3c-5.6,6.4-6.4,19.1-4.5,28.4l0,0
			C163.6,387,163.8,387.9,163.8,388.8z M168.5,358.3c2.5-2.9,6.2-4.4,10-4c9.2,0.7,18.2,13,17.5,24c-1.9,1.5-3.8,3.2-5.8,5
			c-6.9,6.3-14.1,12.9-23.2,11.2c-1.8-1.4-2.1-3.6-2.3-5.8c-0.1-1-0.2-2-0.5-2.9C162.4,376.8,163.2,364.4,168.5,358.3z"/>
		<path class="st0" d="M80.6,227.8c0.7,1.9,1.4,3.9,2.1,5.9c2.3,6.8,4.8,13.8,9,19.5c1.5,1.8,3.1,3.5,4.9,5c1.9,1.7,3.6,3.4,5.3,5.3
			c2.3,2.9,4.3,6,6,9.2c1.9,3.5,4.1,6.8,6.5,9.9c6.3,7.3,13.2,14.2,20.5,20.6c1.5,1.3,3,2.7,4.5,4c6.7,6.1,12.9,11.9,19.8,14.7
			c2.8,1,5.7,1.7,8.7,2.1c2.2,0.4,4.5,0.9,6.5,1.4c2.3,0.6,4.7,1.4,7.3,2.2c6.3,2,13,4.2,18.4,4.2c4.2,0,7.5-1.3,9.3-4.9
			s-0.5-8.7-3.1-14.6c-0.8-1.7-1.5-3.5-2.2-5.3c-1.5-4-2.7-8.1-3.6-12.3c-1.7-6.7-3.2-13.1-8.4-19.7c-5-6.3-12.2-10.6-19.1-14.8
			c-9.5-5.7-18.5-11.1-21.2-21c-1-3.8-0.9-8.3-0.8-12.6c0.1-4.7,0.2-9.5-1.1-13.5c-3-8.9-9-14.4-16.7-15.2c-3.7-0.4-7,1.3-10.5,3.1
			c-2.7,1.5-5.6,2.6-8.6,3.3c-3.6,0.5-7-0.7-10.5-2c-5-1.8-10.2-3.7-16.1-0.1C81.2,206.1,79,214.4,80.6,227.8L80.6,227.8z M87.8,203
			c5.5-3.4,10.3-1.6,15.3,0.2c3.5,1.3,7.2,2.6,11,2c3.1-0.6,6.1-1.8,8.9-3.4c3.4-1.7,6.5-3.3,9.9-3c10.3,1.1,14.5,10.5,15.9,14.6
			c1.3,3.8,1.2,8.6,1,13.2c-0.1,4.4-0.2,8.9,0.8,12.8c2.8,10.3,11.9,15.8,21.6,21.6c6.9,4.1,14,8.4,18.9,14.6
			c5.1,6.4,6.5,12.4,8.2,19.3c0.9,4.2,2.2,8.4,3.7,12.4c0.7,1.8,1.5,3.6,2.3,5.3c2.4,5.4,4.7,10.6,3.1,13.8
			c-3.7,7.6-15.8,3.7-26.5,0.2c-2.6-0.8-5.1-1.6-7.3-2.2c-2.1-0.5-4.4-1-6.6-1.4c-2.9-0.4-5.7-1.1-8.5-2.1
			c-6.7-2.8-12.9-8.5-19.5-14.5c-1.5-1.4-3-2.7-4.5-4.1c-8.9-7.9-15.8-14.8-20.4-20.4c-2.4-3.1-4.5-6.4-6.4-9.8
			c-1.8-3.3-3.8-6.4-6.1-9.3c-1.7-1.9-3.5-3.7-5.4-5.4c-1.7-1.5-3.3-3.1-4.8-4.9c-4.2-5.6-6.5-12.5-8.9-19.2c-0.7-2-1.4-4-2.1-5.9
			C79.8,214.7,81.9,206.6,87.8,203L87.8,203z"/>
		<path class="st0" d="M109.7,253c4.7,5.3,7.4,11.1,9.9,16.7c2.3,5,4.4,9.7,7.9,14c3.1,3.5,6.5,6.7,10.3,9.5
			c1.8,1.4,3.6,2.9,5.5,4.5c2,1.8,4,3.8,5.8,5.9c2.4,2.8,5,5.3,7.8,7.5c6.1,4.2,13.3,6.6,20.8,6.8c4.6,0,8.8-1.3,11.4-4.5
			c7.4-9,1.1-28.2-8.9-36.9c-4-3.5-9.6-4.8-14.6-6c-2.7-0.5-5.4-1.3-7.9-2.4c-5.7-2.8-8.6-7.4-11.5-11.9c-2.4-3.8-4.6-7.3-8.3-9.3
			c-3.4-1.8-7.2-1.6-10.9-1.5c-3,0.1-5.8,0.2-8.3-0.6c-3.6-3.3-5.5-8.5-7.4-13.5c-3.1-8.4-6.3-17.1-17.4-17.2h-0.1h-0.1
			c-1.9,0.5-3.5,1.8-4.3,3.6v0.1c-2.3,11.8,7.8,22.1,15.8,30.4C106.8,249.9,108.3,251.5,109.7,253z M90.3,218c0.8-1.5,2.1-2.6,3.7-3
			c10.4,0.1,13.4,8.1,16.4,16.5c1.9,5.2,3.9,10.5,7.7,14l0.2,0.1c2.7,0.9,5.8,0.8,8.7,0.7c3.6-0.1,7.3-0.2,10.5,1.4
			c3.5,1.8,5.6,5.3,8,8.9c2.8,4.4,5.9,9.4,11.9,12.3c2.6,1.1,5.3,1.9,8.1,2.5c4.9,1.2,10.3,2.4,14.2,5.8c9.8,8.5,15.9,26.9,8.8,35.6
			c-6,7.4-22.9,3.6-30.9-2.5c-2.8-2.2-5.4-4.7-7.7-7.4c-1.8-2.1-3.8-4.1-5.9-6c-1.9-1.6-3.8-3.1-5.6-4.5c-3.7-3-7.2-5.7-10.2-9.4
			c-3.4-4.2-5.5-8.8-7.7-13.7c-2.5-5.7-5.2-11.5-10-16.9c-1.3-1.5-2.9-3.1-4.5-4.7C98,239.4,88.2,229.3,90.3,218z"/>
		<path class="st0" d="M163.5,305.2c1.9,1.1,4.1,1.7,6.3,1.8c2.9,0,5.7-1.4,7.3-3.8c3-4.1,2.8-8.8-0.4-13.1c-4.7-6.1-15.6-10.5-25-7
			l-0.2,0.1l-0.1,0.2C148.7,290.7,155.7,301.1,163.5,305.2z M152.1,283.9c9-3.3,19.3,0.9,23.7,6.8c3,4,3.1,8.2,0.4,11.9
			c-3.8,5.3-9.4,3.4-12.4,1.8C156.7,300.6,149.9,290.6,152.1,283.9z"/>
		<path class="st0" d="M82.4,127.4c4.6,4.9,11,7.6,17.7,7.7c4,0.1,7.9-1.2,11.1-3.7l0.1-0.1c3.6-6.3,3.4-16.1-0.5-22.8
			c-2.6-4.5-6.5-7-10.9-7l0,0c-5,0-14.2,6.3-17.9,13.7C79.7,119.8,79.8,123.9,82.4,127.4L82.4,127.4z M82.8,115.6
			c3.5-7,12.5-13.2,17.1-13.2l0,0c4.1,0,7.7,2.3,10.1,6.5c3.7,6.4,3.9,15.8,0.5,21.8c-8,6.4-21.1,3.2-27.5-4
			C80.2,122.9,81.3,118.6,82.8,115.6L82.8,115.6z"/>
		<path class="st0" d="M183.5,210.4l-0.2-0.2l-0.2,0.2c-1.9,1.5-3,3.8-3.2,6.3c-0.3,2.7,0.5,5.4,2.2,7.5l0.1,0.1
			c1.6,1.1,3.5,1.7,5.4,1.7s3.8-0.5,5.4-1.4c2.5-1.3,3.8-4,3.4-6.8l-0.1-0.2c-1.9-2.8-5.2-4.1-8.5-5.3
			C186.3,211.7,184.9,211.1,183.5,210.4z M195.4,218c0.3,2.3-0.8,4.6-2.9,5.7c-3.1,1.8-7.3,1.7-9.7-0.1c-1.5-1.9-2.3-4.4-2-6.8
			c0.1-2.1,1-4,2.5-5.4c1.3,0.7,2.7,1.2,4,1.7C190.5,214.3,193.7,215.5,195.4,218z"/>
		<path class="st0" d="M394.6,225.6c4,0.9,7.7,1.8,10.6,4.7c3.7,3.8,3.8,8.7,3.8,13.4c-0.1,2.6,0.2,5.2,0.7,7.8l0.1,0.2l0.2,0.1
			c5.6,2.7,13,4.2,20.8,5.9c4.7,0.9,9.5,1.9,14,3.2c1.9,0.6,3.7,1.3,5.4,2.1c4,1.7,8.2,3.5,11.9,3c2.6-0.4,5.6-2.5,8.8-4.9
			c2.5-2,5.2-3.7,8.1-5.2c3.1-1.3,6.3-2.1,9.6-2.5c2.6-0.4,5.1-1,7.5-1.9c3.8-1.6,7.2-4.9,10.8-8.4c1.5-1.4,3-2.9,4.6-4.3
			c1.5-1.3,3-2.4,4.6-3.5c1.9-1.3,3.7-2.7,5.3-4.4c5.4-6.5,6.5-13.9,3.6-23.2c0.6-3.3,1.5-6.6,2.6-9.8c1.3-3.7,2.3-7.4,2.8-11.3
			c0.3-2.6,0.3-5.3,0.1-7.9c-0.1-3.7-0.2-7.2,0.8-10.6c0.8-2.2,1.8-4.4,3-6.4c2.6-4.5,5.3-9.2,2.6-15.3l-0.1-0.1
			c-6.5-6.3-6.1-14-5.5-23.9c0.4-5.4,0.4-10.8,0-16.2c-0.8-7.7-3.8-17.4-6.6-25.9c-2.7-8.2-5.5-15.7-9.4-17.9
			c-1.7-1-3.6-1.5-5.6-1.6c-5.7,0-10.8,4.7-15.7,9.3c-5.6,5.2-11.4,10.6-18.4,9.8c-1.3-0.3-2.6-0.7-4-1.1c-8.9-2.5-20-5.7-35.1-4.4
			c-17.1,1.4-21.2,5.5-22.3,21.9c-0.5,7.7-0.4,12.9,0.4,16.2c1.1,4,2.6,7.9,4.3,11.6c4,9.6,8.5,20.4,5.4,26.9
			c-1.5,3.2-4.5,4.9-7.4,6.6c-1.5,0.8-3,1.7-4.3,2.8c-3.4,3-6.6,6.2-9.7,9.5c-3.3,3.5-6.8,7.1-10.4,10.4c-5.8,5.3-15.6,14.3-16.5,21
			s4,16.3,7.7,19.7C386.9,223.8,390.8,224.7,394.6,225.6z M377,201.4c0.9-6.4,10.8-15.6,16.2-20.5c3.6-3.4,7.1-7,10.5-10.5
			c3-3.3,6.2-6.5,9.6-9.5c1.3-1,2.7-1.9,4.2-2.7c3-1.7,6.2-3.5,7.8-7c3.3-6.9-1.3-17.9-5.4-27.6c-1.7-3.7-3.1-7.6-4.3-11.5
			c-0.8-3.2-0.9-8.5-0.4-15.9c1-15.9,4.8-19.6,21.4-21c14.9-1.2,25.9,1.9,34.7,4.4c1.4,0.4,2.8,0.8,4.1,1.2
			c7.4,0.8,13.4-4.7,19.2-10.1c6.5-6.1,12.6-11.8,20.2-7.6c4,2.2,7,11.3,9,17.4c2.8,8.4,5.8,18,6.6,25.7c0.5,5.4,0.5,10.7,0,16.1
			c-0.6,9.6-1.1,17.9,5.7,24.5c2.4,5.7-0.1,9.9-2.7,14.4c-1.3,2.1-2.3,4.3-3.1,6.6c-1,3.6-0.9,7.3-0.8,10.9c0.2,2.6,0.1,5.2-0.2,7.8
			c-0.6,3.8-1.5,7.5-2.8,11.1c-1.1,3.3-2,6.6-2.6,10v0.1v0.1c2.9,9.2,1.8,16.2-3.4,22.5c-1.5,1.6-3.2,3-5.1,4.2
			c-1.6,1.1-3.2,2.3-4.7,3.6c-1.6,1.4-3.1,2.9-4.6,4.3c-3.6,3.5-6.9,6.7-10.5,8.3c-2.4,0.9-4.8,1.5-7.3,1.8
			c-3.4,0.4-6.6,1.3-9.8,2.6c-2.9,1.5-5.7,3.2-8.2,5.3c-3.1,2.3-6,4.4-8.3,4.7c-3.4,0.5-7.5-1.3-11.4-3c-1.8-0.8-3.7-1.5-5.6-2.1
			c-4.5-1.3-9.4-2.3-14.1-3.2c-7.7-1.6-15-3-20.4-5.7c-0.5-2.4-0.7-4.9-0.6-7.3c-0.1-4.9-0.1-10-4.1-14.1c-3-3.1-7.1-4-11-4.9
			c-3.7-0.9-7.5-1.7-10.4-4.4C380.9,217,376.2,207.8,377,201.4z"/>
		<path class="st0" d="M79.6,136.9c8,4.5,19.8,6.9,28.5,6.9c4.3,0,7.9-0.6,9.9-1.8c2.9-1.7,5.3-6.5,6.8-13.4c2.5-11.3,2.4-27.5-2-34
			c-3.2-4.7-7.4-7.6-12.2-8.3c-5.7-0.9-12,1.1-18.2,5.8c-10.2,7.8-22.2,20.1-20.9,34.6C71.6,130.4,74.4,133.9,79.6,136.9z M93,92.8
			c5-3.9,10.1-5.9,14.9-5.9c0.9,0,1.7,0.1,2.6,0.2c4.6,0.8,8.5,3.4,11.5,7.9c4.2,6.1,4.3,22.1,1.9,33.2c-1.5,6.7-3.8,11.3-6.4,12.9
			c-5.7,3.4-26,1.4-37.5-5.1c-3.5-1.9-7.6-5.2-7.6-9.5l0,0C71.2,112.5,83,100.5,93,92.8z"/>
		<path class="st0" d="M82,149.5c1.8,0.3,3.7,0.4,5.6,0.3c2.2-0.1,4.4-0.1,6.6,0.1c1.7,0.1,3.7,0.4,5.8,0.7c3.7,0.7,7.5,1,11.2,1.1
			c2.5,0,4.9-0.3,7.3-0.9c8.7-2.5,18.2-9.8,18.6-19.7c-0.1-2.3-0.5-4.5-1.2-6.7s-1.1-4.4-1.4-6.7c-0.4-3.2-0.4-6.5-0.4-9.7
			c-0.1-5.8-0.1-11.3-1.9-16.2c-2.8-7.7-10.1-15.7-17.4-19c-3.9-1.8-7.6-2.1-10.8-1c-2.6,1-5.1,3.5-7.8,6.2
			c-1.1,1.1-2.2,2.2-3.4,3.3c-16.8,15.5-30.9,30-31.6,50.8v0.1C62.8,140.3,74.5,147.6,82,149.5z M93.5,82.1c1.2-1,2.3-2.2,3.4-3.3
			c2.6-2.6,5-5.1,7.4-6c2.9-1.1,6.4-0.8,10.1,0.9c7,3.2,14.1,11,16.9,18.5c1.7,4.7,1.8,10.1,1.8,15.9c0,3.3,0.1,6.5,0.4,9.8
			c0.3,2.3,0.8,4.6,1.5,6.8c0.7,2.1,1.1,4.3,1.2,6.4c-0.3,9-9.2,16.3-17.9,18.8c-5.7,1.6-12.3,0.7-18.2-0.2
			c-2.1-0.3-4.1-0.6-5.9-0.7c-1.4-0.1-2.7-0.2-4-0.2c-1,0-1.9,0-2.7,0c-1.8,0.1-3.5,0.1-5.3-0.2c-6.4-1.7-18.5-8.5-20-16.4
			C63,111.8,76.9,97.4,93.5,82.1L93.5,82.1z"/>
		<path class="st0" d="M594.5,260.1c5.8,0.2,11.6-2.8,17.7-5.9c4.9-2.5,9.9-5.2,15.1-6.1c2.7-0.4,5.4-0.5,8.1-0.4
			c4.7,0,9.6,0,12.4-1.6c3.8-2,6.6-5.6,7.6-9.7c1.1-4.9,0.1-10-2.7-14.1c-2.9-4.3-13.3-12.4-20.1-17.7c-1.1-0.9-2.1-1.6-3-2.3
			c-4.4-3.5-9-6.7-14-9.4l0,0c-6.3-2.9-12.2-4.3-17.6-4.1h-0.1c-7.3,2.5-10.7,8.1-14.6,14.7c-1.8,3.1-3.7,6.1-5.9,9
			c-2,2.6-5.3,5.2-8.5,7.7c-3.6,2.8-7.2,5.6-9.4,8.7c-0.9,1.2-1.6,2.6-1.9,4.1c-0.6,3.7,0.6,7.4,3.5,11.1
			C568.2,252.6,584.6,259.6,594.5,260.1z M558.6,233c0.8-4.4,5.9-8.4,10.9-12.2c3.3-2.5,6.6-5.2,8.7-7.8c0.4-0.5,0.8-1.1,1.2-1.6
			c1.8-2.5,3.3-5,4.7-7.5c3.8-6.4,7.1-11.9,14-14.3c5.2-0.1,11,1.2,17.1,4c4.9,2.7,9.5,5.8,13.8,9.3c0.8,0.7,1.9,1.5,3,2.3
			c6.4,5,17.1,13.3,19.9,17.5c2.7,3.9,3.6,8.8,2.5,13.4c-0.9,3.9-3.5,7.3-7.1,9.1c-2.6,1.4-7.3,1.4-11.9,1.5
			c-2.8-0.1-5.6,0.1-8.3,0.4c-5.3,1-10.4,3.6-15.4,6.2c-6,3.1-11.7,6.1-17.2,5.8c-9.7-0.4-25.8-7.3-32.6-15.8
			C559.1,239.8,558,236.4,558.6,233L558.6,233z"/>
		<path class="st0" d="M562.6,265.2l0.1,0.1l0.1,0.1c2.7,1.7,6.3,1.6,10,1.5c1.8,0,3.6-0.1,5.5,0c2.3,0.2,4.6,0.6,6.8,1.1
			c2.7,0.7,5.5,1,8.3,1.1c5.4-0.1,11.2-3.1,17.3-6.3c6.9-3.5,14.1-7.2,21.7-7.6c2.6-0.2,4.9-0.1,7.2-0.1c8,0.1,13.9,0.1,20.9-8.1
			c6.1-7.1,8.6-12.9,7.9-18.3c-1-8.2-9.6-14.3-20.4-22.2c-3.8-2.7-7.7-5.6-11.8-8.8c-2.4-1.9-4.5-3.8-6.5-5.6c-3.4-3.1-6.5-6-10.2-8
			l-0.1-0.1c-2.4-0.6-4.8-1.4-7.1-2.5c-5.2-2.2-11.1-4.7-16.1-3.3c-6.9,1.9-11.5,10.2-16.4,18.9c-3.4,6.1-6.9,12.4-11.3,16.7
			c-1.6,1.4-3.3,2.6-5.1,3.6c-4.1,2.6-9.3,5.8-12.6,10.4c-1.4,1.9-2.4,4.1-2.9,6.5c-1.7,8.2,4,15.6,9,22.2
			C559.3,259.6,561.6,262.6,562.6,265.2z M548.9,234.5c1.7-7.9,9.4-12.8,15-16.3c1.9-1.1,3.6-2.3,5.2-3.7c1.7-1.6,3.2-3.4,4.5-5.3
			c2.6-3.8,4.9-7.6,7-11.7c4.8-8.6,9.2-16.7,15.8-18.5c4.7-1.3,10.5,1.2,15.5,3.3c2.3,1.1,4.7,1.9,7.2,2.6c3.6,2,6.7,4.8,10,7.8
			c2,1.9,4.2,3.8,6.5,5.6c4.1,3.3,8,6.1,11.9,8.8c10.6,7.7,19.1,13.8,20,21.5c0.6,5-1.8,10.6-7.7,17.5c-6.7,7.9-12.3,7.8-20.2,7.8
			c-2.3,0-4.6,0-7.3,0.1c-7.9,0.5-15.1,4.2-22.1,7.7c-6.1,3.1-11.8,6-17,6.2c-2.7-0.1-5.4-0.4-8.1-1.1c-2.3-0.5-4.6-0.9-6.9-1.1
			c-1.9-0.1-3.8-0.1-5.6,0c-3.7,0.1-6.9,0.2-9.4-1.3c-1.2-2.7-3.4-5.6-5.8-8.7C552.8,249.6,547.2,242.3,548.9,234.5z"/>
		<path class="st0" d="M577.9,244.9c7.6,4.5,18.8,6.8,25,5.2c9.3-2.4,25.5-9.9,28.6-15.5c4.9-8.6-1.8-15.6-7.7-21.7l-1.1-1.2
			c-0.8-0.9-1.7-1.8-2.5-2.8c-3.4-3.9-7.2-8.3-13.8-11.2c-9.2-4.9-15.7,4.5-23.3,15.4c-2,2.9-4.1,5.8-6.3,8.7
			c-0.7,0.9-1.5,1.8-2.2,2.7c-1,1.2-1.9,2.3-2.8,3.5c-1.8,2.5-2.9,5-2.2,7.8C570.5,239,573.4,242.2,577.9,244.9z M575.4,224.9
			c0.7-0.9,1.5-1.8,2.2-2.7c1.2-1.6,2.4-3.2,3.6-4.9c0.9-1.3,1.8-2.6,2.7-3.8c7.3-10.5,13.7-19.6,22.1-15.1l0,0
			c6.4,2.9,10.2,7.2,13.5,11c0.9,1,1.7,1.9,2.5,2.8l1.1,1.2c6,6.2,12.2,12.6,7.6,20.6c-3,5.2-18.8,12.6-28.1,15.1
			c-6,1.6-17-0.7-24.3-5.1c-4.3-2.6-7-5.6-7.8-8.7C569.7,231.7,572.3,228.5,575.4,224.9z"/>
		<path class="st0" d="M592.7,241c7.9,1.4,18.2-2.2,20.8-10.6c2.7-8.6-4-20.8-13-23.8h-0.2c-4.5,0.6-10,5-13.7,10.3
			c-2.6,3.6-4.4,7.7-4.6,11.1C581.7,234.9,585.7,239.7,592.7,241z M582.9,228.1c0.4-7.9,10.3-19.6,17.4-20.6
			c8.6,2.9,14.9,14.5,12.3,22.6c-2.5,7.9-12.2,11.3-19.8,9.9C586.3,238.9,582.6,234.4,582.9,228.1L582.9,228.1z"/>
		<path class="st0" d="M426.8,205.8c2.1,2.3,3.9,4.9,5.4,7.6c1.4,2.9,2.5,5.8,3.4,8.9c1.3,4.2,2.5,8.1,5.4,11.3l0.1,0.1
			c9.9,5.3,28.8,10,37.4-0.1c1.4-1.7,2.3-4.9,3.4-8.7c1.2-4.5,2.6-9.5,5.3-12.5c2.1-2.3,4.7-4.1,7.6-5.3c1.5-0.7,2.9-1.5,4.2-2.4
			c6.6-5.1,15.9-17.6,12.6-29.2c-2.5-8.9-8.7-13.1-16.5-18.4c-2.5-1.7-5.1-3.5-7.8-5.5c15.2-8.8,37.6-22.1,30.7-45.8v-0.1
			c-0.5-1-1-2.1-1.4-3.3c-1.8-4.3-3.8-8.8-8.6-10.3h-0.1h-0.1c-8.7,1.8-13,4.1-17.3,9.1c-2.6,3-3.5,6.8-4.3,10.4
			c-0.7,3.1-1.4,6.3-3.3,9.1c-2.8,4.3-8.5,7.5-12.8,9.1c-2,0.6-4,1-6.1,1c-3.1,0.2-6.2,0.3-9.4,2.3c-4.5,2.7-6.1,8.1-7.6,13.3
			c-0.6,2.3-1.5,4.6-2.4,6.8c-3,5.9-8.2,9.6-12.7,12.7c-3.7,2.5-7.1,5-9.1,8.2c-4.3,7.3-4,16.9-1.7,22.8
			C422,200.1,424.3,202.9,426.8,205.8z M423.4,174.6c1.9-3.1,5.2-5.4,8.8-7.9c4.6-3.3,9.9-7,13-13.1c1-2.2,1.9-4.6,2.5-6.9
			c1.5-5,3.1-10.2,7.2-12.7c3-1.8,6-2,9-2.1c2.2,0,4.3-0.3,6.4-1c4.5-1.6,10.3-5,13.3-9.5c1.9-2.9,2.7-6.2,3.4-9.4
			c0.9-3.7,1.7-7.2,4.1-10c4.1-4.8,8.3-7,16.7-8.8c4.3,1.5,6.1,5.7,7.9,9.8c0.5,1.1,0.9,2.3,1.5,3.3c6.7,23.3-15.9,36.4-30.9,45
			l-0.6,0.4l0.5,0.4c2.9,2.3,5.7,4.2,8.4,6c7.6,5.2,13.7,9.3,16.1,17.9c3.2,11.2-5.9,23.3-12.3,28.3c-1.2,0.9-2.6,1.7-4,2.3
			c-3,1.3-5.7,3.2-7.9,5.5c-2.7,3.1-4.2,8.3-5.5,12.8c-1,3.5-1.9,6.8-3.2,8.3c-8.2,9.6-26.5,5.1-36.1-0.1c-2.7-3-3.9-6.8-5.2-10.9
			c-0.9-3.1-2-6.2-3.5-9.1c-1.6-2.8-3.4-5.3-5.6-7.7c-2.4-2.9-4.6-5.6-5.8-8.7C419.5,190.7,419.3,181.3,423.4,174.6z"/>
		<path class="st0" d="M411.1,208.5c3,2.9,6.5,6.1,9,11.4c1.5,3.3,2.7,6.7,3.7,10.1c2.1,7.1,4,13.2,11.5,17c2.5,1.3,5.8,1.6,9.4,2
			c1.6,0.2,3.3,0.4,4.9,0.7c1.8,0.3,3.5,0.7,5.2,1.1c3.4,0.8,6.7,1.6,9.6,1.3c2.4-0.2,5.5-1.5,8.8-2.9c2.2-0.9,4.5-1.9,6.7-2.6
			c1.7-0.5,3.4-0.9,5-1.3c6.2-1.5,12-2.8,15.2-10.8c1.2-3.1,1-5.8,0.7-8.6c-0.4-2.9-0.3-5.9,0.5-8.8c2.5-4.8,6.1-9,9.6-13
			c5.7-6.6,11-12.8,12.1-21.2c0.6-5-0.7-9.4-2.1-14.1c-1.3-4.4-2.8-8.9-2.4-14.1c6.9-16.8,6.9-35.8,6.1-50.6V104l-0.1-0.1
			c-1.5-2.5-2.3-6.7-3.1-11.2c-1.6-8.6-3.4-18.4-11-20.7c-0.7-0.2-1.5-0.3-2.2-0.3c-4.7,0-9.4,4.4-14.3,9
			c-5.4,5.1-11.1,10.4-17.3,10.5c-3.3,0-5.8-1.4-8.7-3.2c-2.9-1.9-6-3.3-9.2-4.3c-8-2.3-23.2-1.3-29.6,5.6c-4.7,5.1-5.8,14.8-2.2,20
			c1.7,2.5,4.1,3.6,6.6,4.8c2.7,1.1,5.2,2.7,7.3,4.6c1.8,3.7,0.5,7.6-0.9,11.9c-0.4,1.4-0.9,2.9-1.3,4.4c-0.5,2.5-0.9,5-1.2,7.6
			c-0.5,4.9-1,9.2-4.1,13.3c-1.5,1.9-4.1,3.5-6.9,5.3c-3.1,1.8-5.9,3.9-8.5,6.3c-5,5.2-13,19.6-13.8,26.2
			C403,200.9,406.7,204.4,411.1,208.5z M404.9,193.6c0.8-6.5,8.6-20.7,13.5-25.7c2.5-2.4,5.3-4.5,8.3-6.2c2.8-1.8,5.5-3.4,7.1-5.5
			c3.3-4.2,3.8-8.8,4.3-13.7c0.2-2.5,0.6-5,1.2-7.5c0.3-1.4,0.8-2.9,1.3-4.3c1.4-4.3,2.7-8.6,0.8-12.7l-0.1-0.1
			c-2.2-2.1-4.8-3.7-7.6-4.9c-2.5-1.2-4.6-2.1-6.2-4.4c-3.3-4.8-2.2-14.1,2.1-18.9c6.2-6.7,20.9-7.6,28.7-5.3c3.2,1,6.2,2.4,9,4.2
			c3,1.8,5.7,3.4,9.3,3.4c6.6-0.1,12.3-5.5,17.9-10.7c5.5-5.1,10.7-10,15.6-8.5c7.1,2.2,8.8,11.7,10.4,20c0.8,4.5,1.6,8.8,3.2,11.5
			c0.8,14.6,0.8,33.5-6,50.1v0.2c-0.4,5.4,1.1,10.1,2.4,14.5c1.4,4.6,2.7,8.9,2.1,13.7c-1,8.1-6.3,14.2-11.9,20.7
			c-3.5,4.1-7.2,8.3-9.8,13.3c-0.8,3-1,6.1-0.5,9.2c0.3,2.7,0.5,5.3-0.6,8.2c-3,7.5-8.4,8.8-14.5,10.3c-1.7,0.4-3.4,0.8-5.1,1.3
			c-2.3,0.7-4.6,1.7-6.8,2.6c-3.3,1.4-6.3,2.6-8.6,2.8c-2.7,0.3-5.9-0.5-9.2-1.3c-1.7-0.4-3.4-0.8-5.3-1.1c-1.7-0.3-3.4-0.5-5-0.7
			c-3.4-0.4-6.7-0.7-9-1.9c-7.1-3.6-8.9-9.6-11-16.5c-1-3.5-2.2-6.9-3.7-10.2c-2.6-5.4-6.1-8.7-9.3-11.7
			C407.4,203.7,404,200.5,404.9,193.6L404.9,193.6z"/>
		<path class="st0" d="M463.5,228.2c7.8-2.8,11-10.9,14.2-18.8c1.9-4.8,3.9-9.7,6.8-13.5c3.8-1.8,8.2-5.3,9.4-9.9
			c0.8-2.8,0.2-5.8-1.6-8.2c-2.5-5.4-7.9-6.2-13.6-7.1c-1.4-0.2-2.9-0.4-4.3-0.7c-1.6-0.3-3.2-0.8-4.9-1.3c-2.8-1-5.8-1.6-8.8-1.8
			c-1.6,0-3.2,0.4-4.6,1.2l-0.2,0.1v0.2c-0.4,3,0,6,1.1,8.8c0.8,1.8,1.1,3.8,1,5.7c-0.6,5.1-4.1,8.3-7.4,11.4
			c-2.5,2.3-5,4.6-6.4,7.6c-3.1,7.5-1.7,16.2,3.7,22.3C451.7,228.8,458,230.4,463.5,228.2z M444.9,202.5c1.3-2.9,3.7-5,6.1-7.3
			c3.5-3.2,7.1-6.5,7.7-12c0.2-2.1-0.2-4.2-1-6.1c-1-2.6-1.4-5.4-1.1-8.1c3.4-1.9,8-0.5,12.5,0.8c1.7,0.5,3.4,1,5,1.3
			c1.5,0.3,3,0.5,4.4,0.7c5.7,0.9,10.6,1.6,12.9,6.6l0.1,0.1c1.6,2.1,2.2,4.9,1.5,7.4c-1.1,4.3-5.4,7.6-9,9.4h-0.1l-0.1,0.1
			c-3.1,3.9-5.1,8.9-7,13.8c-3.2,8-6.2,15.6-13.6,18.3c-1.6,0.6-3.3,0.9-5,0.9c-3.7,0-7.3-1.7-9.7-4.5
			C443.3,217.9,441.9,209.6,444.9,202.5z"/>
		<path class="st0" d="M553.7,277.1c2.9,2.8,10,5.7,15.2,5.4c2.1-0.2,4.2-0.8,6-1.8c1.9-0.9,4-1.6,6.1-2.2c2.2-0.4,4.4-0.7,6.7-0.8
			c2.4-0.1,4.7-0.4,7.1-0.8c6.9-1.3,13.2-4.4,19.3-7.4c7-3.4,13.6-6.6,20.9-7.4c2.5-0.2,5-0.3,7.5-0.2c4.9,0,9.2,0,14.2-2.7
			c2.3-1.2,4.6-3.4,7-5.7c2-2.1,4.2-3.9,6.6-5.6c3.2-2,6.6-3.7,10.2-5c6.3-2.6,12.3-5.1,14.1-10.7c1.7-5-0.7-12-7.5-14.7H687
			c-9.1-0.6-12.6-3.3-21.9-10.4l-1.6-1.2c-3.7-2.7-7.6-5.1-11.7-7.2c-4.2-2.2-8.2-4.7-12.1-7.4c-2.4-1.9-4.6-4.1-6.6-6.4
			c-1.7-2-3.6-3.9-5.5-5.6c-8.4-7.3-21.6-14.5-29.5-13.2c-10.3,1.6-18,16.6-24.1,28.6c-1.6,3.1-3.1,6.1-4.5,8.5
			c-3.8,6.6-9.5,11.1-14.9,15.5c-4.1,3.3-8,6.4-10.8,10.3c-3,4.1-4.3,9.3-3.6,14.4C541,249.1,549.4,272.9,553.7,277.1z M555.2,219.2
			c4.7-3.8,9.5-7.6,13.3-12.9c0.6-0.9,1.3-1.9,1.8-2.8c1.4-2.5,2.9-5.4,4.5-8.5c6.1-11.8,13.6-26.6,23.4-28.1
			c7.4-1.2,20.4,5.7,28.7,13c1.9,1.7,3.8,3.6,5.5,5.6c2,2.4,4.3,4.5,6.7,6.5c3.9,2.8,8,5.3,12.2,7.5c4,2.1,7.9,4.5,11.6,7.2l1.6,1.2
			c9.1,7.1,12.9,10,22.3,10.6c6,2.4,8.4,8.9,6.9,13.5c-1.8,5.2-7.5,7.7-13.6,10.2c-3.6,1.4-7.1,3.1-10.3,5.1
			c-2.4,1.7-4.6,3.6-6.7,5.7c-2.4,2.3-4.6,4.4-6.8,5.6c-4.9,2.6-9,2.6-13.8,2.5c-2.5-0.1-5.1,0-7.6,0.2c-7.4,0.8-14.4,4.2-21.2,7.5
			c-6.1,3-12.3,6-19.1,7.3c-2.3,0.4-4.6,0.7-7,0.8c-2.3,0.1-4.6,0.4-6.8,0.9c-2.1,0.5-4.2,1.3-6.2,2.2c-1.8,0.9-3.7,1.5-5.7,1.7
			c-4.9,0.3-11.8-2.5-14.5-5.2c-4.2-4.1-12.5-27.8-13.2-33.4C539.8,231.5,547,225.8,555.2,219.2z"/>
		<path class="st0" d="M15.5,396c7.7-0.5,16.3-4.2,25.6-10.9c2.7-2.1,5.2-4.5,7.5-7.1c5.6-6,12-12.8,22.8-14.6
			c5.3-0.8,9-1.6,13.4-4.4l0.1-0.1l0.1-0.1c3.5-5.8,3.3-9.7,2.5-14.5c-1.9-12.6-9-14.5-18.9-17.2c-2.1-0.6-4.2-1.1-6.4-1.8
			c-1.4-0.5-2.8-1-4.2-1.5c-2.3-0.9-4.6-1.7-7-2.3c-4.9-1-9.5-0.8-14-0.6c-3.4,0.3-6.9,0.2-10.2-0.3c-5.1-0.9-9.9-3.1-14.5-5.2
			c-3.9-1.9-7.9-3.5-12.1-4.6v1c4,1.1,8,2.6,11.7,4.5c4.7,2.1,9.5,4.3,14.7,5.3c3.5,0.5,7,0.6,10.5,0.3c4.4-0.2,8.9-0.4,13.7,0.6
			c2.3,0.6,4.6,1.3,6.9,2.2c1.4,0.5,2.8,1,4.3,1.5c2.3,0.7,4.4,1.3,6.5,1.9c9.6,2.6,16.5,4.4,18.3,16.4c0.7,4.8,0.9,8.3-2.3,13.8
			c-4.2,2.6-7.9,3.4-13,4.2c-11.1,1.8-17.6,8.7-23.3,14.8c-2.2,2.6-4.7,4.9-7.4,7c-9,6.5-17.7,10.2-25.1,10.7
			c-4.7,0.3-10.1-2-15.4-4.5v1C5.3,394.2,10.7,396.4,15.5,396z"/>
		<path class="st0" d="M6.3,243.2l0.1-0.2l-0.1-0.1C4.8,238,2.7,234.7,0,233v1.2c2.2,1.7,4,4.6,5.3,8.9c-1.2,2.4-3,4.5-5.3,5.9v1.1
			C2.7,248.4,4.9,246.1,6.3,243.2z"/>
		<path class="st0" d="M14.4,205c0.8,0.7,1.6,1.5,2.3,2.3c2.7,3,6,6.8,11.3,3.7c5.6-3.3,3.3-8.9,0.9-14.8c-0.5-1.3-1-2.7-1.5-4
			c-0.5-1.5-0.9-3-1.3-4.4c-0.3-1.5-0.8-2.9-1.3-4.3c-3.4-7.8-14.4-28.4-24.1-30.3c-0.2,0-0.4-0.1-0.6-0.1v0.9c0.1,0,0.3,0,0.4,0
			c9.3,1.8,20.3,22.6,23.5,29.7c0.5,1.4,1,2.7,1.3,4.2c0.4,1.4,0.8,2.9,1.3,4.4c0.5,1.4,1,2.7,1.6,4.1c2.4,6,4.3,10.8-0.5,13.7
			c-4.6,2.7-7.4-0.5-10.1-3.5c-0.7-0.9-1.5-1.7-2.4-2.5c-3.9-3.2-7.5-5.2-11-6c-1.3-0.3-2.6-0.5-4-0.5v0.9c1.3,0,2.5,0.1,3.8,0.4
			C7.1,199.9,10.6,201.9,14.4,205z"/>
		<path class="st0" d="M16.1,371.6c4.1-1,15.7-6.4,19.8-13.7c1.4-2.3,1.7-5,1-7.6c-2.8-8.4-20-16.9-29.8-18.2
			c-2.4-0.4-4.8-0.3-7.1,0.2v1c1.3-0.3,2.6-0.5,3.9-0.5c1,0,2.1,0.1,3.1,0.2c9.6,1.3,26.3,9.5,29,17.6c0.7,2.3,0.4,4.8-0.9,6.8
			c-3.7,6.6-14.5,12.1-19.2,13.3c-5.4,1.3-11.1,0.5-15.9-2.3v1.1c3.3,1.8,7,2.8,10.7,2.8C12.5,372.2,14.3,372,16.1,371.6z"/>
		<path class="st0" d="M3.7,186.6c2.2,0,4.3-0.9,5.8-2.6l0.1-0.2c1.3-3.9,0.8-8.1-1.3-11.6c-1.8-3.3-4.7-5.7-8.3-6.7v1
			c3.2,1,5.9,3.2,7.5,6.2c1.9,3.2,2.4,7.2,1.2,10.8c-2,2.1-5,2.8-7.7,1.8c-0.3-0.1-0.7-0.3-1-0.4v1c0.2,0.1,0.5,0.2,0.7,0.3
			C1.7,186.4,2.7,186.6,3.7,186.6z"/>
		<path class="st0" d="M13.2,347.7h-2.8l-0.1,0.4c0,0.4-0.1,0.5-0.1,0.5c-0.1,0-0.2,0-0.2,0l-0.6-0.1v2.9h0.4c0.4,0,0.5,0.1,0.5,0.1
			c0,0.1,0,0.2,0,0.3l-0.1,0.6H13V352c0-0.4,0.1-0.5,0.1-0.5s0.1,0,0.3,0l0.6,0.1v-2.8l-0.4-0.1c-0.4,0-0.5-0.1-0.5-0.1s0-0.1,0-0.2
			L13.2,347.7z M13.1,349.5v1c-0.2,0-0.3,0.1-0.4,0.2c-0.2,0.2-0.4,0.5-0.4,0.8h-1c0-0.2-0.1-0.3-0.2-0.5c-0.2-0.2-0.5-0.4-0.8-0.4
			v-1c0.2,0,0.3-0.1,0.4-0.2c0.2-0.2,0.4-0.5,0.4-0.8h1c0,0.2,0.1,0.3,0.2,0.4C12.5,349.4,12.8,349.5,13.1,349.5L13.1,349.5z"/>
		<path class="st0" d="M6.1,441.4c2.2-1.6,4.3-2.9,6.6-4.3c3.1-2,6.3-4,10.2-6.8c13-9.5,36.7-12.5,57.5-7.2c2.1,0.5,5.8,0.4,9.4,0.3
			c2.3-0.1,4.7-0.2,6.5-0.1c11.4,0.6,25,10.1,30.3,21.1c2.6,5.4,4.3,13.8-2,22.4c-4.1,5.5-7.7,12.2-12,19.9
			c-0.3,0.5-0.6,1.1-0.9,1.6h1.1c0.2-0.4,0.4-0.8,0.7-1.2c4.2-7.7,7.9-14.3,11.9-19.8c6.6-9,4.8-17.7,2.1-23.4
			c-5.4-11.3-19.3-21-31.1-21.7c-1.9-0.1-4.2,0-6.6,0.1c-3.6,0.1-7.2,0.2-9.2-0.3c-21.1-5.3-45.1-2.3-58.3,7.4
			c-3.8,2.8-7.1,4.9-10.2,6.8c-2.2,1.4-4.3,2.8-6.6,4.3c-2,1.4-3.9,3-5.6,4.8v1.3C1.8,444.8,3.9,443,6.1,441.4z"/>
		<path class="st0" d="M6.1,413.9c5.5-1,10.9-3.4,16.7-5.8c3.7-1.6,7.5-3.2,11.3-4.5c9-3,16-8.2,22.9-13.3
			c7.3-5.4,14.8-11,24.6-13.7c1.6-0.4,3.1-0.8,4.6-1.2c14.2-3.6,25.4-6.4,22-28.3c-2.3-15-6.4-24.9-12.1-29.4
			c-3-2.4-9.1-4.3-12.5-5.3c-2.5-0.7-5.3-1.6-8-2.4c-5.7-1.7-11.5-3.5-15.3-4.1c-4.3-0.6-9.2,0.1-14.4,0.8c-6.9,1-14.1,2-20.9,0.1
			C17.8,305,7.7,300,0,294.5v1.1c7.7,5.4,17.6,10.2,24.6,12.2c7,1.9,14.3,0.9,21.3-0.1c5.1-0.8,10-1.4,14.1-0.8
			c3.7,0.6,9.6,2.4,15.2,4.1c2.7,0.8,5.5,1.7,8,2.4c3.3,0.9,9.3,2.8,12.2,5.1c5.5,4.4,9.5,14.1,11.8,28.9c3.2,21-7.1,23.6-21.3,27.2
			c-1.5,0.4-3,0.8-4.6,1.2c-10,2.7-17.6,8.4-24.9,13.9c-6.7,5-13.7,10.2-22.6,13.1c-3.9,1.3-7.7,2.9-11.4,4.5
			c-5.7,2.4-11,4.7-16.4,5.7c-1.4,0.2-2.8,0.4-4.2,0.4c-0.6,0-1.1,0.1-1.7,0.1v0.9c0.6-0.1,1.2-0.1,1.7-0.1
			C3.2,414.3,4.7,414.2,6.1,413.9z"/>
		<path class="st0" d="M47.3,245.1c5.1-0.2,9.7-3,12.2-7.4c6-9.8,5.7-28.9-2.9-34.9l-0.1-0.1h-0.1c-5.1-0.8-9.1,3.4-12.6,7l-0.5,0.6
			c-6.5,6.7-15.3,15.9-14.4,24.4v0.1l0.1,0.1c4.6,6.3,11.3,10.2,17.7,10.2C46.9,245.1,47.1,245.1,47.3,245.1z M29.8,234.5
			c-0.8-8,7.8-17,14.1-23.6l0.5-0.5c3.5-3.6,7.1-7.4,11.6-6.8c8,5.7,8.2,24.3,2.6,33.6c-2.3,4.2-6.7,6.8-11.4,7
			C41,244.4,34.3,240.7,29.8,234.5L29.8,234.5z"/>
		<path class="st0" d="M11.8,404.4c8.6-1,25.7-8.1,32.1-12.8c3.1-2.3,6-4.9,8.8-7.6c2.1-1.9,4-3.8,6.1-5.4c5.8-4.6,9-6,18.2-7.7
			c1.5-0.3,2.4-0.4,3.3-0.5c0.8-0.1,1.4-0.2,2.3-0.4c17.8-3.8,17.2-20.5,16-27.5c-2-12.9-8.2-19.6-19.9-21.9
			c-5.2-1-9.9-2.3-14.4-3.6c-7.9-2.2-14.7-4.2-22-3.7c-2,0.1-3.8,0.4-5.6,0.7c-4,0.6-7.8,1.1-11.9,0.1c-3.6-0.9-8.1-3.1-12.8-5.4
			c-3.9-2-7.9-3.8-12-5.4v1c3.8,1.4,7.8,3.4,11.6,5.2c4.7,2.3,9.3,4.5,13,5.4c4.3,1.1,8.2,0.5,12.3-0.1c1.8-0.3,3.6-0.5,5.6-0.6
			c7.2-0.5,13.9,1.4,21.8,3.6c4.5,1.3,9.2,2.6,14.4,3.6c11.2,2.1,17.1,8.7,19.1,21.1c1.1,6.7,1.7,22.8-15.3,26.4
			c-0.8,0.2-1.5,0.3-2.3,0.4s-1.8,0.3-3.3,0.6c-9.2,1.7-12.7,3.2-18.6,7.9c-2.1,1.7-4.1,3.5-6.1,5.5c-2.7,2.7-5.6,5.2-8.7,7.5
			c-6.3,4.6-23.1,11.6-31.7,12.6c-3.9,0.4-7.7-0.5-11.6-1.9v1C3.7,404.1,7.8,404.7,11.8,404.4z"/>
		<path class="st0" d="M4.6,385.1c1.7,1,3.6,1.7,5.5,2.3c2,0.4,3.9,0.6,5.9,0.6c16.5,0,28.6-15.1,38.6-27.6c1.5-1.8,2.9-3.6,4.2-5.2
			c0.9-1.1,1.9-2.1,3-3c2.4-2.3,4.9-4.6,5.2-8.1V344v-0.1c-4.1-9.7-17.3-12.5-29.9-15.1c-3.8-0.8-7.7-1.6-11.3-2.6
			c-3.5-1.1-7-2.5-10.2-4.3c-4.7-2.4-9.6-4.8-15.5-5.1v0.9c5.7,0.4,10.3,2.7,15.1,5c3.3,1.8,6.8,3.3,10.4,4.4
			c3.6,1,7.5,1.8,11.4,2.6c13,2.7,25.2,5.3,29.2,14.5c-0.3,3.1-2.5,5.2-4.9,7.4c-1.1,1-2.1,2-3.1,3.1c-1.4,1.6-2.8,3.4-4.2,5.2
			c-11,13.7-24.7,30.7-43.6,26.6c-1.8-0.5-3.6-1.3-5.3-2.2c-1.2-0.6-2.4-1.2-3.7-1.7c-0.4-0.2-0.9-0.3-1.3-0.5v1
			c0.3,0.1,0.6,0.2,0.9,0.4C2.2,383.9,3.4,384.6,4.6,385.1z"/>
		<path class="st0" d="M14.9,380.3c10.3-0.5,24.3-9.6,29.9-19.5c3.2-5.7,3.6-11.2,1.1-16c-3-5.6-12.8-9.8-21.7-13.2
			c-2-0.8-4-1.7-6.2-2.7c-5.5-2.5-11.6-5.4-18.1-5.4v0.9c6.2,0.1,12,2.8,17.7,5.4c2.1,1,4.2,1.9,6.2,2.7c8.8,3.4,18.3,7.5,21.2,12.8
			c3,5.6,1.1,11.3-1.1,15.1c-5.5,9.7-19.1,18.6-29.1,19c-4.2,0.2-9.6-0.9-14.9-2.8v1c4.5,1.7,9.2,2.6,13.9,2.8
			C14.3,380.3,14.6,380.3,14.9,380.3z"/>
		<path class="st0" d="M909.2,408.2c12.8,0,16.9,0.3,23.9,6.2c0.7,0.6,1.2,1.4,1.6,2.2c0.4,0.8,0.9,1.5,1.6,2
			c4.4,3.2,8.2,1.3,12.5-0.8c2.4-1.3,5-2.3,7.6-3c1-0.2,2.1-0.3,3.2-0.4v-0.9c-1.1,0.1-2.3,0.2-3.4,0.4c-2.7,0.7-5.3,1.7-7.8,3
			c-4.2,2.1-7.6,3.8-11.6,0.9c-0.6-0.5-1-1.1-1.3-1.7c-0.5-0.9-1.1-1.8-1.9-2.5c-7.4-6.1-12-6.4-25.2-6.4c-20.1,0-27.4,3-37.3,10.1
			c-9.4,6.8-31.8,8.2-49.7,6.6c-4.5-0.4-8.9-1.2-13.3-2.6c-6.7-2.1-12.8-5.7-17.9-8.9c-0.8-0.5-1.7-1.1-2.6-1.8
			c-1.9-1.5-4-2.7-6.3-3.7c-0.4-0.1-0.8-0.2-1.2-0.2c-0.6,0-1.3,0.1-1.9,0.2c-0.7,0.2-1.4,0.2-2.1,0.2c-2.1-0.1-4.2-0.6-6.2-1.4
			c-2-0.6-4.1-1-6.2-1.2c-1-0.1-2-0.2-2.9-0.3c-3.1-0.5-6.3-1.1-9.5-1.7c-5.4-1.2-11.3-2.6-18.4-4.6c-2.5-0.7-5.8-0.7-9.4-0.7
			c-2.5,0-4.9,0-7.4-0.2c-9.1-0.9-15.6-4.2-17.5-8.7c-1.5-3.7,0-8.2,4.4-13.2c0.7-0.8,1.5-1.4,2.4-2c2.2-1.5,4.4-3,5.4-8.7v-0.1
			v-0.1c-1-3.3-2.1-6.7-3.3-10.2c-5.6-16.6-11.4-33.8-2.6-49.5c5.1-1.5,8.5-5.3,11.8-9c1.8-2.1,3.8-4.1,5.9-5.9
			c6.1-4.7,12.1-4,19.7-3.1c2.9,0.3,5.9,0.6,9.2,0.8c0.8,0.7,1.6,1.3,2.5,1.8c0.7,0.5,1.3,0.9,2,1.5l0.2,0.1
			c2.4,1.1,4.7,2.5,6.6,4.4l0.2,0.2c0.4,0.4,0.8,0.7,1.3,1c1.3,0.9,2.4,2,3.3,3.4c0.7,1.3,2.2,4.8,1.2,7.8c-0.3,0.8-0.8,1.4-1.4,1.9
			c-1.1,0.8-2.7,1.1-5,0.9c-3.2-0.3-6.4-0.8-9.5-1.5c-3.3-0.7-6.6-1.2-9.9-1.5c-8-0.9-15.2,4.9-16.1,12.9c-0.2,1.5-0.1,2.9,0.2,4.4
			c0.6,4.5,3,7.9,6.8,9.2c2.7,1,10-0.1,15.5-1.8c6.6-2,11.5-5.4,17.6-9.9c1.7-0.5,2.7,0.1,4.1,0.8c0.4,0.2,0.8,0.5,1.3,0.7l0.6,0.3
			c1.4,0.6,2.8,1.4,4,2.4c3.8,3.5,7.6,0,10.4-2.5c0.3-0.3,0.6-0.5,0.8-0.8c1-0.9,2-1.7,2.9-2.6c2.8-2.7,5.8-5.1,9-7.3
			c4.5-2.8,9.2-5.3,13.9-7.5c8.7-4.3,17-8.3,18.9-12.9c0.9-2.1,0.9-6.3,0.8-10.7c0-2.8-0.1-5.6,0.1-8.1c0.2-2.4,0.3-4.8,0.4-7
			c0.2-7.2,0.5-14.1,5-21.8c4.2-3.4,6.2-1.6,9.9,1.8c1.6,1.6,3.4,3,5.3,4.3c3,1.9,6.2,3.6,9.5,4.9c3.3,1.4,6.4,2.7,8.6,4.8
			c2.2,2.1,4.3,4.4,6.2,6.8c2.1,2.8,4.6,5.4,7.3,7.7c8.9,6.9,21.5,10,30.2,11.8c4.3,0.9,7,2.4,8.4,4.7c2.3,3.9,0.7,9.5-1,15.4
			c-0.9,2.8-1.6,5.7-2.1,8.6v0.3l0.2,0.2c5.4,3.9,11.9,1.2,18.8-1.6c3.1-1.4,6.2-2.4,9.5-3.2c3.2-0.6,6.5-0.5,9.7,0.3v-1
			c-3.2-0.8-6.6-0.9-9.9-0.2c-3.3,0.8-6.5,1.9-9.6,3.3c-6.5,2.7-12.7,5.2-17.7,1.8c0.5-2.8,1.2-5.5,2-8.2c1.8-6.1,3.5-11.9,0.9-16.1
			c-1.5-2.6-4.5-4.3-9-5.2c-8.6-1.8-21.1-4.9-29.8-11.7c-2.7-2.2-5.1-4.7-7.2-7.5c-1.9-2.4-4-4.7-6.3-6.9c-2.3-2.2-5.5-3.5-8.9-5
			c-3.3-1.3-6.4-2.9-9.4-4.8c-1.8-1.3-3.6-2.7-5.2-4.2c-3.7-3.4-6.4-5.8-11.2-1.8l-0.1,0.1c-4.7,8-4.9,14.9-5.2,22.3
			c-0.1,2.2-0.2,4.6-0.4,7c-0.2,2.5-0.2,5.4-0.1,8.2c0.1,4.3,0.1,8.3-0.8,10.3c-1.9,4.2-9.9,8.2-18.5,12.4
			c-4.8,2.2-9.5,4.7-14.1,7.5c-3.2,2.2-6.2,4.7-9.1,7.4c-1,0.9-1.9,1.7-2.9,2.6c-0.3,0.2-0.6,0.5-0.9,0.8c-2.8,2.5-6,5.4-9.2,2.5
			c-1.3-1-2.7-1.9-4.2-2.5l-0.6-0.3c-0.5-0.2-0.9-0.5-1.2-0.6c-1.5-0.8-2.8-1.6-4.9-0.9l-0.1,0.1c-6.1,4.5-10.9,7.9-17.4,9.8
			c-5.2,1.6-12.4,2.7-14.9,1.8c-3.4-1.2-5.6-4.3-6.1-8.4c-0.6-4.6,1-10.7,6.1-14.1c2.7-1.6,5.8-2.3,8.9-2c3.3,0.3,6.6,0.8,9.8,1.5
			s6.4,1.2,9.6,1.5c2.5,0.2,4.3-0.2,5.7-1.1c0.8-0.6,1.4-1.4,1.7-2.4c1.1-3.2-0.5-7-1.2-8.5c-0.9-1.5-2.1-2.7-3.5-3.7
			c-0.4-0.3-0.8-0.6-1.2-1l-0.2-0.2c-2-1.9-4.3-3.4-6.8-4.5c-0.6-0.5-1.3-1-2-1.5c-0.9-0.5-1.7-1.2-2.4-1.9l-0.1-0.1H752
			c-3.4-0.1-6.4-0.4-9.3-0.8c-7.8-0.9-14-1.6-20.4,3.3c-2.2,1.8-4.2,3.8-6.1,6c-3.4,3.8-6.5,7.4-11.5,8.8l-0.2,0.1l-0.1,0.2
			c-9.1,16.1-3.2,33.6,2.4,50.5c1.2,3.5,2.3,6.8,3.3,10.1c-0.9,5.2-2.9,6.6-5,8c-1,0.6-1.8,1.3-2.6,2.1c-4.7,5.4-6.2,10.1-4.6,14.2
			c1.9,4.9,8.6,8.3,18.2,9.3c2.4,0.2,5,0.3,7.5,0.3c3.5,0,6.8,0,9.2,0.7c7.1,2,13,3.5,18.4,4.6c3.2,0.7,6.4,1.3,9.5,1.7
			c0.9,0.1,1.9,0.2,2.9,0.3c2,0.1,4,0.5,6,1.1c2.1,0.8,4.3,1.3,6.5,1.4c0.8,0,1.5-0.1,2.3-0.2c0.9-0.2,1.7-0.3,2.6-0.1
			c2.1,0.9,4.2,2.1,6,3.5c0.9,0.6,1.8,1.3,2.6,1.8c5.1,3.2,11.3,6.8,18.1,9c4.4,1.4,8.9,2.3,13.4,2.6c4.3,0.4,9.2,0.6,14,0.6
			c14,0,28.7-1.9,36.3-7.4c9.7-7,16.9-9.9,36.8-9.9L909.2,408.2z"/>
		<path class="st0" d="M922.1,480c-11.8-2.5-24.8-3.5-32.8,8.3h1.1c7.7-10.8,20.2-9.8,31.5-7.4c6.6,1.4,8,3.6,10.3,7.4h1.1l-0.1-0.1
			C930.7,484.1,929.3,481.6,922.1,480z"/>
		<path class="st0" d="M959.6,333.2v-1c-2.7,0.6-5.2,2-7.1,4.1c-4,4.6-5,12.6-2.7,20.8c1.5,5.2,5,9.6,9.7,12.2v-1.1
			c-4.3-2.5-7.5-6.6-8.8-11.4l0,0c-2.3-7.9-1.3-15.6,2.5-20C954.9,335,957.2,333.7,959.6,333.2z"/>
		<path class="st0" d="M959.6,323.5c-1.6,0-3.3,0.1-4.9,0.5c-13.9,3-22.2,15.8-19.8,30.4c0.6,3.7,1.9,7.1,4,10.2
			c3.7,5,12.1,10,20.6,13v-1c-8.2-3-16.3-7.8-19.8-12.6c-2-2.9-3.3-6.3-3.9-9.8l0,0c-2.4-14.1,5.6-26.5,19-29.4
			c1.4-0.3,2.9-0.5,4.4-0.5h0.3v-0.8L959.6,323.5L959.6,323.5z"/>
		<path class="st0" d="M727.1,258.3L727.1,258.3c0.6,11.6,11.2,11.1,19.6,10.6c2.2-0.2,4.5-0.2,6.7-0.1c0.4,0,1.2,0.6,3,3.5l0.2,0.3
			c0.4,0.6,0.7,1.1,1,1.7c0.6,1.1,1.3,2.1,2.1,3.1c2.6,3.1,5.8,3.3,9.2,3.4c0.7,0,1.5,0.1,2.3,0.1c1.6,0.1,3.4,0.3,5.1,0.3
			c3.9,0,7.7-0.8,10.3-3.9c2.4-3,4.4-6.2,5.9-9.7c2.9-6.5,3.8-16-0.2-21.7c-2.2-3.1-4.9-3.2-7.8-3.4c-0.8,0-1.7-0.1-2.6-0.2
			c-1.5-0.1-2.9-0.2-4.4-0.2c-1.8,0-3.5-0.1-5.3-0.4c-3.5-0.6-7-1.7-8.2-5.9c-0.5-1.8-0.7-3.6-0.6-5.4v-0.1c0-0.3,0-0.7,0-1.2
			c0.1-2,0.1-3.7-0.4-4.4c-6.5-8.6-18.4-5.6-27.1-3.4l-1.4,0.4l-0.1,0.1c-6.8,6.1-6.6,14.7-6.4,22.9
			C728,249.4,728.1,254.1,727.1,258.3L727.1,258.3z M728.9,244.9c-0.2-8.4-0.3-16.3,6-22.2l1.2-0.3c8.9-2.2,20-5,26.1,3.1
			c0.4,0.5,0.3,2.6,0.2,3.8c0,0.4,0,0.9,0,1.3v0.1c0,1.9,0.2,3.8,0.7,5.7c1.4,4.7,5.3,5.9,9,6.5c1.8,0.3,3.6,0.4,5.4,0.4
			c1.4,0,2.9,0.1,4.3,0.2c0.9,0.1,1.8,0.1,2.6,0.2c2.9,0.1,5.2,0.2,7.1,3c3.7,5.3,2.8,14.6,0.1,20.7c-1.6,3.4-3.5,6.6-5.8,9.5
			c-3.4,4.3-9.6,3.7-14.6,3.3c-0.8-0.1-1.6-0.1-2.3-0.1c-3.3-0.2-6.2-0.3-8.5-3.1c-0.7-1-1.4-2-2-3c-0.3-0.6-0.7-1.2-1-1.7l-0.2-0.3
			c-1.3-2-2.6-3.8-3.7-3.9c-0.6-0.1-1.3-0.1-2-0.1c-1.5,0-3.1,0.1-4.8,0.2c-8.9,0.4-18,0.9-18.7-9.6
			C729.1,254.2,729,249.5,728.9,244.9L728.9,244.9z"/>
		<path class="st0" d="M742.5,249.4c0.9,1.4,2.4,2.3,4,2.6c0.5,0.1,1.1,0.1,1.6,0.1c2.6,0,5.2-0.9,7.2-2.4l0.1-0.1
			c0.4-1.2,0.5-2.5,0.1-3.7l-0.1-0.1c-1.8-3.1-5.2-3.4-8.2-3.7c-0.7-0.1-1.5-0.2-2.1-0.3H745h-0.1c-2.1,0.8-3.6,2.6-4,4.8
			C740.9,247.7,741.5,248.8,742.5,249.4z M745.2,242.7c0.7,0.1,1.4,0.2,2.1,0.2c2.9,0.3,5.9,0.6,7.4,3.2c0.2,0.9,0.2,1.9,0,2.9
			c-2.3,1.7-5.2,2.4-8,2c-1.4-0.2-2.7-1-3.4-2.2l-0.1-0.1h-0.1c-0.8-0.4-1.2-1.2-1.1-2C742.3,244.9,743.5,243.4,745.2,242.7
			L745.2,242.7z"/>
		<path class="st0" d="M959.6,316.8c-2.8-0.2-5.6,0.1-8.4,0.8c-15.6,4-31.2,19.4-29.2,40.4v0.1c3.7,14.7,16,18.3,28,21.8
			c3.2,1,6.6,2,9.7,3.2v-1c-3.1-1.2-6.3-2.1-9.4-3.1c-11.7-3.4-23.7-7-27.3-21.1c-1.9-20.4,13.3-35.5,28.6-39.4
			c2.7-0.7,5.4-1,8.2-0.8v-0.9H959.6z"/>
		<path class="st0" d="M845.6,217.3C830.2,219,824,225.2,822,241c-1.1,7.5-2.8,14.8-5.1,22c-1.2,4.3-2.4,8.3-3.3,12.4l-0.3,1.3
			c-1.6,7.2-2.5,11.6-8.7,16.4c-2,1.4-4.1,2.8-6.3,3.9c-1.9,1.1-3.9,2.2-5.8,3.5c-0.5,0.3-1,0.7-1.6,1c-2.5,1.8-5.2,3.3-8,4.7
			c-3.3,1.5-6.7,3.5-6.1,8.3c0.2,1.6,0.8,2.6,1.9,3.1c2.1,0.8,5.2-1.4,6.4-2.4c3.1-2.7,6.4-5,10-6.9c2.9-1.4,5.7-3.1,8.5-4.6
			c0.7-0.4,1.4-0.8,2.1-1.2c3.9-2.1,7.4-4.7,10.5-7.8c7.7-8.1,9.1-19.9,10.3-30.4c0.2-1.9,0.4-3.7,0.7-5.4c0.2-1.5,0.4-3.1,0.6-4.8
			c1.1-9,2.3-19.3,8.1-23.4c2.7-1.9,6-2.3,10.3-1.4c6.5,1.5,18.5,6,23.3,10.9c2.9,3.2,5.4,6.7,7.5,10.5c2.5,4.2,4.9,8.2,8.7,11.4
			c9.7,8.4,23,16.6,39.2,5.6c6.4,3.9,9.3,10.6,12,17.1s5.3,12.6,11.2,15.6c2.1,1,4.4,1.8,6.6,2.4c1,0.3,2,0.6,3,0.9
			c0.5,0.2,1,0.4,1.6,0.6v-1c-0.4-0.1-0.8-0.3-1.3-0.4c-1-0.3-2-0.6-3-0.9c-2.2-0.6-4.4-1.4-6.5-2.4c-5.6-2.9-8.1-8.8-10.8-15.1
			c-2.8-6.7-5.8-13.6-12.7-17.7l-0.3-0.2l-0.2,0.2c-15.7,10.8-28.2,3.4-38.3-5.3c-3.7-3.2-6-7.1-8.6-11.2c-2.1-3.8-4.7-7.4-7.6-10.7
			c-5.5-5.6-18.4-9.9-23.8-11.1c-4.5-1-8.2-0.5-11.1,1.5c-6.1,4.4-7.4,14.8-8.5,24.1c-0.2,1.6-0.4,3.2-0.6,4.7
			c-0.2,1.7-0.5,3.5-0.7,5.4c-1.2,10.3-2.5,22-10.1,29.9c-3.1,3-6.5,5.6-10.3,7.6c-0.7,0.4-1.4,0.8-2.1,1.2
			c-2.7,1.6-5.5,3.2-8.4,4.6c-3.7,1.9-7.1,4.3-10.2,7.1c-1.7,1.5-4.1,2.8-5.5,2.3c-0.7-0.3-1.1-1-1.3-2.3c-0.5-3.8,1.7-5.6,5.5-7.4
			c2.8-1.4,5.5-3,8.1-4.8c0.5-0.4,1-0.7,1.6-1c1.9-1.2,3.9-2.4,5.7-3.5c2.2-1.2,4.3-2.5,6.4-4c6.5-5.1,7.5-9.8,9.1-16.9l0.3-1.3
			c0.9-4.1,2-8.1,3.2-12.3c2.3-7.2,4-14.6,5.1-22.1c2.3-17.3,10.1-21.5,22.8-22.9c9.3-1,13.5-3.1,15.2-12.9v-0.1v-0.1
			c-1.7-4.7-1.1-9.9,1.6-14.1c2.7-1.2,5.7-0.8,8.1,0.9c2,7.7,6.1,14.6,10.1,21.3c4.8,8.1,9.7,16.4,10.9,26.1
			c-0.2,0.6-0.4,1.2-0.7,1.8c-0.8,1.9-1.6,4.1-0.3,6.1c1.3,1.9,3.9,2.3,5.8,1c0.9-0.8,1.6-1.9,1.9-3.1c0.1-0.4,0.3-0.8,0.5-1.3
			c4.4-3.7,8-3,12.6-2.2c3.5,0.8,7.1,1,10.6,0.7c5.9-0.7,11.7-3.2,17.2-5.6c7.1-3.1,13.8-6,18.8-3.7c0.6,0.3,1.1,0.6,1.6,1V233
			c-0.4-0.3-0.8-0.5-1.2-0.7c-5.3-2.4-12.2,0.5-19.5,3.7c-5.5,2.4-11.2,4.8-17,5.5c-3.5,0.3-7,0.1-10.4-0.6
			c-4.7-0.9-8.7-1.6-13.5,2.5l-0.1,0.2c-0.2,0.5-0.4,0.9-0.6,1.4c-0.3,1-0.8,1.9-1.6,2.6c-1.5,1-3.4,0.6-4.5-0.8
			c-1.1-1.6-0.4-3.4,0.4-5.3c0.3-0.7,0.5-1.3,0.7-2v-0.1v-0.1c-1.2-9.9-6.2-18.4-11.1-26.6c-4-6.7-8.1-13.6-10-21.2v-0.2l-0.1-0.1
			c-2.7-2-6.3-2.4-9.3-1l-0.1,0.1l-0.1,0.1c-2.9,4.4-3.5,9.9-1.8,14.9C858.3,214.9,854.1,216.4,845.6,217.3z"/>
		<path class="st0" d="M699.1,174.9c4.2,2.5,7.7,1.7,11.4,0.7c3-0.8,6.2-1.5,10-0.4c2.8,0.8,5.1,2.7,7.4,4.5
			c2.4,1.9,4.6,3.6,7.2,4.1c2.1,0.4,4.2,0.2,6.1-0.8c1.6-0.8,2.9-2.2,3.7-3.8c1.9-4,0.9-8.7-2.4-11.6c-4.6-4.1-11.3-3.3-18.5-2.4
			c-4.4,0.5-8.9,1.1-13,0.4c-1.8-0.3-3.6-0.8-5.3-1.4c-4.5-1.4-8.4-2.6-10.8,1.7l-0.1,0.2C694.3,169.4,695.6,174.2,699.1,174.9z
			 M695.7,166.4c2-3.6,5.2-2.6,9.6-1.2c1.8,0.6,3.6,1.1,5.5,1.4c4.2,0.7,8.8,0.1,13.2-0.4c6.9-0.9,13.4-1.6,17.7,2.2
			c3,2.6,3.9,6.9,2.2,10.5c-1.6,3.2-5.3,4.9-8.8,4.1c-2.4-0.4-4.5-2.1-6.8-4c-2.3-1.8-4.7-3.8-7.7-4.6c-4-1.2-7.3-0.4-10.5,0.4
			c-3.5,0.9-6.8,1.7-10.8-0.7l-0.2-0.1C696.5,173.5,695.3,169.2,695.7,166.4L695.7,166.4z"/>
		<path class="st0" d="M719.9,311.9c-9.3,13.5-8.2,24.4,3.3,33.2c1.8,1.3,3.7,2.3,5.8,3c2.5,0.9,4.8,2.2,6.8,3.9
			c2.8,2.6,4.2,6,5.6,9.2c1.8,4.2,3.6,8.5,8.4,11.3c0.7,0.4,1.6,0.9,2.5,1.4c4.1,2.3,10.2,5.7,13.2,9.6c0.8,1.1,2.6,1.5,4,1.8
			c0.3,0.1,0.6,0.1,0.9,0.2c1.5,0.3,3,0.6,4.5,0.6c0.4,0,0.9,0.1,1.3,0.1c0.7,0.1,1.4,0.1,2.1,0.2c1,0.1,2,0.1,3,0.3
			c10.1,2.9,17.1,6.1,24.3,10.8c6.8,4.6,12.7,8.1,21.4,8.8c12.7,1,19.9-7.1,26.9-15c3.7-4.2,7.6-8.6,12.2-11.5
			c4.2-2.6,8.8-2.5,15.1-2.4h1.6c1.3,0,2.4,0.1,3.5,0.2c5.3,0.3,9.1,0.5,16.4-4.7c1.4,1.1,2.6,2.4,3.8,3.7c2.1,2.3,4,4.3,7.8,5.2
			c2.2,0.4,4.4,0.3,6.6-0.2c1.2-0.3,2.5-0.4,3.7-0.4c6.5,0.8,13,2.1,19.4,3.7h0.1c3.9,0.9,8.3,3,12.5,5.1c1,0.5,2,1,3,1.4v-1
			c-0.9-0.4-1.7-0.8-2.5-1.2c-4.2-2.1-8.6-4.2-12.6-5.2h-0.1c-6.4-1.6-12.9-2.9-19.5-3.7c-1.3,0-2.7,0.1-4,0.4
			c-2,0.5-4.1,0.6-6.2,0.2c-3.5-0.8-5.2-2.6-7.3-4.9c-1.3-1.5-2.7-2.8-4.2-4l-0.3-0.2l-0.3,0.2c-7.3,5.2-10.8,5.1-16.2,4.8
			c-1.1-0.1-2.3-0.1-3.5-0.2h-1.6c-6.5-0.1-11.2-0.2-15.6,2.6c-4.8,3-8.6,7.4-12.4,11.6c-7.1,8-13.8,15.7-26.1,14.7
			c-8.5-0.7-14.3-4.2-21-8.7c-7.2-4.9-14.4-8-24.7-11c-1-0.1-2.1-0.2-3.1-0.3c-0.7,0-1.3-0.1-2.1-0.2c-0.4,0-0.9-0.1-1.3-0.1
			c-1.5-0.1-2.9-0.3-4.4-0.6c-0.3-0.1-0.6-0.2-1-0.2c-1.2-0.3-2.8-0.6-3.4-1.4c-3.1-4-9.1-7.4-13.5-9.9c-1-0.5-1.8-1-2.5-1.4
			c-4.5-2.7-6.2-6.7-8-10.9c-1.4-3.3-2.9-6.8-5.8-9.5c-2.1-1.8-4.5-3.1-7.1-4.1c-2-0.7-3.9-1.7-5.6-2.9c-11-8.5-12.1-19-3.1-32
			c7.1-10.3,12.8-16.4,31.8-14.4h0.3l0.1-0.3c0.5-1.4,0.5-3.1-0.1-4.5l-0.1-0.2c-0.2-0.2-0.5-0.5-0.8-0.7c-0.5-0.5-1-0.9-1.5-1.3
			l-0.2-0.1h-0.2c-2.6,0.2-5.2,0.2-7.8-0.1c-2.8-0.4-5.7-0.3-8.4,0.2c-9.3,2.2-21.9,17.8-25,23.7c-7.5,14.2,0.3,30.5,10.7,39.6
			c1,0.8,2,1.5,3.2,2.1c2.2,1.1,4.1,2.7,5.6,4.7c2,3.1,3.4,6.5,4.3,10c0.9,3.4,1.8,6.3,4.6,9.1c2,1.9,4.2,3.4,6.7,4.6
			c2.4,1.3,4.9,2.4,7.3,3.5c2.7,1.2,5.4,2.4,8,3.8c2.3,1.3,4.5,2.8,6.6,4.6c1.9,1.5,4.2,1.7,6.4,1.9c0.5,0,1,0.1,1.5,0.1
			c1.5,0.1,2.9,0.2,4.4,0.2c1.1,0,2.3,0,3.4,0.1c1.7,0.2,3.3,0.7,4.8,1.4c0.4,0.1,0.8,0.3,1.2,0.4c4.3,1.6,8.3,3.5,12.7,5.7l2.1,1
			c7.5,3.7,15.3,7.5,23.6,9.3c5,1.1,10.1,1.3,15.2,0.5c5.5-0.9,10.8-3,15.3-6.3c1.4-1.2,2.7-2.6,3.7-4.1c0.9-1.4,2-2.7,3.3-3.8
			c5.2-4.5,10.8-6,19.5-5.1c1.4,0.1,2.8,0.3,4.2,0.4c8.4,0.9,17.1,1.9,24.8,0.3c2.7-0.6,5.2-1.3,7.7-2.1c5.6-1.7,10.9-3.3,17.3-2.4
			c5.5,0.8,10.6,3.1,15.6,5.2c2.4,1.1,4.8,2.1,7.2,3v-1c-2.3-0.8-4.5-1.8-6.8-2.8c-5-2.2-10.2-4.5-15.8-5.3c-6.6-1-12,0.6-17.7,2.4
			c-2.4,0.8-5,1.5-7.6,2.1c-7.6,1.6-16.2,0.6-24.5-0.3c-1.4-0.2-2.8-0.3-4.2-0.5c-8.9-0.9-14.9,0.7-20.2,5.3c-1.3,1.2-2.4,2.6-3.4,4
			c-1,1.5-2.1,2.8-3.5,3.9c-4.4,3.1-9.5,5.2-14.9,6.1c-4.9,0.8-9.9,0.6-14.8-0.5c-8.2-1.8-15.9-5.6-23.4-9.3l-2.1-1
			c-4.2-2.1-8.5-4-12.9-5.7c-0.4-0.1-0.8-0.3-1.2-0.4c-1.6-0.7-3.3-1.2-5.1-1.4c-1.2-0.1-2.3-0.1-3.5-0.1c-1.4,0-2.8,0-4.2-0.2
			c-0.5-0.1-1-0.1-1.5-0.1c-2.2-0.2-4.3-0.4-6-1.7c-2.1-1.7-4.4-3.3-6.7-4.6c-2.6-1.4-5.4-2.7-8-3.9c-2.4-1.1-4.9-2.2-7.3-3.4
			c-2.4-1.1-4.5-2.6-6.4-4.4c-2.7-2.7-3.5-5.5-4.4-8.7c-0.9-3.7-2.4-7.1-4.4-10.3c-1.5-2.1-3.6-3.8-5.9-5c-1.1-0.6-2.1-1.3-3-2.1
			c-10.1-8.9-17.7-24.7-10.5-38.4c3.1-5.8,15.4-21.1,24.4-23.3c2.7-0.5,5.4-0.6,8.1-0.2c2.6,0.3,5.2,0.4,7.8,0.1
			c0.4,0.3,0.9,0.7,1.3,1.1c0.2,0.2,0.5,0.4,0.7,0.6c0.4,1,0.5,2.2,0.2,3.3C733,295.1,726.9,301.7,719.9,311.9z"/>
		<path class="st0" d="M607,126.9L607,126.9c0.6,0.4,1.2,0.7,1.7,1c4.8,3,9.7,6,15.3,6.1h0.3l0.1-0.2c2.4-3.7,2.1-8.3-0.8-12.9
			c-4.3-6.7-13.2-11.6-19.4-10.8h-0.1l-0.1,0.1c-1.7,1.3-2.6,3.3-2.6,5.4C601.2,119.7,604.1,124.3,607,126.9z M604.4,111
			c5.9-0.7,14.3,4,18.3,10.4c2.7,4.2,3,8.3,1,11.7c-5.2-0.1-10-3.1-14.6-5.9c-0.5-0.3-1.1-0.7-1.6-1c-2.6-2.4-5.4-6.7-5.3-10.5
			C602.3,113.9,603.1,112.2,604.4,111z"/>
		<path class="st0" d="M687,184c6.6,5.5,12.3,4.8,18.4,4.1c2.6-0.4,5.2-0.5,7.7-0.5c4.4,0.1,8.2,2.2,11.9,4.2c3,1.7,5.8,3.2,8.9,3.7
			c4.4,0.7,11.7-1,17-3.7c2.2-1,4.1-2.5,5.5-4.4c3.2-5,2-24.1-5.9-30.7c-2.2-1.8-4.9-2.5-8.2-3.3c-1.2-0.3-2.4-0.6-3.7-1
			c-2.8-0.8-5.7-1.8-8.7-2.8c-11.3-3.8-23-7.7-34.2-4.5c-9.7,2.8-21.5,6.9-26.1,14l-0.1,0.1v0.1c0,0.3,0,0.5,0,0.8c0,0.5,0,1,0,1.4
			v0.1v0.1C672.3,169.2,680.4,178.5,687,184z M670.6,159.6c4.5-6.9,16.7-11,25.5-13.6c10.9-3.1,22.4,0.7,33.6,4.5c3,1,5.9,2,8.7,2.8
			c1.3,0.4,2.5,0.7,3.7,1c3.2,0.8,5.8,1.4,7.8,3.1c7.4,6.2,8.7,24.8,5.7,29.5c-2.8,4.4-14.9,8.7-21.6,7.6c-3-0.5-5.7-2-8.7-3.6
			c-3.8-2.1-7.7-4.2-12.3-4.3c-2.6,0-5.3,0.2-7.9,0.6c-6.1,0.7-11.4,1.3-17.7-3.9c-6.5-5.4-14.4-14.5-17-21.6
			c0.1-0.5,0.1-0.9,0.1-1.4C670.7,160.1,670.6,159.8,670.6,159.6z"/>
		<path class="st0" d="M570.5,99c-2.9,3.7-2.1,8.4,2.3,13.9l0.1,0.1c4.6,2.9,8.4,7,12,11c2.7,3.1,5.6,5.9,8.6,8.6
			c4,3.2,8.7,5.8,13.8,8.6c6.3,3.5,12.8,7.1,17.6,11.8c1.8,1.9,3.3,3.9,4.7,6.1c1.9,2.8,3.7,5.4,6.4,7.2c3.8,2.5,8.6,3.3,13.2,4
			c4.4,0.7,8.6,1.4,12,3.5c3.5,2.1,5.8,5.2,8,8.2c1.4,2,3,3.9,4.7,5.7c4.9,4.6,11.1,8.2,16.5,9.6c4.5,1.2,9,0.6,13.4,0.1
			c4.2-0.5,8.2-1,12.2,0c2.4,0.7,4.6,1.8,6.7,3.1c2.2,1.4,4.6,2.5,7.2,3.3c4.3,1,8.6,0.2,13.1-0.7c3.2-0.7,6.5-1.1,9.8-1.2
			c2.6,0.1,5.2,0.5,7.8,1.2c4.3,1,8.4,1.9,13,0l0,0h0.1c3.2-2.5,6.9-6.4,6.6-11c-0.2-3.7-3.5-6.6-6.6-9.5c-1.7-1.5-3.3-3.1-4.7-4.9
			c-2.5-3.6-4.2-8.9-5.8-14.1c-1.5-4.7-3-9.5-5.2-13.2c-1.4-2.4-3.1-4.6-4.9-6.6c-0.6-0.7-1.2-1.4-1.8-2.1l-0.1-0.1l-0.1-0.1
			c-15.9-6.6-25.5-8.2-42.8-7c-5.3,0.4-10.8,2.3-16.7,4.3c-9.7,3.4-19.8,6.9-28.9,2.9c-3.2-1.4-6.1-4.1-9.1-7
			c-1.6-1.5-3.3-3.1-5-4.5c-2.1-1.7-4.6-3.3-7-4.9c-2.3-1.4-4.4-2.9-6.5-4.5c-4.8-3.9-10.1-9.7-15.3-15.3l-1.4-1.5
			c-1-1.1-2-2.4-3-3.5c-2.4-3-4.9-6-8.2-7.5C601.9,90.6,577.2,90.4,570.5,99z M606.8,93.8c3.1,1.4,5.4,4.3,7.8,7.2
			c1,1.2,2,2.5,3,3.6l1.4,1.6c5.2,5.6,10.6,11.4,15.4,15.4c2.1,1.7,4.3,3.2,6.6,4.6c2.4,1.5,4.7,3.1,6.9,4.8c1.7,1.4,3.4,3,5,4.5
			c3.1,3,6.1,5.8,9.4,7.2c9.5,4.2,19.7,0.6,29.6-2.9c5.8-2,11.3-3.9,16.4-4.3c17.1-1.2,26.6,0.4,42.3,6.9c0.6,0.7,1.1,1.3,1.7,2
			c1.8,2,3.4,4.1,4.8,6.4c2.1,3.7,3.6,8.4,5.1,13.1c1.7,5.2,3.4,10.6,6,14.3c1.4,1.9,3,3.5,4.8,5.1c3,2.7,6.1,5.5,6.3,8.8
			c0.3,4.2-3.2,7.8-6.2,10.2c-4.4,1.7-8.3,0.8-12.4-0.1c-2.6-0.7-5.3-1.1-8-1.2c-3.4,0.1-6.7,0.5-10,1.2c-4.4,0.8-8.6,1.7-12.7,0.7
			c-2.4-0.7-4.8-1.8-6.9-3.1c-2.1-1.4-4.5-2.5-6.9-3.2c-4.1-1.1-8.4-0.5-12.5,0c-4.3,0.5-8.7,1-13-0.1c-5.3-1.3-11.3-4.8-16.1-9.4
			c-1.7-1.7-3.3-3.6-4.6-5.6c-2.3-3.1-4.6-6.3-8.3-8.5c-3.6-2.2-8.1-2.9-12.4-3.6c-4.5-0.7-9.2-1.5-12.9-3.9
			c-2.5-1.6-4.3-4.2-6.1-6.9c-1.4-2.2-3-4.3-4.8-6.2c-4.9-4.8-11.4-8.5-17.8-12c-4.8-2.5-9.4-5.3-13.7-8.5c-3.1-2.6-5.9-5.4-8.5-8.5
			c-3.7-4-7.4-8.2-12.1-11.1c-4.1-5.1-4.8-9.4-2.3-12.7C577.6,91.5,601.8,91.6,606.8,93.8z"/>
		<path class="st0" d="M959.6,153.2c-5.5-0.6-12.9,3.8-15.6,9.5c-1.9,3.9-1.8,8-1.7,12.1c0.1,3.2,0.1,6.2-0.9,8.8
			c-2.6,6.5-7.9,11.6-14.6,13.7c-3.8,1-6.1,0.5-10.6-0.5c-1.8-0.4-3.9-0.9-6.7-1.3h-0.3l-0.2,0.2c-2.8,3.5,2.1,8.5,5.6,12.2
			c0.4,0.4,0.8,0.8,1.1,1.2c4.3,4.6,9.4,9.3,14.8,9.2c0.3,0,0.7,0,1,0c5.6-0.6,9.4-5.2,13-9.6c4-4.9,8.2-9.9,15-10v-0.9
			c-7.2,0.1-11.5,5.3-15.7,10.4c-3.7,4.5-7.2,8.7-12.4,9.3c-5.4,0.6-10.7-4.2-15.1-8.9c-0.4-0.4-0.8-0.8-1.1-1.2
			c-3.2-3.4-7.6-8-5.7-10.8c2.6,0.5,4.7,0.9,6.4,1.3c4.6,1,7.1,1.5,11.1,0.5c7-2.2,12.6-7.5,15.2-14.3c1-2.8,1-5.9,0.9-9.2
			c-0.1-3.9-0.2-8,1.6-11.7c2.6-5.4,9.7-9.6,14.8-9v-1H959.6z"/>
		<path class="st0" d="M878.6,283.6c-13.4-1.6-18.6,8.5-23.1,17.3c-3.4,6.6-6.6,12.8-12.7,14.2c-2.7,0.6-6-0.9-9.6-2.5
			c-2.8-1.3-5.8-2.6-8.6-2.9c-14.8-1.5-37.1,17.2-40.5,30.4c-0.7,3.2-0.7,6.5,0.1,9.7c0.5,2.1,0.9,4.2,1.2,6.3
			c1.1,6.6,2.2,12.8,7.5,17c3.2,2.5,7.2,3.7,11.1,4.9c4,1.2,7.8,2.4,10.8,4.8c1.1,1,2.1,2.1,3,3.3c1.1,1.5,2.4,2.9,4,3.9
			c2.3,1.3,4.9,1.9,7.6,1.9c3.6-0.1,7.1-1.1,10.3-2.8c5.3-2.6,9.3-7.7,13.2-12.6c3-3.7,6-7.6,9.6-10.4c1.5-1,3.1-1.9,4.8-2.6
			c3-1.3,6.1-2.7,7.9-5.4l0.1-0.1v-0.1c0.5-5.1-0.9-10.3-2.2-15.3c-1.9-7.2-3.9-14.8-0.3-22.1c1.1-0.5,2.3-1,3.5-1.5
			c7.4-3,14.7-6.4,21.7-10.4c0.8-0.5,1.6-0.9,2.5-1.3c3.7-1.9,7.8-4,8-8.7v-0.1l-0.1-0.1C903.2,290.4,889.2,284.8,878.6,283.6z
			 M900.1,306.4c-0.9,0.5-1.7,0.9-2.6,1.4c-7,3.9-14.2,7.3-21.6,10.3c-1.3,0.6-2.5,1.1-3.7,1.6l-0.2,0.1l-0.1,0.2
			c-3.9,7.7-1.8,15.4,0.1,22.9c1.4,5.1,2.7,10,2.2,14.8c-1.7,2.4-4.6,3.7-7.5,5c-1.7,0.7-3.4,1.6-5,2.7c-3.6,2.8-6.8,6.8-9.7,10.5
			c-3.8,4.9-7.8,9.9-12.8,12.4c-4.2,2.1-10.5,4.4-17,0.9c-1.5-0.9-2.7-2.2-3.7-3.6c-0.9-1.2-2-2.4-3.1-3.4c-3.1-2.6-7.2-3.8-11.1-5
			c-3.8-1.1-7.7-2.3-10.8-4.7c-5-3.9-6.1-10-7.2-16.4c-0.4-2.1-0.8-4.2-1.2-6.4v-0.1c-0.7-3-0.7-6.1-0.1-9.1
			c3.1-12.2,23.8-29.8,37.9-29.8c0.5,0,1.1,0,1.6,0.1c2.6,0.3,5.5,1.6,8.3,2.8c3.7,1.7,7.2,3.3,10.1,2.6c6.5-1.4,9.8-7.9,13.3-14.7
			c4.7-9,9.5-18.4,22.2-16.9c10.3,1.2,23.9,6.6,29,14.2C907.3,302.7,903.6,304.6,900.1,306.4z"/>
		<path class="st0" d="M816.7,335.8c-1.4,0.1-2.6,1.1-3.1,2.4c-0.4,1.1,0,2.3,1,2.9l0.1,0.1c0.8,0.3,1.6,0.8,2.4,1.2
			c3.5,1.7,7.7,3.8,11.3,3.8c0.7,0,1.4-0.1,2.1-0.2l0.6-0.2l-0.4-0.5C828.1,341.3,822.9,336.5,816.7,335.8z M817.5,341.5
			c-0.8-0.4-1.6-0.8-2.4-1.2c-0.6-0.4-0.8-1.2-0.6-1.9c0.3-1,1.1-1.7,2.1-1.8c5.5,0.6,10.2,4.8,12.9,8.4
			C826,345.7,821.3,343.4,817.5,341.5z"/>
		<path class="st0" d="M893.2,328.6c-5.8,2.7-10.2,8.7-7,16v0.1c3.6,5.8,9.3,11.5,15.2,11.5c0.7,0,1.4-0.1,2.1-0.2
			c3.2-0.8,5.9-3.2,7.6-6.8c2.4-4.9,2.5-11.2,0.4-15.5C908,326.5,899.5,325.7,893.2,328.6z M910.7,334.1c1.9,4,1.8,10.1-0.4,14.7
			c-1.6,3.4-4.1,5.6-7,6.3c-6.1,1.5-12.4-4.6-16.3-10.8c-3-6.8,1.1-12.3,6.5-14.8C899.6,326.7,907.4,327.4,910.7,334.1z"/>
		<path class="st0" d="M839.1,329.3c-1.6-0.9-3.2-1.8-4.7-2.7c-1.3-0.9-2.6-1.8-3.8-2.7c-2.6-1.9-4.8-3.5-7.2-4
			c-10-2.2-20.3,4.1-27.5,16.9v0.1c-3.8,14.7,5.2,20.7,19.2,28.1c1.5,0.8,3.1,1.7,4.6,2.6c4.7,2.8,9.3,5.5,14.3,5.5
			c1.4,0,2.8-0.2,4.1-0.6c6-1.7,10.9-7.2,13.1-14.6c2.5-8.3,1.1-17.2-3.5-22.7C845.7,333,842.5,331.2,839.1,329.3z M850.2,357.6
			c-2.1,7.1-6.8,12.4-12.5,14c-6.4,1.9-11.8-1.4-17.6-4.8c-1.5-0.9-3-1.8-4.6-2.6c-13.6-7.2-22.3-13-18.8-27
			c7-12.3,16.9-18.5,26.5-16.4c2.2,0.5,4.4,2.1,6.9,3.9c1.2,0.9,2.5,1.8,3.9,2.7c1.5,0.9,3.1,1.9,4.7,2.7c3.3,1.8,6.5,3.6,8.2,5.6
			C851.3,341,852.6,349.6,850.2,357.6z"/>
		<path class="st0" d="M958.7,166.3c0.3,0.1,0.6,0.1,0.9,0.2v-1c-0.3-0.1-0.5-0.2-0.8-0.2h-0.1h-0.1c-2.1,0.3-4,1.6-5.1,3.5
			c-1.4,2.3-1.7,5.1-0.9,7.7c0.5,4.1,3.1,7.6,7,9.3v-1c-3.3-1.5-5.6-4.7-6-8.3v-0.1c-0.7-2.3-0.5-4.9,0.8-7
			C955.3,167.7,956.9,166.6,958.7,166.3z"/>
		<path class="st0" d="M959.6,248.9c-1.7,1.1-3.5,2.1-5.4,3c-2.1,0.9-4.1,2.1-5.9,3.6c-10.4,9.7-5.4,23.3,2.7,32.8
			c2.5,2.8,5.4,5.3,8.5,7.4v-1.1c-2.8-2-5.5-4.3-7.8-6.8c-7.8-9.2-12.7-22.2-2.8-31.5c1.7-1.4,3.6-2.6,5.7-3.5
			c1.7-0.8,3.3-1.7,4.9-2.7L959.6,248.9L959.6,248.9z"/>
		<path class="st0" d="M875.4,90.2c4.5-3.2,9.6-6.8,5.5-14l-0.1-0.1c-2.1-2-4.1-2.9-6-2.7c-3.2,0.3-5.7,3.4-8.3,6.7
			c-2.3,2.9-4.7,5.9-7.7,7c-8.7,3.3-16.2-3.4-23.4-9.9c-2-1.8-4.1-3.6-6.1-5.3c-3-2.1-6.1-4-9.4-5.7c-2.9-1.4-5.5-3-8.1-4.8
			c-4.1-2.9-7.4-6.7-10.7-10.4c-3.4-3.9-6.6-7.5-10.2-9.5c-3.8-2.2-14.6-4.1-21.3-3.8c-2.9,0.2-5.8,0.5-8.8,1.1
			c-4.1,0.6-7.8,1.3-11.6,1c-4.7-0.4-8.9-2-13.1-3.5c-4.4-1.6-8.6-3.2-13.1-3.2c-0.9,0-1.9,0.1-2.9,0.3c-3.9,0.8-7.4,3.4-9.4,6.9
			c-3.8,6.2-4,14.9-0.6,22c2.1,4.2,5.3,7.5,8.4,10.6c3.8,3.8,7.6,7.8,9.5,13.4c0.6,2.3,0.8,4.8,0.7,7.2c-0.1,2.1,0,4.1,0.4,6.2
			c2,9.1,5.7,14.9,12.3,19.8l0.1,0.1h0.1c2.4,0.1,4.8-0.1,7.1-0.7c2-0.5,4.2-0.7,6.2-0.6c7.5,0.6,25.7,6,29.4,10
			c4.1,4.3,4.7,10.2,5.5,16.3c0.7,5.6,1.4,11.5,4.8,16.1c4.9,6.4,14,10.7,23.2,10.8c4.3,0,9.1-1.6,14.5-3.6c3-1,5.9-2.1,9.2-3
			c2.7-0.6,5.5-1.1,8.3-1.2c6.5-0.8,13.9-1.5,18.3-4.8c11.1-8.3,8.2-26.5,3.9-43.2c-0.4-1.5-0.9-3.2-1.4-4.7
			c-1.6-5.4-3.3-11-1.3-15.3C870.5,93.7,873,92,875.4,90.2z M868.6,95.5c-2.2,4.6-0.5,10.3,1.2,15.9c0.5,1.5,1,3.1,1.4,4.6
			c4.3,16.4,7.1,34.3-3.6,42.2c-4.1,3.1-11.4,3.9-17.8,4.6c-2.8,0.2-5.7,0.6-8.5,1.3c-3.3,0.9-6.2,1.9-9.2,3
			c-5.3,1.9-10,3.5-14.2,3.5c-8.9-0.1-17.8-4.2-22.5-10.5c-3.4-4.4-4-10.1-4.6-15.6c-0.6-6-1.4-12.3-5.7-16.8
			c-4-4.3-23.1-9.7-30-10.2c-2.2-0.1-4.4,0.1-6.4,0.6c-2.3,0.5-4.4,0.7-6.7,0.6c-6.4-4.7-10-10.4-11.9-19.2c-0.3-2-0.5-4-0.4-5.9
			c0.1-2.5-0.1-5.1-0.8-7.5c-1.8-5.8-5.9-9.9-9.7-13.8c-3.1-3.1-6.2-6.4-8.2-10.4c-3.3-6.7-3.1-15.2,0.6-21.1
			c2.4-4.1,6.8-6.6,11.5-6.7c4.2-0.1,8.4,1.4,12.8,3c4.2,1.5,8.4,3.1,13.3,3.5c4,0.4,8-0.4,11.9-1.1c2.8-0.6,5.7-0.9,8.7-1.1
			c6.6-0.3,17.1,1.6,20.8,3.7c3.4,1.9,6.6,5.6,9.9,9.4c3.2,3.7,6.7,7.5,10.8,10.6c2.6,1.8,5.3,3.5,8.2,4.9c3.2,1.7,6.3,3.5,9.3,5.6
			c2.1,1.6,4.1,3.4,6.1,5.2c6.9,6.1,14,12.4,22.3,10.6c0.7-0.1,1.4-0.4,2.1-0.6c3.2-1.2,5.7-4.4,8.2-7.3c2.5-3.1,4.8-6.1,7.7-6.3
			c1.6-0.1,3.3,0.6,5.2,2.5c3.6,6.4-0.7,9.6-5.3,12.9C872.3,91.3,869.8,93.2,868.6,95.5L868.6,95.5z"/>
		<path class="st0" d="M866.5,123.5c-1.1-1.7-2.2-3.5-3.3-5.3c-3.7-6.2-7.5-12.5-12.8-17.2c-1.8-1.5-3.8-2.8-5.8-3.9
			c-2.2-1.3-4.2-2.6-6.3-4.1c-2.8-2.4-5.4-5-7.8-7.8c-2.6-3-5.4-5.8-8.4-8.3c-7.7-5.8-15.8-11.2-24.3-15.9c-1.7-1-3.5-2-5.2-3
			c-7.8-4.6-15.1-9-22.4-10.3c-2.9-0.4-5.9-0.5-8.9-0.3c-2.2,0.1-4.6,0-6.6,0c-2.4-0.1-4.9-0.4-7.6-0.6c-6.6-0.7-13.6-1.4-18.9-0.3
			c-4.1,0.9-7.1,2.8-8.1,6.7s2.3,8.4,6,13.6c1.1,1.5,2.2,3.1,3.2,4.7c2.3,3.6,4.3,7.4,6.1,11.3c3,6.2,5.8,12.2,12.3,17.5
			c6.2,5.1,14.1,7.9,21.7,10.5c10.5,3.6,20.4,7.1,25.1,16.2c1.8,3.5,2.6,7.9,3.4,12.2c0.9,4.6,1.8,9.3,3.9,13
			c4.8,8.1,11.8,12.2,19.5,11.4c3.7-0.4,6.6-2.7,9.6-5.2c2.3-2,4.9-3.7,7.7-5c3.4-1.2,7-0.8,10.7-0.2c5.3,0.7,10.7,1.5,15.8-3.2
			C870.5,144.9,870.9,136.3,866.5,123.5L866.5,123.5z M864.6,149.2c-4.7,4.5-9.7,3.7-15,3c-3.7-0.6-7.6-1.1-11.2,0.3
			c-2.9,1.2-5.6,3-8,5.2c-3,2.4-5.7,4.6-9.1,5c-10.3,1-16.4-7.3-18.6-11c-2.1-3.5-2.9-8.2-3.7-12.7c-0.8-4.3-1.6-8.8-3.4-12.4
			c-4.9-9.5-14.9-13-25.6-16.7c-7.6-2.6-15.4-5.3-21.5-10.4c-6.3-5.2-8.9-10.8-12-17.2c-1.7-3.9-3.9-7.8-6.2-11.4
			c-1.1-1.6-2.2-3.2-3.3-4.7c-3.5-4.8-6.8-9.4-5.9-12.9c2.1-8.2,14.7-6.9,25.9-5.7c2.7,0.2,5.3,0.5,7.6,0.6c2.2,0.1,4.5,0.1,6.7,0
			c2.9-0.2,5.8-0.1,8.8,0.3c7.1,1.4,14.4,5.7,22.1,10.2c1.8,1.1,3.5,2,5.2,3.1c10.3,5.9,18.5,11.2,24.2,15.8c3,2.5,5.7,5.3,8.3,8.3
			c2.4,2.9,5,5.5,7.9,7.8c2.1,1.5,4.2,2.9,6.4,4.2c2,1.1,3.9,2.4,5.7,3.8c5.3,4.6,8.9,10.9,12.7,17c1.1,1.8,2.2,3.6,3.3,5.3
			C870,136.1,869.6,144.5,864.6,149.2L864.6,149.2z"/>
		<path class="st0" d="M832.9,104.8c-5.7-4.2-9.5-9.3-13.1-14.3c-3.3-4.4-6.3-8.6-10.6-12.1c-3.8-2.8-7.7-5.2-12-7.2
			c-2-1-4.1-2.1-6.3-3.3c-2.3-1.3-4.7-2.9-6.9-4.6c-2.9-2.2-6-4.2-9.2-5.7c-6.8-2.9-14.4-3.7-21.8-2.4c-4.5,0.9-8.3,3.1-10.2,6.8
			c-5.4,10.3,4.7,27.8,16.3,34.3c4.6,2.6,10.4,2.7,15.5,2.9c2.7-0.1,5.6,0.2,8.2,0.7c6.2,1.6,9.9,5.5,13.7,9.3c3.1,3.2,6,6.2,10,7.4
			c3.7,1.1,7.4,0.1,11-0.8c2.9-0.7,5.6-1.4,8.2-1.1c4.2,2.5,7.1,7.2,10,11.7c4.8,7.6,9.7,15.4,20.6,13.2h0.1h0.1
			c1.8-0.9,3.1-2.5,3.5-4.4v-0.1c-0.2-12-12.2-20-21.7-26.5C836.3,107.2,834.5,106,832.9,104.8z M859.1,135.1c-0.5,1.6-1.5,3-3,3.7
			c-10.2,2-14.8-5.2-19.4-12.8c-2.9-4.7-6-9.5-10.4-12.1l-0.2-0.1c-2.8-0.3-5.8,0.4-8.7,1.1c-3.5,0.8-7.1,1.7-10.6,0.8
			c-3.8-1-6.6-4-9.7-7.1c-3.6-3.7-7.7-8-14.2-9.6c-2.8-0.5-5.6-0.8-8.4-0.8c-5-0.2-10.6-0.2-15.1-2.8c-11.3-6.3-21.1-23-15.9-33
			c4.3-8.5,21.7-8.2,30.8-3.9c3.2,1.6,6.3,3.5,9.1,5.7c2.2,1.7,4.6,3.2,7,4.7c2.2,1.2,4.4,2.3,6.4,3.2c4.2,2.2,8.2,4.1,11.9,7.1
			c4.2,3.4,7.2,7.5,10.4,11.8c3.6,5.1,7.5,10.2,13.3,14.5c1.6,1.2,3.5,2.4,5.4,3.7C847.1,115.7,858.8,123.6,859.1,135.1z"/>
		<path class="st0" d="M769.5,64.8c-2.1-0.7-4.4-0.8-6.5-0.5c-2.8,0.6-5.3,2.5-6.4,5.2c-2.1,4.6-0.9,9.2,3.1,12.7
			c5.9,5,17.4,7.1,25.9,1.7l0.2-0.1l0.1-0.2C786.9,75.9,777.9,67.2,769.5,64.8z M785,83.3c-8.1,5.1-19.1,3.1-24.6-1.8
			c-3.8-3.3-4.7-7.4-2.8-11.6c2.6-6,8.5-5.3,11.8-4.3C777.1,67.9,785.8,76.3,785,83.3z"/>
		<path class="st0" d="M319.6,75.6c-1.4,0.1-2.6,1.1-3.1,2.4c-0.4,1.1,0,2.3,1,2.9l0.1,0.1c0.8,0.3,1.6,0.8,2.4,1.2
			c3.5,1.7,7.7,3.8,11.3,3.8c0.7,0,1.4-0.1,2.1-0.2l0.6-0.2l-0.4-0.5C331,81.1,325.8,76.3,319.6,75.6z M320.4,81.3
			c-0.8-0.4-1.6-0.8-2.4-1.2c-0.6-0.4-0.8-1.2-0.6-1.9c0.3-1,1.1-1.7,2.1-1.8c5.5,0.6,10.2,4.8,12.9,8.4
			C328.9,85.5,324.2,83.2,320.4,81.3z"/>
		<path class="st0" d="M342,69.1c-1.6-0.9-3.2-1.8-4.7-2.7c-1.3-0.9-2.6-1.8-3.8-2.7c-2.6-1.9-4.8-3.5-7.2-4
			c-10-2.2-20.3,4.1-27.5,16.9v0.1C295,91.4,304,97.4,318,104.8c1.5,0.8,3.1,1.7,4.6,2.6c4.7,2.8,9.3,5.5,14.3,5.5
			c1.4,0,2.8-0.2,4.1-0.6c6-1.7,10.9-7.2,13.1-14.6c2.5-8.3,1.1-17.2-3.5-22.7C348.6,72.8,345.4,71,342,69.1z M353.1,97.4
			c-2.1,7.1-6.8,12.4-12.5,14c-6.4,1.9-11.8-1.4-17.6-4.8c-1.5-0.9-3-1.8-4.6-2.6c-13.6-7.2-22.3-13-18.8-27
			c7-12.3,16.9-18.5,26.5-16.4c2.2,0.5,4.4,2.1,6.9,3.9c1.2,0.9,2.5,1.8,3.9,2.7c1.5,0.9,3.1,1.9,4.7,2.7c3.3,1.8,6.5,3.6,8.2,5.6
			C354.2,80.8,355.5,89.4,353.1,97.4z"/>
	</g>
</g>
</svg>
