<?xml version="1.0"?><svg fill="#FFF" xmlns="http://www.w3.org/2000/svg"  viewBox="0 0 128 128">    <path d="M 63.800781 11.300781 C 62.100781 11.300781 60.800781 12.600781 60.800781 14.300781 L 60.800781 21 C 55.400781 22.3 51.5 27.200391 51.5 32.900391 L 51.5 40.900391 C 51.5 45.300391 49.7 49.500391 46.5 52.400391 C 40.3 57.900391 37.200781 65.8 37.800781 74 C 38.800781 87 49.300391 97.299219 62.400391 98.199219 C 63.000391 98.199219 63.499609 98.300781 64.099609 98.300781 C 71.099609 98.300781 77.699219 95.599609 82.699219 90.599609 C 87.599219 85.499609 90.300781 78.900391 90.300781 71.900391 C 90.300781 64.500391 87.1 57.300391 81.5 52.400391 C 78.1 49.300391 76.099609 44.999609 76.099609 40.599609 L 76.099609 32.900391 C 76.099609 27.100391 72.100781 22.3 66.800781 21 L 66.800781 14.300781 C 66.800781 12.600781 65.500781 11.300781 63.800781 11.300781 z M 63.699219 26.599609 C 65.199219 28.299609 66.199219 30.500391 66.199219 32.900391 L 66.199219 39.199219 L 57.5 39.199219 L 57.5 32.900391 C 57.5 29.500391 60.299219 26.699609 63.699219 26.599609 z M 57.099609 45.099609 L 70.699219 45.099609 C 71.699219 49.499609 74.099609 53.600781 77.599609 56.800781 C 81.899609 60.600781 84.400391 66.100391 84.400391 71.900391 C 84.400391 77.300391 82.300391 82.399219 78.400391 86.199219 C 74.200391 90.299219 68.599219 92.499609 62.699219 92.099609 C 52.699219 91.499609 44.500781 83.5 43.800781 73.5 C 43.300781 67.1 45.8 61.100781 50.5 56.800781 C 53.9 53.800781 56.199609 49.599609 57.099609 45.099609 z M 22 68.900391 C 20.3 68.900391 19 70.200391 19 71.900391 C 19 73.600391 20.3 74.900391 22 74.900391 L 26.699219 74.900391 C 28.399219 74.900391 29.699219 73.600391 29.699219 71.900391 C 29.699219 70.200391 28.399219 68.900391 26.699219 68.900391 L 22 68.900391 z M 101.30078 68.900391 C 99.600781 68.900391 98.300781 70.200391 98.300781 71.900391 C 98.300781 73.600391 99.700781 74.900391 101.30078 74.900391 L 106 74.900391 C 107.7 74.900391 109 73.600391 109 71.900391 C 109 70.200391 107.7 68.900391 106 68.900391 L 101.30078 68.900391 z M 37.636719 95.199219 C 36.874219 95.199219 36.1 95.499609 35.5 96.099609 L 32.199219 99.400391 C 30.999219 100.60039 30.999219 102.49961 32.199219 103.59961 C 32.799219 104.19961 33.600781 104.5 34.300781 104.5 C 35.100781 104.5 35.800391 104.19961 36.400391 103.59961 L 39.699219 100.30078 C 40.899219 99.100781 40.899219 97.199609 39.699219 96.099609 C 39.149219 95.499609 38.399219 95.199219 37.636719 95.199219 z M 90.363281 95.199219 C 89.600781 95.199219 88.850781 95.499609 88.300781 96.099609 C 87.100781 97.299609 87.100781 99.200781 88.300781 100.30078 L 91.599609 103.59961 C 92.199609 104.19961 92.999219 104.5 93.699219 104.5 C 94.499219 104.5 95.200781 104.19961 95.800781 103.59961 C 97.000781 102.39961 97.000781 100.50039 95.800781 99.400391 L 92.5 96.099609 C 91.9 95.499609 91.125781 95.199219 90.363281 95.199219 z M 64 106.09961 C 62.3 106.09961 61 107.39961 61 109.09961 L 61 113.69922 C 61 115.39922 62.3 116.69922 64 116.69922 C 65.7 116.69922 67 115.39922 67 113.69922 L 67 109.09961 C 67 107.39961 65.7 106.09961 64 106.09961 z"/></svg>