<svg xmlns="http://www.w3.org/2000/svg" viewBox="0 0 269.44152 106"><title>Asset 2</title><g id="Layer_2" data-name="Layer 2"><g id="Layer_1-2" data-name="Layer 1"><path d="M60.29868,10.74663A35.10058,35.10058,0,0,0,35.31525.39825h-.00006A35.29978,35.29978,0,0,0,.51762,29.68687q-.02241.12963-.0437.25933A35.591,35.591,0,0,0,.0434,33.98364Q.00053,34.85625,0,35.73a35.30324,35.30324,0,0,0,35.2747,35.33176q.02024,0,.04048,0h.00006A35.3187,35.3187,0,0,0,60.393,60.7134c1.81992-1.81994,2.8276-3.79313,4.82761-5.8748V106h5V36.6676c0-.31248.21154-.625.21154-.93759A35.01672,35.01672,0,0,0,60.29868,10.74663ZM56.26789,56.70181q-.98481.98481-2.04424,1.86333l-.01958.00307a29.64233,29.64233,0,0,1-39.84146-43.81q.98476-.98481,2.04427-1.86333l.01952-.00307a29.64235,29.64235,0,0,1,39.84149,43.81Z"/><path d="M114.20961.39825h-.00006A35.29979,35.29979,0,0,0,79.412,29.68687q-.02239.12963-.0437.25933a35.59559,35.59559,0,0,0-.43052,4.03744q-.04284.87261-.04338,1.74637a35.30324,35.30324,0,0,0,35.27471,35.33175q.02023,0,.04047,0h.00006A35.33178,35.33178,0,0,0,114.25016.39826Q114.2299.39824,114.20961.39825Zm20.95265,56.30356q-.98484.98481-2.04424,1.86333l-.01957.00307a29.64233,29.64233,0,0,1-39.84145-43.81q.98475-.98481,2.04426-1.86333l.01953-.00307a29.64234,29.64234,0,0,1,39.84148,43.81Z"/><path d="M265.33943,38h4.01086c.06064-1,.091-1.55862.091-2.40761a35.016,35.016,0,0,0-10.28449-24.91456A35.66426,35.66426,0,0,0,234.22064.41805V.40815a34.26121,34.26121,0,0,0-25.0307,10.34344,35.16715,35.16715,0,0,0-9.83783,18.93775c-.01494.08641-.04128.1716-.05553.2581a35.59744,35.59744,0,0,0-.43645,4.03684c-.02856.58172-.04634,1.16373-.04634,1.746a35.30063,35.30063,0,0,0,35.2697,35.33152q.02166,0,.04331,0h-.00031a35.03392,35.03392,0,0,0,24.98329-10.27866A35.74013,35.74013,0,0,0,268.49852,44h-5.88a27.657,27.657,0,0,1-7.53973,12.77158c-.65651.65651-1.3393,1.24213-2.04421,1.82844l-.01957-.01437A29.70556,29.70556,0,0,1,204.62184,38h60.71759Zm-52.166-23.0868c.65649-.65651,1.33929-1.3545,2.04426-1.94082l.01953-.04182a29.473,29.473,0,0,1,39.83193,2.021A28.737,28.737,0,0,1,263.583,33H204.6634a28.764,28.764,0,0,1,8.51006-18.0868Z"/><path d="M194.22064.39859a34.46017,34.46017,0,0,0-25.09741,10.348c-1.83043,1.83044-3.90259,3.81621-4.90259,5.91121V0h-6V71h6V35.72539c0,.00636.05147.0111.05147.0111a29.67216,29.67216,0,0,1,8.79762-20.97828c.65651-.65654,1.34888-1.277,2.05383-1.86333l.02431-.06464A29.552,29.552,0,0,1,194.00322,6h.21742Z"/></g></g></svg>