<?xml version="1.0" encoding="utf-8"?>
<!-- Generator: Adobe Illustrator 22.0.0, SVG Export Plug-In . SVG Version: 6.00 Build 0)  -->
<svg version="1.1" id="Layer_1" xmlns="http://www.w3.org/2000/svg" xmlns:xlink="http://www.w3.org/1999/xlink" x="0px" y="0px"
	 viewBox="0 0 959.6 488.3" style="enable-background:new 0 0 959.6 488.3;" xml:space="preserve">
<style type="text/css">
	.st0{opacity:.3;fill:#FFFFFF;enable-background:new;}
</style>
<title>Asset 3s</title>
<g id="Layer_2_1_">
	<g id="Layer_1-2">
		<path class="st0" d="M322.6,5.8c0.8,6.4,1.6,12.4-1.2,18.2c-3.5,7.2-12.2,13.6-20.6,15.3c-6.2,1.4-12.7-0.2-17.4-4.4
			c-5.8-5-7-14.1-8.2-22.9c-0.5-4-1.2-8-2.2-11.9h-1c1,4,1.7,8,2.2,12.1c1.2,8.9,2.5,18.2,8.5,23.5c5,4.4,11.8,6.1,18.2,4.6
			c8.7-1.7,17.6-8.4,21.3-15.8c2.9-6,2.1-12.4,1.2-18.7c-0.2-1.9-0.5-3.7-0.6-5.6H322C322.1,1.9,322.4,3.9,322.6,5.8z"/>
		<path class="st0" d="M330.3,0c-0.2,2.4-0.1,4.8-0.1,7.2c0,4.9,0.1,9.4-1.3,14c-2.7,8.8-12.6,20.8-20,24.2
			c-7.9,3.6-24.8,0.3-32-4.9c-6.2-4.5-7.2-10.7-8.2-17.3c-0.6-4-1.3-8.2-3.2-12c-1.6-2.8-3.5-5.3-5.9-7.5c-1.2-1.2-2.3-2.4-3.3-3.7
			h-1.2c1.2,1.5,2.4,3,3.8,4.3c2.3,2.1,4.2,4.6,5.7,7.2c1.8,3.7,2.5,7.8,3.1,11.7c1,6.5,2.1,13.2,8.6,17.9c7.5,5.4,24.8,8.8,33,5
			c7.6-3.5,17.8-15.7,20.5-24.7c1.4-4.7,1.4-9.6,1.3-14.3c0-2.4,0-4.8,0.1-7.2L330.3,0z"/>
		<path class="st0" d="M710.2,17.5c0.9,3.2,0.8,5.4-0.3,6.4c-2.5,2.2-9.8-1.2-14.7-3.3c-1.6-0.7-3-1.3-4-1.7
			c-1.5-0.5-2.9-0.9-4.4-1.2c-1.6-0.4-3.4-0.8-5.3-1.4c-5.2-1.7-10.3-3.7-15.2-6c-4.6-2-8.5-3.7-10.9-4.2c-3.8-0.7-8.5,0.4-13.5,1.5
			c-4.1,0.9-8.3,1.9-11.9,1.8c-4.7-0.1-9.4-2.7-13.9-5.3C613,2.3,610,0.7,607.2,0H603c-2.4,0.8-5.1,3.3-8.2,6.2
			c-6.3,5.9-13.3,12.5-20.5,7.5c-4.4-3.1-4.9-8.2-5.1-13.8h-0.9c0.2,5.6,0.7,11.2,5.5,14.5c7.7,5.4,15.4-1.8,21.6-7.6
			c3.3-3.1,6.4-6,8.8-6.3c3.2-0.3,7.2,1.9,11.5,4.2c4.6,2.6,9.5,5.3,14.4,5.4c3.7,0.1,8-0.9,12.1-1.9c4.9-1.1,9.5-2.2,13.1-1.5
			c2.3,0.5,6.2,2.2,10.7,4.2c5,2.3,10.1,4.4,15.3,6.1c1.9,0.6,3.7,1,5.4,1.4c1.7,0.4,3.2,0.8,4.3,1.1c1,0.4,2.4,1,3.9,1.7
			c5.4,2.4,12.7,5.7,15.6,3.2c1.5-1.3,1.6-3.7,0.5-7.4L711,17c-5.2-6.4-6.6-11.2-7.6-17h-1C703.5,6,704.8,10.8,710.2,17.5z"/>
		<path class="st0" d="M642.8,0h-4.7c-4.6,0.8-9,1.3-12.5,0.1c-0.1,0-0.2-0.1-0.2-0.1h-2.2c0.7,0.4,1.4,0.7,2.1,1
			C630.1,2.6,636.6,1.3,642.8,0z"/>
		<path class="st0" d="M314.1,10.4c0.8,5.6,0.8,8.1-1,11.6c-3.8,7.3-10.1,10.4-17,8.1c-6.5-2.1-12.6-9.3-11.2-17.5
			c1.1-6.7,7-11.2,13-12.6h-3.2c-5.2,2.1-9.8,6.5-10.7,12.5c-1.4,8.7,5,16.3,11.9,18.5c7.4,2.4,14.1-0.8,18.1-8.6
			c1.9-3.8,2-6.5,1.1-12.2v0c-0.9-4.9-3.4-8.4-7.1-10.2h-2.6C309.9,1.2,313.1,4.9,314.1,10.4z"/>
		<path class="st0" d="M250.7,11.1c1.1,1.2,2.2,2.5,3.1,3.9c1.9,3.1,2.3,5.6,2.7,8.8c0.3,2.2,0.7,4.5,1.3,6.7
			c4.4,17,24.1,20.6,39.9,23.4l1.4,0.3c15.4,2.8,18.2-1.2,25.1-11.1l1.1-1.6c6.1-8.5,10.1-18.4,11.6-28.8c0.3-1.9,0.5-3.7,0.8-5.4
			c0.3-2.6,0.6-4.9,1-7.2h-1c-0.4,2.2-0.7,4.6-1,7.1c-0.2,1.7-0.5,3.5-0.7,5.4c-1.5,10.3-5.4,20-11.5,28.4l-1.1,1.6
			c-6.8,9.7-9.4,13.4-24.2,10.7l-1.3-0.2c-15.6-2.8-34.9-6.4-39.2-22.8c-0.5-2.2-1-4.3-1.3-6.5c-0.5-3.3-0.9-5.9-2.9-9.2
			c-1-1.4-2-2.7-3.2-4c-2.3-2.6-4.9-5.5-5.7-8.2c-0.2-0.7-0.4-1.5-0.4-2.3h-0.9c0.1,0.9,0.2,1.7,0.5,2.5
			C245.8,5.4,248.4,8.4,250.7,11.1z"/>
		<path class="st0" d="M571.7,26.1c6,2.9,11.6-0.1,17.6-3.2c3.7-1.9,7.6-3.9,11.9-4.9c4.2-0.9,8.7,0.1,13.9,1.3
			c6.2,1.4,13.3,3,21.4,1.5c2-0.4,3.9-1,5.8-1.7c5.3-1.7,11.2-3.7,20-1.5c4.5,1.2,9.6,3.6,15.1,6.3c3,1.5,6.2,3,9.3,4.3
			c1.7,0.7,3.3,1.4,5,2.1c6.9,2.8,14,5.6,18.1,9.9c2.3,2.3,4.2,5.1,5.6,8.1c1.4,2.7,2.5,4.9,6.5,7c6.6,3.4,17.7,2.3,22.6-0.9
			c5-3.3,10.1-8.7,15.6-16.3c4.6-6.4,6.8-14,9-21.3c1.7-5.6,3.4-11.4,6.2-16.8h-1.1c-2.5,5.3-4.5,10.8-6,16.5
			c-2.2,7.6-4.3,14.7-8.9,21c-5.4,7.5-10.4,12.8-15.4,16c-4.6,3.1-15.3,4.2-21.6,0.9c-3.8-1.9-4.8-3.9-6.1-6.6
			c-1.4-3.1-3.4-5.9-5.8-8.3c-4.2-4.4-11.5-7.3-18.5-10.1c-1.7-0.7-3.4-1.4-5-2.1c-3.1-1.3-6.2-2.8-9.3-4.3
			c-5.5-2.7-10.6-5.2-15.2-6.3c-9-2.3-15.2-0.3-20.6,1.5c-1.9,0.7-3.8,1.2-5.7,1.6c-7.9,1.5-14.9-0.1-21.1-1.4
			c-5.1-1.2-9.9-2.3-14.3-1.3c-4.4,0.9-8.4,3-12.2,5c-6,3.1-11.2,5.8-16.8,3.1c-7.6-3.7-9.6-13.2-11.5-22.5
			c-0.2-0.9-0.4-1.9-0.6-2.8h-1c0.2,1,0.4,2,0.6,3C561.6,12.4,563.6,22.2,571.7,26.1z"/>
		<path class="st0" d="M140,2.4c2.7,3,5.5,6.1,9.9,6.9l0.1,0l0.1,0c5.1-0.8,9.4-4.4,11.3-9.2c0,0,0,0,0-0.1h-1
			c-1.8,4.4-5.7,7.6-10.4,8.4c-4.1-0.9-6.6-3.7-9.3-6.7c-0.5-0.6-1.1-1.2-1.6-1.7h-1.3C138.5,0.8,139.2,1.6,140,2.4z"/>
		<path class="st0" d="M690.7,4.9c1.7-1.2,3-2.9,3.8-4.9h-1c-0.7,1.6-1.9,3.1-3.3,4.1c-6.7,5.1-14.7,0.9-21.8-2.7
			c-1-0.5-1.9-1-2.9-1.4h-2.2c1.5,0.7,3.1,1.5,4.7,2.3C675.2,6,683.5,10.2,690.7,4.9z"/>
		<path class="st0" d="M92,6.7l0.1,0.1c4.5,2.3,8.3,0.3,12.4-1.7c4.3-2.1,9.1-4.6,15.9-3.1c5.7,1.3,10,5,14.1,8.5
			c5.1,4.4,10,8.6,16.8,7.1c9.2-2.1,13.7-9.8,17.8-17.6h-1.1c-3.9,7.5-8.3,14.8-16.9,16.7c-6.4,1.4-10.9-2.4-16-6.9
			c-4.2-3.6-8.5-7.4-14.5-8.7c-7.1-1.6-12.1,0.9-16.6,3.1c-4,2-7.4,3.8-11.4,1.8c-0.9-1.9-1.5-3.9-1.5-6h-1c0.1,2.3,0.6,4.5,1.7,6.5
			L92,6.7z"/>
		<path class="st0" d="M725,5.6L725,5.6c-4.7,0-8.8-3.1-11.4-5.6h-1.3c2.7,2.9,7.3,6.5,12.6,6.5h0.1c3.4,0,9.9-2.8,15.8-6.5H739
			C733.6,3.2,728,5.6,725,5.6z"/>
		<path class="st0" d="M379.2,117.1c-1.5-3.4-2-7.2-2.5-10.9c-0.6-4.9-1.3-10-4.3-14.1l-0.1-0.1l-0.1,0c-2.6-0.9-5.3-1.4-8-1.4
			c-10.9,0-20.8,7.5-30.5,14.7c-4.4,3.5-9.1,6.7-14,9.6c-1.4,0.8-2.9,1.5-4.3,2.2c-3.1,1.5-5.8,2.8-7,4.3
			c-6.6,7.6-7.1,23.8-0.9,29.9c5.1,5,30.6,6.8,41.1,4c9.6-2.6,22.9-11.2,28.7-22C380.3,127.8,380.9,122.3,379.2,117.1L379.2,117.1z
			 M376.5,132.9c-5.7,10.6-18.7,19-28.1,21.5c-10.1,2.7-35.4,1-40.2-3.7c-5.9-5.8-5.4-21.4,1-28.7c1.2-1.3,3.9-2.7,6.8-4.1
			c1.4-0.7,2.9-1.4,4.3-2.3c4.9-2.9,9.6-6.1,14.1-9.7c11.7-8.8,23.8-17.9,37.5-13.2c2.8,3.9,3.4,8.6,4,13.5c0.5,3.8,1,7.7,2.5,11.2
			C379.9,122.4,379.3,127.6,376.5,132.9L376.5,132.9z"/>
		<path class="st0" d="M752.9,7.9l-0.5-0.2l-0.1,0c-6.2,1-8.8,6-11.2,10.7c-1.1,2.4-2.5,4.6-4.2,6.6c-2,2-4.3,3.6-6.9,4.6
			c-2.7,1.1-5.1,2.6-7.1,4.6l-0.1,0.2c-1.8,5.1-0.3,8.5,1.3,10.4c2.5,2.8,6.2,4.1,9.8,3.5c5.6-1,15.2-11.1,20.1-21.3
			c2.4-4.9,4.7-11.9,2.1-17C755.8,8.7,754.1,8.2,752.9,7.9z M753.3,26.7c-4.8,9.7-14.2,19.8-19.5,20.7c-0.5,0.1-1,0.1-1.5,0.1
			c-2.8,0-5.6-1.2-7.5-3.3c-1.4-1.7-2.8-4.7-1.2-9.4c2-1.9,4.3-3.3,6.8-4.3c2.7-1.1,5.2-2.7,7.2-4.8c1.7-2.1,3.2-4.4,4.3-6.8
			c2.4-4.7,4.8-9.2,10.5-10.2l0.2,0.1c1.1,0.3,2.4,0.7,2.6,1.7l0,0.1C757.3,14.2,756.6,19.9,753.3,26.7z"/>
		<path class="st0" d="M403.6,42.4c2.3-0.9,4.7-1.8,5.2-3.5c0.2-1-0.1-2-0.7-2.7c-2.3-3.5-7.1-3.5-11.8-3.5c-1.6,0.1-3.2,0-4.8-0.1
			c-1.4-0.2-2.7-0.5-4.1-0.9c-1.3-0.4-2.6-0.7-4-0.8c-0.9,0-1.9,0.2-2.7,0.6c-5.3,2.3-10.2,13.5-13.5,20.9l-0.8,1.7
			c-1,2.5-1.9,5.1-2.5,7.8c-0.9,3.2-1.7,6.3-3.3,8.6c-2.1,2.9-5.4,4.9-9,7.1c-1.8,1.1-3.6,2.2-5.4,3.5c-1.9,1.4-3.7,2.8-5.4,4.2
			c-2.4,2.1-5.1,4-7.9,5.7c-4.7,2.2-9.3,2.6-13.8,3c-4.6,0.4-8.9,0.8-12.7,3.1c-9.6,5.8-19.5,27.9-21.2,36
			c-4.6,21.5,7.8,46,21.8,53.6c8.2,4.4,26.9,1.9,40.4-1.6c9.8-2.5,23.7-11.7,31.6-20.9c2-2.3,3.8-4.9,5.6-7.4
			c4.5-6.2,9.1-12.7,16.5-15.8l0.1-0.1l0.1-0.2c4.3-8.3,4.5-18,4.7-27.4c0.1-3.1,0.1-6,0.3-8.9l0-0.2l-0.2-0.2
			c-22.7-16.7-13.7-44.5-6.3-59.6C401,43.4,402.2,42.8,403.6,42.4z M399,43.8c-7.5,15.3-16.7,43.5,6.3,60.7
			c-0.2,2.8-0.3,5.8-0.3,8.7c-0.2,9.2-0.4,18.7-4.5,26.8c-7.6,3.3-12.2,9.8-16.7,16c-1.8,2.5-3.6,5-5.6,7.3
			c-7.8,9.1-21.5,18.2-31.1,20.7c-13.3,3.5-31.7,6-39.7,1.7c-12.2-6.6-26.3-29.8-21.4-52.6c1.7-8,11.4-29.8,20.8-35.4
			c3.6-2.2,7.9-2.6,12.3-3c4.6-0.4,9.3-0.8,14.1-3.1c2.4-1.2,5.1-3.4,8-5.8c1.7-1.4,3.5-2.9,5.4-4.2c1.7-1.2,3.5-2.3,5.3-3.4
			c3.7-2.2,7.1-4.3,9.3-7.4c1.7-2.4,2.6-5.6,3.5-8.9c0.6-2.6,1.4-5.2,2.5-7.6l0.7-1.7c3.2-7.3,8-18.3,13-20.4
			c2.1-0.9,3.9-0.4,6.1,0.3c1.4,0.4,2.8,0.7,4.2,0.9c1.1,0.1,2.2,0.1,3.3,0.1c0.6,0,1.1,0,1.7,0c4.4-0.1,9-0.1,11,3l0,0
			c0.5,0.5,0.7,1.2,0.6,2c-0.4,1.3-2.5,2.1-4.6,2.9c-1.5,0.5-2.9,1.2-4.1,2.2L399,43.8z"/>
		<path class="st0" d="M928,1.6L928,1.6c5.6,7.2,0.2,11.8-5,16.2c-1.7,1.3-3.2,2.8-4.6,4.5c-1.5,2-2.5,5-3.7,8.2
			c-1.8,5.3-3.9,11.3-8.4,13.2c-1,0.4-2.1,0.6-3.2,0.6c-2.4-0.1-4.7-0.7-6.8-1.8c-3.1-1.5-4.5-3.8-6.4-6.9c-1.4-2.4-2.9-4.6-4.7-6.8
			c-2.3-2.7-4.8-5.1-7.6-7.3c-5.3-4.4-9.5-8-8.4-15.6c0.3-2,0.9-4,1.7-5.8h-1c-0.8,1.8-1.3,3.7-1.6,5.7c-1.2,8.2,3.4,12,8.7,16.5
			c2.7,2.1,5.2,4.6,7.5,7.2c1.7,2.1,3.2,4.3,4.6,6.7c1.9,3.1,3.5,5.6,6.8,7.2c4.3,2,7.9,2.5,10.8,1.2c4.9-2,7-8.2,8.9-13.8
			c1.1-3.1,2.1-6.1,3.5-8c1.3-1.6,2.8-3,4.4-4.3c5-4.3,11.2-9.6,5.2-17.4c-0.2-0.4-0.4-0.8-0.6-1.2h-1C927.5,0.6,927.8,1.1,928,1.6z
			"/>
		<path class="st0" d="M906.1,1.3c1,6.6-2.2,13.9-7.1,16.1c-6.1,2.8-12.6-1.2-15.3-6.6c-1.7-3.3-2-7.6,1-10.8h-1.2
			c-2.7,3.5-2.2,7.9-0.6,11.2c2.9,5.8,9.9,10,16.5,7c5.3-2.4,8.7-10.3,7.6-17.4l-0.1-0.2l-0.2-0.1c-0.3-0.2-0.7-0.4-1-0.6h-2
			C904.5,0.4,905.3,0.8,906.1,1.3z"/>
		<path class="st0" d="M604.4,138.6c-2.5-4.2-2.6-10.9-0.2-19.7c0.6-1.8,1.3-3.6,2.1-5.3c1.7-3.7,3.5-7.6,2.2-11.9l0-0.2l-0.2-0.1
			c-1.6-0.8-3.3-1.2-5.1-1.3c-3.8,0-6.9,2.3-10.1,4.7c-2.4,1.9-5,3.5-7.8,4.7c-4.6,1.8-10.5,1.8-16.9,1.9c-3,0-6.2,0.1-9.1,0.3
			c-1.6,0.1-3.3,0.2-4.9,0.3c-6.7,0.5-13.6,0.9-19.8,2.6c-2.2,0.7-4.4,1.4-6.5,2.3c-2.3,1-4.7,1.8-7.2,2.6c-1.8,0.5-3.7,0.9-5.5,1.2
			c-3.5,0.6-6.8,1.2-9.1,3c-6.7,4.9-11.5,20.4-8.7,28.1c1.6,4.4,4,7.3,7.3,8.7c6.7,2.9,15.7-0.9,23.7-4.3c2-0.9,3.9-1.7,5.7-2.3
			c9.7-3.6,19-6.6,27.2-4.2c2.5,0.9,4.8,2.1,7,3.7c1.6,1.1,3.3,2.1,5,3c1.5,0.7,3,1.3,4.6,1.7c1.6,0.5,3.2,1.1,4.7,2
			c6.6,4.1,14.8,12.6,20,20.7c3,4.7,4.8,9.6,6.8,14.8c2.7,7.2,5.4,14.6,11.6,21.9c3.8,4.5,8.4,9.3,13.2,14.3
			c4,4.2,8.2,8.5,11.9,12.7c2.1,2.4,4,5,5.8,7.6c4.3,6.2,8.4,12,16,13.2l0,0l0.1,0c8-1.1,11.6-9.7,15.1-18c1.3-3.4,2.9-6.6,4.6-9.8
			c1.2-2,2.7-3.9,4-5.7c4.1-5.5,8-10.6,6.4-18.7c-0.2-8.5-8-10.4-15.6-12.2c-3.9-1-8-1.9-10.8-3.9c-2.7-1.9-5-5.7-7.4-9.7
			c-2.5-4.2-5.5-9-9.4-12.5c-2.8-2.4-5.9-4.4-9.2-6.1c-2.7-1.4-5.2-3.1-7.6-5c-1.3-1.3-2.5-2.7-3.6-4.2c-2.1-2.7-4.5-5.7-7.6-7.9
			c-3.5-2.3-7.2-4.2-11.2-5.6C611.1,143.9,606.3,141.9,604.4,138.6z M626.8,152.4c2.8,2.2,5.3,4.8,7.4,7.8c1.1,1.5,2.4,3,3.7,4.3
			c2.4,2,5,3.7,7.8,5.1c3.2,1.7,6.2,3.7,9,6c3.8,3.4,6.7,8.2,9.2,12.3c2.5,4.1,4.9,8,7.7,10c2.9,2,7.1,3,11.1,4
			c7.6,1.8,14.7,3.5,14.9,11.3v0.1c1.5,7.7-2.3,12.7-6.3,18c-1.4,1.8-2.8,3.7-4,5.8c-1.8,3.2-3.4,6.5-4.7,9.9
			c-3.4,8-6.9,16.3-14.3,17.4c-7.2-1.2-11-6.5-15.3-12.8c-1.8-2.7-3.8-5.3-5.9-7.7c-3.8-4.2-7.9-8.6-11.9-12.7
			c-4.8-5-9.3-9.7-13.2-14.2c-6.1-7.1-8.8-14.5-11.5-21.6c-2-5.3-3.8-10.2-6.8-15c-5.3-8.2-13.6-16.8-20.3-21
			c-1.6-0.9-3.2-1.6-4.9-2c-1.5-0.5-3-1-4.4-1.7c-1.7-0.9-3.4-1.9-5-2.9c-2.2-1.6-4.6-2.8-7.2-3.8c-8.5-2.5-18,0.6-27.8,4.2
			c-1.8,0.7-3.7,1.5-5.8,2.4c-7.8,3.3-16.6,7-22.9,4.3c-3.1-1.3-5.3-4-6.8-8.2c-2.7-7.4,1.9-22.3,8.3-27c2.2-1.6,5.4-2.2,8.7-2.8
			c1.8-0.3,3.7-0.7,5.6-1.2c2.5-0.7,4.9-1.6,7.3-2.6c2.1-0.9,4.2-1.6,6.4-2.3c6.1-1.7,13-2.1,19.6-2.6c1.6-0.1,3.3-0.2,4.9-0.3
			c3-0.2,6.1-0.3,9.1-0.3c6.4-0.1,12.5-0.1,17.3-2c2.9-1.3,5.5-2.9,7.9-4.8c4.4-3.3,8.2-6.1,14-3.4c1.1,3.9-0.5,7.3-2.2,11
			c-0.9,1.7-1.6,3.6-2.2,5.4c-2.4,9.1-2.3,15.9,0.3,20.4c2.1,3.6,7.1,5.6,12.3,7.8C619.7,148.3,623.4,150.1,626.8,152.4L626.8,152.4
			z"/>
		<path class="st0" d="M666,298.5h-0.2c-3.6,0.1-9.7,1.5-10.5,10.6c-0.6,7,6,18.6,13.7,20.9c4.5,1.3,11.3-0.6,15.6-4.5
			c3-2.7,4.3-5.9,3.7-9.1C687.1,306.9,674.9,298.5,666,298.5z M687.3,316.6c0.7,3.7-1.5,6.5-3.4,8.3c-3.3,2.9-7.5,4.5-11.9,4.7
			c-1,0-1.9-0.1-2.8-0.4c-7.1-2.1-13.6-13.4-13-19.9c0.6-6.2,3.9-9.7,9.6-9.8h0.2C674.5,299.5,686.2,307.4,687.3,316.6L687.3,316.6z
			"/>
		<path class="st0" d="M620.9,103.9c3.2-7.5,6.5-15.2,6.4-22.2v-0.5l-0.5,0.1c-4.6,0.5-8.9,2.3-12.9,4.1c-2.1,0.9-4.2,1.8-6.4,2.6
			c-3.9,1.2-7.8,2.2-11.8,3c-4.2,0.8-8.3,1.8-12.3,3.1c-2.9,1.1-5.7,2.5-8.3,4.2c-2.5,1.6-5.2,3-8,4.1c-5.2,1.8-10.7,2.7-16.2,2.9
			c-2.5,0-5-0.1-7.5-0.5c-3.2-0.5-6.5-0.6-9.7-0.3c-3.3,0.6-6.4,1.7-9.3,3.3c-2,1-4.1,1.9-6.3,2.5c-2.7,0.5-5.4,0.6-8.2,0.3
			c-4-0.2-7.9-0.4-10.7,1.5c-5.3,3.6-11.2,23.4-13.8,31.9l-0.1,0.4c-0.9,3.1-1.6,6.2-2.3,9.2c-1,4.9-2.3,9.6-4,14.3
			c-0.3,0.9-0.9,2.1-1.4,3.3c-2.6,5.7-6.2,13.5-2.3,18.8c1.9,2.6,8.7,6.1,14.2,4c2.7-1,5-3.8,7.2-6.4c1.3-1.7,2.8-3.2,4.4-4.5
			c1.9-1.2,3.9-2.3,6-3.1c2.6-1,5.1-2.3,7.5-3.9c2.4-1.8,4.6-3.9,6.6-6.1c2-2.2,4.2-4.2,6.6-5.9c8.5-5.6,15.6-7.7,22.5-6.7
			c3.1,0.4,6.6,2.1,9.9,3.7c1.9,0.9,3.9,1.8,5.8,2.6c1.7,0.6,3.4,1.2,5.1,1.7c3.7,1.1,7.2,2.2,10.3,4.3c4.9,3.4,12.5,11.8,15.6,16.7
			c2.1,3.6,3.8,7.3,5.2,11.2c1.9,5.1,4.2,10,7,14.7c5.1,7.9,12,14.9,18.8,21.6c7,7,13.6,13.6,17.8,20.9c1.2,2.2,2.2,4.4,3.1,6.7
			c1.7,4.3,3.5,8.8,6.6,11.8c2.4,2.4,5.2,3.6,7.9,4.7c1.9,0.7,3.7,1.6,5.3,2.7c1.5,1.1,2.9,2.3,4.2,3.7c3.1,3,6.2,6,11.8,7l0.1,0
			l0.1,0c7.2-1.5,9.4-4.9,10.5-7.4c2.1-5-0.8-10.2-3.6-15.3c-2-3.6-3.8-6.9-4.1-10.1c-0.6-8.2,4-14.9,8.9-22
			c5.7-8.4,11.7-17.1,8.3-28.2c-0.3-3.4-2.1-6.3-3.9-9.4c-1.5-2.3-2.7-4.7-3.7-7.3c-0.8-2.4-1.4-4.9-1.8-7.4
			c-1.2-6.3-2.3-11.7-9.9-14.9c-3.9-1.7-7.8-0.8-11.7,0c-2.4,0.6-4.9,0.9-7.4,0.9c-5-0.4-14.2-5-19.2-9c-2.7-2.3-5.1-4.9-7.2-7.7
			c-2.7-3.5-5.7-6.7-9.1-9.6c-1.7-1.2-3.5-2.3-5.4-3.3c-3.3-1.8-6.7-3.6-8.3-6.1c-2.5-3.7-3.2-8.8-2-15
			C616.3,114.8,618.6,109.3,620.9,103.9z M616.6,135.4c1.8,2.6,5.3,4.5,8.6,6.4c1.8,0.9,3.6,2,5.3,3.2c3.3,2.8,6.3,5.9,8.9,9.4
			c2.2,2.9,4.6,5.5,7.3,7.8c5.2,4.1,14.4,8.7,19.7,9.2c0.4,0,0.7,0,1.1,0c2.2-0.1,4.5-0.4,6.6-1c3.7-0.8,7.5-1.6,11.1-0.1
			c7.2,3,8.1,8,9.4,14.2c0.4,2.6,1.1,5.1,1.9,7.5c1,2.6,2.2,5.1,3.7,7.5c1.8,3,3.5,5.9,3.8,9.1l0,0.1c3.3,10.7-2.5,19.2-8.2,27.4
			c-4.7,7-9.7,14.1-9.1,22.6c0.3,3.4,2.3,7,4.2,10.4c2.7,4.9,5.5,9.9,3.6,14.5c-1,2.4-3,5.4-9.7,6.8c-5.2-0.9-8.3-3.9-11.2-6.7
			c-1.3-1.4-2.8-2.6-4.4-3.8c-1.7-1.1-3.6-2-5.5-2.8c-2.6-1.1-5.4-2.3-7.6-4.5c-2.9-2.9-4.7-7.2-6.4-11.5c-0.9-2.3-1.9-4.6-3.1-6.8
			c-4.3-7.4-10.9-14.1-17.9-21.1c-6.7-6.7-13.6-13.6-18.6-21.5c-2.8-4.6-5.1-9.5-6.9-14.5c-1.4-3.9-3.2-7.7-5.3-11.4
			c-3.2-5-10.8-13.5-15.9-16.9c-3.2-2.2-7-3.3-10.6-4.5c-1.7-0.5-3.4-1-5-1.6c-1.9-0.7-3.9-1.6-5.7-2.5c-3.4-1.6-6.9-3.3-10.2-3.7
			c-7.1-1-14.5,1.2-23.2,6.8c-2.5,1.7-4.7,3.8-6.7,6c-2,2.2-4.2,4.2-6.5,6c-2.3,1.5-4.7,2.8-7.3,3.8c-2.2,0.8-4.3,1.9-6.2,3.2
			c-1.7,1.4-3.2,2.9-4.5,4.7c-2.1,2.5-4.3,5.2-6.8,6.1c-5,1.9-11.4-1.3-13.1-3.7c-3.5-4.9-0.1-12.4,2.4-17.9
			c0.6-1.2,1.1-2.3,1.4-3.3c1.7-4.7,3.1-9.5,4-14.4c0.7-3,1.3-6.1,2.3-9.2l0.1-0.3c2.3-7.6,8.4-27.9,13.4-31.4
			c2.5-1.7,6.2-1.5,10.1-1.3c2.8,0.3,5.7,0.2,8.5-0.4c2.2-0.6,4.4-1.5,6.4-2.6c2.8-1.5,5.9-2.6,9.1-3.2c3.2-0.3,6.3-0.2,9.5,0.3
			c2.5,0.4,5.1,0.5,7.6,0.5c5.6-0.1,11.2-1.1,16.5-2.9c2.8-1.1,5.6-2.5,8.2-4.2c2.6-1.6,5.3-3,8.1-4.1c4-1.3,8-2.3,12.2-3.1
			c4-0.8,8-1.8,11.9-3c2.2-0.8,4.4-1.7,6.5-2.6c4-1.7,7.9-3.4,12.2-4c-0.1,6.7-3.2,14.1-6.3,21.3c-2.3,5.4-4.6,10.9-5.7,16
			C613.2,126.1,613.9,131.4,616.6,135.4z"/>
		<path class="st0" d="M638.3,295.3l-0.1-0.1H638c-4.2,0.4-7,3.4-9.7,6.2c-0.9,1-1.9,2-2.9,2.9c-0.9,0.8-2,1.6-3.2,2.4
			c-3.9,2.7-8.7,6.1-8.7,11.7c0,6.7,7.4,12.3,14.5,13.8c6.7,1.4,12-0.7,14.3-5.8l0-0.1c0.1-1.1,0.2-2.3,0.4-3.6
			C643.6,312.7,644.9,300.1,638.3,295.3z M641.6,322.7c-0.1,1.2-0.2,2.4-0.4,3.5c-2.1,4.6-7.1,6.5-13.3,5.2
			c-6.6-1.4-13.7-6.8-13.7-12.9c0-5.1,4.4-8.2,8.3-10.9c1.2-0.9,2.4-1.7,3.3-2.5c1-0.9,2-1.9,3-2.9c2.6-2.7,5.3-5.5,9-5.9
			C643.9,300.8,642.6,313.4,641.6,322.7z"/>
		<path class="st0" d="M675.1,115.2c-1.2-1.6-3.1-2.6-5.1-2.6c-0.4,0-0.9,0-1.3,0.1c-3.3,0.7-6.7,4.1-7.9,8.2
			c-1,3.4-0.4,6.5,1.7,8.7l0.2,0.1c3.9,1.7,8.7-1,11.4-4.6C676.8,121.5,677.2,117.7,675.1,115.2L675.1,115.2z M673.4,124.4
			c-2.4,3.2-6.8,5.8-10.3,4.4c-1.8-1.9-2.3-4.6-1.4-7.7c1.1-3.8,4.1-6.9,7.2-7.5c2.1-0.4,4.2,0.4,5.4,2.2
			C676.5,118.4,675.3,122,673.4,124.4z"/>
		<path class="st0" d="M467.2,4.5c1.9,10.5-10.8,16.2-20.1,20.3c-1.7,0.8-3.3,1.5-4.7,2.1c-4.1-1.2-4.1-4.6-4.1-8.7
			c0-2.4,0-4.9-1-6.8c-1.1-1.8-2.5-3.3-4.3-4.3c-1.6-1.2-3.1-2.2-3.9-3.9c0.2-1.1,0.6-2.2,1-3.2h-1c-0.4,1-0.7,2.1-0.9,3.2l0,0.2
			l0.1,0.1c1,1.8,2.5,3.3,4.3,4.4c1.7,1,3,2.3,4,4c0.9,1.7,0.9,4.1,0.9,6.4c0,4.1-0.1,8.3,5,9.6l0.2,0.1l0.2-0.1
			c1.4-0.7,3.1-1.4,4.8-2.2c9.6-4.3,22.8-10.2,20.6-21.5l0-0.1L468,3.9c-1.5-1.4-3.1-2.7-4.7-3.9h-1.6
			C463.6,1.4,465.5,2.9,467.2,4.5z"/>
		<path class="st0" d="M361.9,105.4l-0.1-0.1c-2-1.6-3.6-2.3-5.1-2.3c-2.9,0-5.1,2.6-7.4,5.3c-1.4,1.7-2.9,3.3-4.6,4.7
			c-3,2.2-7.8,4.5-12.4,6.8c-6.2,3.1-12.1,5.9-14.3,8.6c-4,5-4.4,9.8-1,12.9c4.1,3.7,12.7,3.6,18.9-2.5c3.6-3.5,5.4-8.1,7-12.5
			c1.4-3.7,2.7-7.2,5.1-9.7c1.6-0.6,3.2-1,4.8-1.3c3.7-0.8,7.9-1.7,9.3-4.4c0.7-1.5,0.6-3.2-0.3-5.4L361.9,105.4z M361.5,110.5
			c-1.2,2.3-5.1,3.2-8.7,3.9c-1.7,0.3-3.4,0.8-5.1,1.4l-0.2,0.1c-2.5,2.7-3.9,6.3-5.4,10.1c-1.6,4.3-3.3,8.7-6.8,12.1
			c-5.9,5.7-13.9,5.9-17.7,2.5c-3-2.7-2.6-7.1,1.1-11.7c2-2.5,8.1-5.5,13.9-8.3c4.7-2.3,9.5-4.7,12.5-6.9c1.7-1.4,3.3-3,4.7-4.8
			c3.4-4,6-7.1,11.1-3C362,107.8,362.1,109.3,361.5,110.5z"/>
		<path class="st0" d="M61.4,18.5c-5.1-2.9-9.3-1-14.1,1.2c-3.3,1.7-6.9,2.9-10.6,3.5c-1.8,0.2-3.6,0.1-5.4-0.3
			c-1-0.2-1.9-0.3-2.9-0.4c-12.5-0.6-17.8,6-23.4,13.1c-1.6,2-3.2,4.1-5.1,6v1.3c2-2.2,4-4.4,5.8-6.8c5.7-7.2,10.6-13.3,22.6-12.7
			c0.9,0.1,1.9,0.2,2.8,0.4c1.9,0.4,3.8,0.5,5.7,0.3c3.8-0.6,7.4-1.8,10.8-3.6c4.8-2.2,8.6-4,13.3-1.3c2.4,1.5,4.6,3.2,6.5,5.3
			c1.4,1.5,3,2.9,4.7,4c8.4,5.5,25.3,7.3,38.2,6.7c1.6-0.1,3.1-0.3,4.5-0.5c2.5-0.5,5-0.5,7.5-0.2c1.6,0.3,3.1,0.7,4.7,1.3
			c2.4,0.8,4.7,1.6,7.6,1.3c13.2-1.5,33.3-12.8,44.5-22.6c1.5-0.2,3-0.2,4.5,0.1c1.6,0.2,3.2,0.3,4.8,0.1c1.3-0.3,2.6-0.8,3.7-1.7
			c0.8-0.6,1.8-1.1,2.8-1.4c2.1-0.5,4.4-0.6,6.5-0.5c0.5,0,0.9,0,1.4,0l0.8,0c2.4,0.1,5.6,0.1,7.4-1.3c2-1.5,4.2-2.8,6.5-4
			c3.2-1.6,6.2-3.5,8.9-5.8c0.1-0.1,0.1-0.1,0.2-0.2H225c-2.5,2-5.3,3.7-8.1,5.1c-2.3,1.2-4.5,2.5-6.6,4.1c-1.5,1.2-4.7,1.2-6.8,1.1
			l-0.8,0c-0.4,0-0.9,0-1.3-0.1c-2.3-0.2-4.6,0-6.8,0.5c-1.1,0.3-2.1,0.9-3,1.5c-1,0.7-2.1,1.3-3.4,1.5c-1.5,0.2-3,0.1-4.6-0.1
			c-1.6-0.2-3.2-0.3-4.8,0l-0.1,0l-0.1,0.1c-11,9.7-31,21-44.1,22.5c-2.5,0.2-4.9-0.3-7.2-1.3c-1.6-0.6-3.2-1-4.8-1.3
			c-2.6-0.3-5.2-0.2-7.8,0.2c-1.4,0.2-2.9,0.4-4.4,0.5c-12.8,0.6-29.4-1.2-37.7-6.6c-1.6-1.1-3.1-2.5-4.5-3.9
			C66.1,21.8,63.9,20,61.4,18.5z"/>
		<path class="st0" d="M74.6,17.4c0.7,2.7,2.5,4.9,4.9,6.2c6.3,3.8,16.1,4.1,22.6,2.4c2-0.7,3.8-1.5,5.6-2.6
			c4.6-2.4,10.4-5.5,15.6-4.7c2.3,0.5,4.4,1.5,6.2,2.9c0.7,0.5,1.5,1,2.2,1.3c18.7,8.6,36.6-6,47.2-22.5c0.3-0.1,1-0.1,1.6-0.2
			c0.8-0.1,1.3-0.2,1.5-0.2c0.1,0,0.1,0,0.2-0.1h-4.1c-10.4,16.2-27.9,30.5-46,22.2c-0.7-0.4-1.4-0.8-2.1-1.3c-2-1.5-4.2-2.5-6.6-3
			c-5.5-0.9-11.4,2.3-16.2,4.7c-1.7,1-3.5,1.9-5.4,2.5C94.6,27,85.3,26,80,22.8c-2.2-1.2-3.9-3.2-4.5-5.6c-0.6-2.7,1.3-9.8,4-17.2
			h-1C75.8,7.4,73.9,14.6,74.6,17.4z"/>
		<path class="st0" d="M517.3,32.5l0.2,0.1l0.2-0.1c6.8-3.9,10.8-10.1,11.8-18.6c0.2-2.3-0.1-4.7-0.9-6.9c-0.6-1.7-0.9-3.5-0.9-5.2
			c0-0.6,0.1-1.2,0.2-1.8h-0.9c-0.1,0.6-0.1,1.1-0.2,1.7c0,1.9,0.3,3.8,1,5.6c0.7,2.1,1,4.3,0.9,6.5c-1,8.1-4.7,14.1-11.2,17.8
			c-8.6-3.5-7.3-9.4-5.7-16.8c1-4.5,2.1-9.5,1.2-14.8H512c0.9,5.1-0.1,10.2-1.1,14.6C509.2,22.2,507.7,28.8,517.3,32.5z"/>
		<path class="st0" d="M237.6,19.6c2,1.9,3.9,3.9,5.6,6.1c1.9,2.6,3.6,5.5,5.1,8.4c2.7,5.1,5.2,9.9,11.3,13.6
			c10.1,6.2,34.1,12.5,44.1,14.6c18.5,3.8,23.3-5.1,30.6-18.5c1.4-2.5,2.5-5.1,3.4-7.8c1.7-5.7,3.6-13.3,5.6-23.3
			c0.5-2.3,0.8-4.3,1.1-6c0.3-2.3,0.8-4.5,1.4-6.7h-1c-0.6,2.2-1,4.4-1.3,6.6c-0.3,1.7-0.6,3.7-1.1,6c-2,10-3.9,17.6-5.6,23.2
			c-0.9,2.6-2,5.2-3.3,7.6c-7.1,13.1-11.8,21.7-29.6,18c-10-2.1-33.8-8.3-43.8-14.5c-5.9-3.6-8.3-8.3-10.9-13.3
			c-1.5-3-3.2-5.9-5.2-8.6c-1.7-2.2-3.7-4.3-5.7-6.2c-3.8-3.6-6-5.8-4.6-11.8c0.6-2.4,1.5-4.8,2.5-7.1h-1c-1,2.2-1.8,4.5-2.4,6.9
			C231.2,13.5,233.7,15.9,237.6,19.6z"/>
		<path class="st0" d="M633.2,208.1c0.5,0.7,1.1,1.4,1.6,2.2c7.4,9.9,16.5,22.3,29.8,23h0.1l0.1-0.1c2-0.9,2.9-3.2,2-5.2
			c0,0,0-0.1-0.1-0.1l-0.1-0.1l-0.1-0.1c-6.1-4.5-8.6-12.9-11-20.9c-2-6.9-4.2-14.1-8.7-18.9c-4.5-4.9-12.3-7.6-21.5-7.6
			c-0.6,0-1.1,0-1.7,0l-0.3,0l-0.1,0.2c-4.6,9.6,0.5,15.8,6.4,23.1C630.9,205.1,632.1,206.6,633.2,208.1z M624.1,181.3
			c9.5-0.3,17.6,2.3,22.2,7.3c4.3,4.6,6.4,11.7,8.5,18.5c2.4,8.1,4.9,16.5,11.2,21.3c0.7,1.5,0,3.3-1.5,4
			c-12.7-0.7-21.7-12.8-29-22.6c-0.6-0.8-1.1-1.5-1.6-2.2c-1.2-1.5-2.3-3-3.5-4.4C624.8,196.2,620,190.2,624.1,181.3z"/>
		<path class="st0" d="M598.8,155c-4.1,5.7,0.9,11.7,5.8,17.5c2.1,2.3,3.9,4.8,5.4,7.5c1.3,2.9,2.3,5.9,3,9c1,4.5,2.6,8.9,4.7,13.1
			c2.4,4.4,6,8.6,9.5,12.6c1.2,1.4,2.4,2.8,3.6,4.2c1.3,1.6,2.7,3.3,3.9,4.9c3,3.9,6.3,7.7,9.7,11.3l0.5,0.5
			c7.7,7.7,18.3,18.3,26.2,15.1c4.1-1.6,6.7-6.9,9.3-12c0.8-1.7,1.6-3.2,2.5-4.6c0.9-1.5,1.8-2.9,2.8-4.2c3.1-4.5,6-8.7,4-13.6
			l0-0.1c-2.6-4.8-6.5-5.1-10.7-5.4c-2.7-0.1-5.3-0.6-7.7-1.7c-5.7-2.8-8.6-8.9-11.6-15.4c-2.4-5.1-4.9-10.4-8.9-14.2
			c-2.5-2.4-5.8-3.8-9.1-5.3c-2.9-1.1-5.7-2.6-8.2-4.5c-2.1-1.8-3.9-3.8-5.5-6c-1.5-2.1-3.2-4-5.2-5.6c-4.4-3.4-9.8-5.3-15.4-5.5
			c-2.9-0.1-5.8,0.7-8.4,2.2L598.8,155z M622.1,158.9c1.9,1.6,3.6,3.4,5,5.4c1.6,2.3,3.5,4.4,5.7,6.2c2.6,1.9,5.4,3.4,8.5,4.6
			c3.3,1.5,6.4,2.9,8.8,5.1c3.9,3.7,6.3,8.9,8.6,13.9c3.1,6.6,6.1,12.9,12.1,15.8c2.6,1.1,5.3,1.7,8.1,1.8c4,0.3,7.5,0.6,9.9,4.9
			c1.8,4.4-0.9,8.2-3.9,12.7c-1,1.4-2,2.8-2.8,4.3c-0.8,1.4-1.6,3-2.5,4.7c-2.5,4.9-5.1,10-8.8,11.5c-7.3,2.9-17.6-7.4-25.2-14.9
			l-0.5-0.5c-3.4-3.6-6.6-7.3-9.6-11.2c-1.3-1.6-2.6-3.3-4-4.9c-1.2-1.4-2.4-2.9-3.6-4.2c-3.6-4.2-7-8.1-9.4-12.5
			c-2-4.1-3.6-8.4-4.6-12.9c-0.7-3.2-1.8-6.3-3.1-9.2c-1.6-2.7-3.5-5.3-5.6-7.6c-4.6-5.5-9.3-11.2-5.8-16.3
			C606.5,151.5,615.9,154.2,622.1,158.9z"/>
		<path class="st0" d="M438,111.6c5.7-0.9,19.1-7.9,22.6-15.1c1-1.8,1.1-4.1,0.1-6l-0.1-0.1c-5.5-5.9-10.7-8.8-15.6-8.8
			c-1.6,0-3.2,0.3-4.7,0.9c-2.4,0.9-4.4,3.3-6.6,5.7c-1.5,1.9-3.2,3.6-5.1,5.1c-1.7,1.2-3.5,2.2-5.4,3c-3.1,1.3-5.7,2.5-6.5,5.9
			l-0.1,0.2l0.1,0.2C420.5,108,429.3,113,438,111.6z M423.5,97.3c2-0.8,3.9-1.8,5.6-3.1c1.9-1.6,3.7-3.3,5.2-5.3
			c2.1-2.4,4-4.6,6.2-5.5c6-2.4,12.3,0.1,19.3,7.6c0.8,1.6,0.8,3.5-0.1,5.1c-3.1,6.4-15.8,13.7-21.9,14.6
			c-9.2,1.4-17.3-4.3-20.4-8.4C418.3,99.5,420.6,98.5,423.5,97.3z"/>
		<path class="st0" d="M567.2,122.6l-0.1-0.1c-2.7-1.8-5.9-2.8-9.1-2.8c-4.9,0-9.4,2.2-14.2,4.5c-3.2,1.7-6.6,3.1-10.1,4.2
			c-3,0.7-6,1.2-9,1.5c-4.8,0.6-9.3,1.1-11.9,3.1c-3.9,3.2-5.3,7.8-3.6,11.8c1.6,3.5,5.9,6.9,13.5,5.9c2.7-0.4,6.2-2.2,10.7-4.6
			c4.4-2.4,8.9-4.5,13.6-6.4c2.4-0.9,4.9-1.6,7.4-2.2c5.7-1.5,11-2.9,13-6.7c1.1-2.1,1.1-4.8-0.1-8.1L567.2,122.6z M566.5,130.4
			c-1.8,3.4-6.9,4.7-12.4,6.2c-2.5,0.7-5,1.4-7.5,2.3c-4.7,1.8-9.3,4-13.7,6.4c-4.2,2.2-7.9,4.1-10.4,4.5c-7.1,1-11.1-2.1-12.6-5.3
			c-1.6-3.6-0.3-7.8,3.3-10.7c2.3-1.9,6.7-2.4,11.4-2.9c3.1-0.3,6.2-0.8,9.2-1.5c3.6-1.1,7-2.5,10.3-4.2c7.6-3.7,14.1-6.8,22.3-1.8
			C567.4,126.2,567.5,128.6,566.5,130.4z"/>
		<path class="st0" d="M386.8,104c-0.7-2.6-1.2-5.2-1.4-7.9c-0.7-6.1-1.3-11.9-7.8-15.1c-1.7-0.8-3.6-1.1-5.4-1.1
			c-7.5,0-17.9,4.2-23.8,7.7c-2.9,1.6-6.2,3.8-9.7,6.2c-6.6,4.4-14.1,9.4-21.6,12.7c-0.8,0.4-1.7,0.7-2.7,1.1
			c-4.2,1.7-9.4,3.8-12.5,7.3c-7.3,8.3-9.5,26.1-4.7,39.6c3.1,8.9,8.7,14.4,15.9,15.7c1.8,0.3,3.8-0.2,6-0.8c1.6-0.5,3.2-0.8,4.9-1
			c5-0.2,9,0.8,13,1.8c5.4,1.4,10.1,2.5,15.6-0.1c4.9-2.4,10.5-7.6,15.4-12.2c0.9-0.8,1.8-1.7,2.6-2.4c1.4-1.3,3-2.7,4.5-4.1
			c7-6.3,14.3-12.8,17.1-18.3c2-4.1,1.9-7.9,1.1-12.2c-0.4-3.2-1.8-6.2-3.3-9.5C388.6,109.1,387.6,106.6,386.8,104z M391.2,132.8
			c-2.6,5.4-9.9,11.8-16.9,18.1c-1.5,1.4-3.1,2.7-4.5,4.1c-0.9,0.8-1.7,1.6-2.6,2.4c-4.9,4.6-10.4,9.7-15.2,12c-2,1-4.2,1.5-6.4,1.5
			c-2.9-0.1-5.8-0.6-8.5-1.4c-4.3-1.3-8.8-1.9-13.2-1.8c-1.7,0.2-3.4,0.5-5.1,1c-2.1,0.5-4,1-5.6,0.8c-6.8-1.2-12.2-6.5-15.2-15.1
			c-4.6-13.3-2.6-30.6,4.6-38.7c3-3.3,8-5.4,12.1-7.1c1-0.4,1.9-0.8,2.7-1.1c7.6-3.4,15.2-8.4,21.8-12.8c3.5-2.3,6.8-4.5,9.6-6.1
			c8-4.6,22.1-9.7,28.4-6.5c6,3,6.6,8.5,7.3,14.3c0.2,2.7,0.7,5.4,1.4,8.1c0.8,2.6,1.9,5.2,3.1,7.6c1.5,3.2,2.9,6.1,3.3,9.2v0
			C393,125.3,393.2,128.9,391.2,132.8z"/>
		<path class="st0" d="M823.3,11.7c3.2-3.9,6.1-7.8,9-11.7h-1.2c-2.7,3.7-5.5,7.4-8.5,11.1c-1.7,2.1-3.2,4.3-4.6,6.6
			c-2.5,4.1-5,7.9-8.8,10.1c-11.9-3.2-19.5-3.2-25.8,5.7c-4.8,6.9-5.4,15.9-1.7,26.2c0.1,6.8-9.9,11.4-18.8,15.4
			c-5.9,2.7-11.1,5-13,7.8c-3.9,5.7-0.4,10.3,3.7,15.7c0.6,0.8,1.3,1.7,2,2.6c0.3,1.2,0.1,2.4-0.5,3.4c-0.3,0.1-0.6,0.3-0.9,0.4
			c-8.7-3.4-14.4-1.8-21.5,0.2c-2,0.6-4.1,1.2-6.4,1.7c-3.3,0.7-6.6,1.1-9.9,1.3c-8.1,0.7-17.4,1.5-22.3,7.1
			c-1.4,1.9-2.6,3.9-3.6,6.1c-1.5,3.1-3.2,6.6-6.1,9.3c-4.2,3.9-8.9,7.3-13.8,10.2c-4.1,2.2-8.3,2.5-12.1,0.9
			c-4.9-2.1-8.9-7.2-10.7-13.8c-2.7-9.6,1.6-20.4,11.6-28.7c1.6-1.3,3.3-2.5,5.1-3.6c2.9-1.9,5.6-3.6,7.6-6.2
			c1.4-2.1,2.5-4.4,3.4-6.8c1.6-4.2,3.1-8.1,7.6-9.8l0.2-0.1l0.1-0.2c4.1-7.6,9.7-21.5,0.8-29c-6-5.1-18-5.7-26.7-3.7
			c-4.3,1-8.7,3.1-13.4,5.3c-2.9,1.3-5.8,2.7-9,4c-2.1,0.9-4.2,1.7-6.3,2.5c-5.8,2.1-11.4,4.5-16.9,7.2c-0.8,0.4-1.6,0.9-2.4,1.4
			c-1.9,1.3-3.9,2.2-6.1,2.9c-3.4,0.7-8.3-0.6-12.3-1.6c-1.4-0.4-2.9-0.7-4.3-1c-3.7-0.5-7.5-0.9-11.2-0.9c-0.2,0-0.4,0-0.6,0
			c-10.8,0-20,5-29.7,10.2c-7.4,4-15.1,8.1-23.8,10.1c-8.1,1.9-14.9,1.4-19-1.2c-2.4-1.5-4.1-3.9-4.6-6.7c-0.9-4,1.1-9.3,2.9-14.1
			c1.1-2.6,1.9-5.3,2.5-8.1c0.9-5.8-0.2-11.4-1.3-16.8c-0.5-2.5-1-5-1.3-7.5c-0.5-4.4,0.1-8.7,0.7-13c0.6-4.5,1.2-8.8,0.4-12.7h-1
			c0.9,3.8,0.3,8.1-0.3,12.6c-0.6,4.3-1.2,8.7-0.7,13.2c0.3,2.5,0.8,5,1.3,7.5c1,5.3,2.1,10.9,1.3,16.5c-0.6,2.7-1.4,5.3-2.4,7.9
			c-1.8,4.9-3.9,10.4-2.9,14.6c0.6,3,2.4,5.7,5,7.3c4.3,2.7,11.3,3.2,19.7,1.3c8.9-2,16.6-6.2,24-10.2c9.8-5.3,19-10.2,29.9-10
			c3.7,0.1,7.4,0.4,11.1,0.9c1.4,0.2,2.8,0.6,4.2,1c4,1,9.1,2.4,12.7,1.6c2-0.4,4.2-1.7,6.4-3c0.8-0.5,1.6-0.9,2.3-1.3
			c5.4-2.7,11-5.1,16.7-7.2c2-0.8,4.1-1.6,6.3-2.4c3.2-1.3,6.2-2.7,9.1-4.1c4.6-2.2,9-4.2,13.2-5.2c8.5-2,20.1-1.4,25.9,3.5
			c8.3,7,3,20.3-1,27.7c-4.7,1.9-6.4,6.2-7.9,10.3c-0.8,2.3-1.9,4.5-3.2,6.6c-1.8,2.5-4.5,4.2-7.3,6c-1.8,1.1-3.5,2.3-5.2,3.6
			c-10.2,8.6-14.7,19.6-11.9,29.6c1.9,6.9,6.1,12.3,11.2,14.5c4,1.7,8.5,1.4,12.8-0.9c5-2.9,9.7-6.4,14-10.3
			c3.1-2.8,4.8-6.4,6.3-9.6c0.9-2.1,2.1-4.1,3.4-5.9c4.7-5.3,13.7-6.1,21.7-6.8c3.4-0.2,6.7-0.6,10-1.3c2.4-0.5,4.5-1.1,6.5-1.7
			c7.3-2.1,12.6-3.6,21.1-0.2l0.2,0.1l0.2-0.1c0.3-0.2,0.7-0.4,1.1-0.6l0.1-0.1l0.1-0.1c1-1.2,0.9-2.8,0.7-4.3l0-0.1l-0.1-0.1
			c-0.7-0.9-1.4-1.9-2-2.7c-4-5.3-7.2-9.5-3.7-14.6c1.8-2.6,7-4.9,12.6-7.5c9.2-4.1,19.6-8.8,19.3-16.3l0-0.1
			c-3.6-10.1-3.1-18.7,1.6-25.4c6-8.5,13.4-8.4,24.9-5.3l0.2,0.1l0.2-0.1c4.2-2.2,6.7-6.2,9.3-10.5C820.2,16,821.7,13.8,823.3,11.7z
			"/>
		<path class="st0" d="M951,0c-2.2,5.3-3.4,11-3.5,16.8c0,2.4,0.2,4.7,0.5,7.1c0.5,4.1,0.9,7.6-0.6,10.9c-1.4,3.1-4.1,5.1-6.9,7.3
			c-1.7,1.2-3.2,2.6-4.7,4c-1.7,1.6-3,3.2-4.4,4.8c-2.7,3.1-5,5.8-8.5,7.3c-6.3,2.6-29.5,2.5-37.2,0.4c-4.4-1.2-9.1-3.7-14.1-6.4
			c-4.6-2.5-9.4-5-13.8-6.4c-1.7-0.5-3.4-1-5-1.4c-6.7-1.6-12.4-3-13.2-11c-0.4-3.9,3-9.9,5.9-15.2c1.3-2.3,2.4-4.4,3.3-6.3
			c1.8-3.8,3.9-7.8,6-11.9h-1.1c-2.1,4-4.1,7.9-5.8,11.5c-0.9,1.9-2.1,4-3.3,6.2c-3.2,5.7-6.5,11.5-6,15.7
			c0.9,8.7,7.2,10.2,13.9,11.9c1.6,0.4,3.3,0.8,5,1.3c4.4,1.4,9.1,3.9,13.7,6.3c4.8,2.6,9.8,5.2,14.3,6.5c7.2,1.9,31,2.4,37.8-0.5
			c3.7-1.5,6.1-4.3,8.8-7.5c1.3-1.6,2.7-3.1,4.3-4.7c1.5-1.4,3-2.7,4.7-3.9c2.9-2.3,5.7-4.4,7.2-7.7c1.6-3.5,1.1-7.4,0.6-11.4
			c-0.3-2.3-0.5-4.6-0.5-6.9C948.6,11,949.8,5.3,952,0H951z"/>
		<path class="st0" d="M894.5,229.9c5.1-2.2,10.8-4.7,8.3-12.6l-0.1-0.1c-1.6-2.4-3.4-3.7-5.3-3.9c-3.2-0.4-6.3,2.1-9.5,4.8
			c-2.9,2.4-5.8,4.8-9,5.3c-9.2,1.4-15.1-6.7-20.9-14.5c-1.6-2.2-3.3-4.4-4.9-6.4c-2.5-2.7-5.1-5.2-8-7.5c-2.5-2-4.8-4.1-6.9-6.4
			c-3.4-3.7-5.9-8.1-8.3-12.4c-2.5-4.5-4.9-8.7-8-11.4c-3.3-2.9-13.4-7-20.1-8.1c-2.9-0.4-5.8-0.7-8.8-0.7
			c-4.1-0.2-7.9-0.3-11.6-1.4c-4.5-1.4-8.3-3.8-12.1-6.1c-4-2.5-7.8-4.9-12.2-5.8c-0.9-0.2-1.9-0.3-2.9-0.3c-4,0-7.9,1.8-10.6,4.8
			c-5,5.3-7,13.8-5.1,21.4c1.2,4.5,3.6,8.4,6,12.1c2.9,4.5,5.8,9.2,6.5,15.1c0.1,2.4-0.2,4.9-0.8,7.2c-0.5,2-0.8,4-0.9,6.1
			c0.1,9.3,2.5,15.8,8,21.9l0.1,0.1l0.1,0c2.3,0.6,4.7,0.9,7.1,0.8c2.1-0.1,4.2,0.2,6.2,0.7c7.2,2.1,23.9,11.2,26.7,15.8
			c3.1,5,2.5,10.9,2,17.1c-0.5,5.6-1,11.5,1.4,16.7c3.5,7.3,11.5,13.4,20.5,15.4c4.2,0.9,9.2,0.3,14.9-0.5c3.1-0.4,6.2-0.8,9.6-1
			c2.8,0,5.6,0.1,8.4,0.5c6.5,0.6,13.9,1.4,18.9-0.9c12.6-5.8,13.5-24.2,12.7-41.5c-0.1-1.6-0.2-3.3-0.4-4.9
			c-0.5-5.6-1-11.5,1.9-15.2C889.1,232.3,891.8,231.1,894.5,229.9z M886.8,233.6c-3.1,4-2.6,10-2.1,15.8c0.2,1.6,0.3,3.2,0.4,4.8
			c0.8,16.9-0.1,35-12.2,40.6c-4.7,2.2-12,1.5-18.4,0.8c-2.8-0.4-5.7-0.6-8.6-0.5c-3.4,0.2-6.5,0.6-9.6,1
			c-5.6,0.8-10.5,1.4-14.6,0.5c-8.7-1.9-16.5-7.8-19.9-14.9c-2.4-5-1.8-10.7-1.3-16.2c0.6-6,1.2-12.3-2.1-17.6
			c-3-5-20.6-14.2-27.2-16.2c-2.1-0.5-4.3-0.8-6.4-0.7c-2.3,0-4.5-0.2-6.7-0.8c-5.3-5.9-7.6-12.2-7.7-21.2c0.1-2,0.3-4,0.8-5.9
			c0.6-2.4,0.9-5,0.8-7.5c-0.6-6.1-3.7-10.9-6.6-15.5c-2.4-3.7-4.8-7.5-5.9-11.9c-1.9-7.2,0.1-15.5,4.9-20.5c3.2-3.5,8-5.1,12.6-4.2
			c4.1,0.8,7.9,3.1,11.9,5.6c3.8,2.3,7.6,4.8,12.3,6.2c3.8,1.2,7.9,1.3,11.9,1.4c2.9,0,5.8,0.3,8.7,0.7c6.5,1.1,16.4,5.1,19.6,7.9
			c2.9,2.6,5.3,6.8,7.8,11.2c2.4,4.3,5,8.7,8.4,12.6c2.2,2.3,4.5,4.5,7,6.5c2.8,2.3,5.4,4.7,7.9,7.4c1.7,2,3.3,4.2,4.9,6.3
			c5.5,7.4,11.1,15,19.6,15c0.7,0,1.5-0.1,2.2-0.2c3.4-0.5,6.5-3.1,9.5-5.5c3.1-2.5,6-5,8.8-4.6c1.6,0.2,3.1,1.3,4.6,3.5
			c2.2,7-2.7,9.2-7.8,11.5C891.4,230.3,888.5,231.5,886.8,233.6L886.8,233.6z"/>
		<path class="st0" d="M728,211.4c-0.5,0-1,0-1.6,0.1l-0.2,0c-6.8,3.4-7.8,10.5-8.8,17.3c-0.3,2.9-0.9,5.7-1.7,8.4
			c-0.6,1.6-1.3,3.1-2.2,4.6c-1.9,3.4-3.6,6.5-1.8,10.4l0.1,0.1l0.1,0.1c7,4.6,16.9,3.6,24.2-2.4c6.7-5.5,9-13.6,6-21.1
			C740.9,219.9,736,211.4,728,211.4z M741.4,229.2c3.4,8.5-0.7,15.9-5.7,20.1c-3.9,3.2-8.7,5-13.7,5.1c-3.3,0-6.5-0.9-9.3-2.6
			c-1.5-3.4,0-6.2,1.8-9.5c0.9-1.5,1.6-3.1,2.2-4.7c0.8-2.8,1.4-5.7,1.7-8.6c0.9-6.6,1.9-13.4,8.2-16.6c9.5-1.2,13.7,9.9,14.7,16.7
			L741.4,229.2z"/>
		<path class="st0" d="M808,65.2l-0.2,0l-0.1,0.1c-5.9,3.3-8.8,12.9-7.4,19.3l0,0.3l0.3,0.1c2.9,1,6.1,0.4,8.5-1.6
			c3.6-2.7,6.1-7.5,5.8-11.6l0-0.1C813.8,68.4,811.2,66,808,65.2z M808.5,82.6c-2,1.7-4.8,2.3-7.4,1.6c-1.1-5.9,1.6-14.9,6.9-17.9
			c2.8,0.7,5.1,2.8,6,5.6C814.1,75.6,811.8,80.1,808.5,82.6z"/>
		<path class="st0" d="M218.3,37c-0.3,0-0.6-0.1-0.8-0.1c-2.7-0.2-5.2,1.4-6.2,3.9l-0.1,0.2l0.1,0.2c2.3,5.2,10.4,7.9,15.1,6.4
			l0.2-0.1l0.1-0.1c0.8-1.4,0.1-2.8-0.5-4l-0.1-0.3C225.4,39.5,221.6,37.3,218.3,37z M226,46.8c-4.4,1.2-11.6-1.2-13.7-5.8
			c0.9-2.2,3.1-3.3,6-3.1c3,0.3,6.4,2.2,7,5.5l0.2,0.4C225.8,44.8,226.4,45.9,226,46.8z"/>
		<path class="st0" d="M704.9,83.5c-2.3-1.9-6.1-4.1-9.7-4.1c-2.2,0-4.2,0.9-5.6,2.5l-0.1,0.1c-2.2,4.5-0.3,7.2,1,8.4
			c3.4,2.7,8,3.1,11.8,1c2.7-1.6,3.6-4.3,2.7-7.7l0-0.2L704.9,83.5z M701.8,90.6c-3.1,1.9-8.1,1.5-10.7-0.9
			c-1.4-1.2-2.6-3.5-0.9-7.3c3.9-4.4,10.5-1.1,13.9,1.6C704.8,86.9,704,89.2,701.8,90.6z"/>
		<path class="st0" d="M707.2,63.4l0.1,0.1c5,3.1,10.2,2.9,15.2,2.7c2.2-0.2,4.5-0.1,6.7,0c2.5,0.3,5,0.8,7.4,1.5
			c4.4,1.1,8.5,2.1,13.2,1.1c9.3-2,11.8-8,14.9-15.6c0.6-1.4,1.2-2.9,1.9-4.4c1.1-2.5,2.2-5.2,3.4-7.9c4.8-11.3,9.8-23,16.2-31.1
			c5-6.4,9.4-4.8,14.5-3c3.3,1.2,6.8,2.4,10.7,1.4c3.2-0.8,7.6-4,12.1-8.3h-1.4c-4.1,3.8-8.1,6.7-10.9,7.4
			c-3.6,0.9-6.9-0.3-10.1-1.4c-5-1.8-10.1-3.7-15.6,3.3c-6.4,8.2-11.4,19.9-16.3,31.3c-1.2,2.7-2.3,5.3-3.4,7.8
			c-0.7,1.5-1.3,3-1.9,4.4c-3.1,7.6-5.4,13.1-14.2,15.1c-4.5,1-8.5,0-12.8-1.1c-2.5-0.7-5-1.2-7.5-1.5c-2.3-0.2-4.6-0.2-6.8-0.1
			c-4.8,0.2-9.8,0.4-14.6-2.5c-1.6-1.9-1.5-4.4-1.5-6.8c0-0.6,0-1.2,0-1.7l0-0.1c-1.4-5.3-3.8-10.8-11.4-14.9
			c-7.7-4.1-24.4-12.2-29-13c-7.9-1.2-14.9,3.5-21.7,8.1c-5,3.4-9.7,6.5-14.8,7.5c-1.8,0.2-3.7,0.3-5.6,0.1
			c-2.6-0.2-5.2-0.2-7.8,0.1c-0.8,0.1-1.8,0.3-2.8,0.4c-6.2,1-16.7,2.7-20.7-1.1l-0.1-0.1h-0.2c-3,0-5.9,0.2-8.7,0.4
			c-3.3,0.2-6.7,0.5-10.2,0.4c-1.2,0-2.5-0.2-3.7-0.4c-2.8-0.4-5.5-0.8-8.9,0.8c-3.3,1.6-5.4,4.1-7.4,6.6c-2.9,3.5-5.6,6.8-11.8,7.9
			c-0.4,0.1-0.9,0.1-1.4,0.2c-1.1,0.2-2.4,0.4-4.2,0.7c-3.6,0.8-6.2,3-8.7,5.2c-4,3.5-7.4,6.5-14,2.6c-3.4-5.4-1.6-11.6,1.6-15.2
			c2.8-3.2,7.7-5.6,13.3-2.9l0.2,0.1l0.2-0.1c2.9-1.5,5.8-3.1,8.6-4.6c5.3-3.1,10.8-5.8,16.4-8.1l0.2-0.1c6.1-6.2,1.4-17.1-3.2-22.9
			c-2.4-3-3.6-6.4-4.7-9.6c-0.2-0.7-0.5-1.3-0.7-2h-1c0.3,0.8,0.6,1.5,0.8,2.3c1.2,3.4,2.4,6.8,4.9,9.9c4.2,5.3,8.9,15.9,3.4,21.6
			c-5.7,2.3-11.2,5-16.5,8.2c-2.7,1.5-5.5,3.1-8.3,4.5c-6-2.7-11.3-0.1-14.2,3.2c-4.1,4.5-4.7,11.2-1.6,16.4l0.1,0.1l0.1,0.1
			c7.3,4.3,11.1,0.9,15.2-2.6c2.4-2.1,4.9-4.3,8.3-5c1.7-0.3,3.1-0.5,4.1-0.7c0.5-0.1,1-0.2,1.4-0.2c6.5-1.1,9.5-4.7,12.4-8.2
			c2-2.5,3.9-4.8,7-6.3c3.1-1.5,5.7-1.1,8.4-0.7c1.3,0.2,2.5,0.3,3.8,0.4c3.5,0.1,7-0.2,10.3-0.4c2.7-0.2,5.6-0.4,8.5-0.4
			c4.4,4,15,2.3,21.3,1.3c1.1-0.2,2-0.3,2.8-0.4c2.5-0.3,5.1-0.3,7.6-0.1c1.9,0.2,3.9,0.2,5.8-0.1c5.2-1,10.3-4.4,15.1-7.7
			c6.6-4.5,13.5-9.1,21-7.9c4.5,0.7,21.1,8.7,28.7,12.9c6.8,3.7,9.3,8.3,10.9,14.2c0,0.5,0,1.1,0,1.6
			C705.4,58.5,705.3,61.2,707.2,63.4z"/>
		<path class="st0" d="M937.7,2l0,0.1c4.2,9.9-0.8,16.5-6,23.5c-2.1,2.6-3.9,5.4-5.6,8.3c-1.1,2.1-2.1,4.4-2.9,6.6
			c-1.4,3.6-2.7,7-4.8,8.7c-3.3,2.6-8.4,3.4-13.4,3.4c-5.3,0-10.6-0.8-15.6-2.4c-5-1.9-8.5-5.6-12-9.2c-2.7-2.9-5.5-5.8-9-7.8
			c-2-1-4-1.6-6.2-2c-3.2-0.7-6.2-1.4-8.1-3.7c-0.8-7.2,2.7-16.6,5.8-23.1c0.7-1.5,1.4-3,2.1-4.4h-1c-0.6,1.3-1.3,2.6-1.9,4
			c-3.1,6.7-6.7,16.3-5.8,23.8l0,0.1l0.1,0.1c2.2,2.7,5.5,3.4,8.7,4.1c2.1,0.3,4.1,1,6,1.9c3.3,1.9,6,4.6,8.8,7.6
			c3.5,3.7,7.1,7.5,12.3,9.4c3.9,1.5,21.9,5.1,30-1.2c2.3-1.8,3.6-5.4,5.1-9.1c0.8-2.2,1.7-4.4,2.8-6.5c1.7-2.8,3.5-5.6,5.5-8.2
			c5.4-7.2,10.4-14,6.1-24.3c-0.1-0.6-0.2-1.2-0.3-1.8h-0.9C937.6,0.6,937.7,1.3,937.7,2z"/>
		<path class="st0" d="M642.7,87.9c5.7-4.7,11.5-9.7,11.3-14.9c-0.1-2.8-1.8-5.4-5.3-7.9c-1.4-1-8.5-2.2-12.7-1.6
			c-6,1-11.3,5-16.8,9.3c-4.5,3.5-9.2,7.1-14.4,8.9c-6.1,2.1-12.8,1.7-18.6,1.3c-4.6-0.3-8.9-0.6-12.3,0.4
			c-4.2,1.2-7.9,4.1-11.1,6.7c-2,1.8-4.2,3.3-6.6,4.5c-2.9,1.3-6,2.1-9.1,2.4c-2.7,0.1-5.5,0-8.2-0.4c-3.7-0.4-7.6-0.8-11.2,0
			c-2.8,0.7-5.6,1.7-8.2,3c-1.9,1-3.9,1.6-5.9,2c-4,0.3-20-3.4-23.9-5.8c-2.4-1.5-4.1-3.9-5.7-6.3c-1-1.7-2.3-3.3-3.6-4.7
			c-2.3-2.1-4.8-3.8-7.5-5.3c-5.2-3.1-10.5-6.4-11.3-12.9c4-4.6,9.8-11.6,8.9-17.3c-0.5-2.4-2-4.4-4.2-5.5c-2.6-1.5-5-1.9-7.1-1.3
			c-4.1,1.3-6.5,6.3-8.6,10.8c-1.2,2.5-2.3,4.8-3.5,6c-3.2,3.1-8.3,3.6-12.8,4.1c-1.8,0.1-3.5,0.4-5.3,0.8c-1.5,0.4-2.9,0.9-4.3,1.6
			c-3.6,1.5-6.4,2.7-8.6-0.5c1.1-3.2,3-4.5,5-5.9c1.7-1,3.2-2.4,4.4-4.1c5.9-9.5,2.1-23.9-4.7-31.8c-2.5-2.9-6.5-5.1-10.4-7.3
			c-7.3-4.1-14.2-8-11.7-15.9h-1c-2.6,8.4,4.9,12.6,12.2,16.7c3.8,2.1,7.7,4.3,10.1,7.1c6.6,7.6,10.3,21.5,4.6,30.7
			c-1.1,1.6-2.5,2.9-4.1,3.8c-2.1,1.5-4.3,2.9-5.4,6.6l-0.1,0.2l0.1,0.2c2.7,4.1,6.3,2.5,9.9,1c1.3-0.6,2.7-1.1,4.1-1.5
			c1.7-0.4,3.4-0.6,5.2-0.7c4.7-0.5,10-1,13.4-4.3c1.3-1.3,2.5-3.7,3.7-6.3c2-4.3,4.3-9.2,8-10.3c1.9-0.6,3.9-0.2,6.3,1.2
			c1.9,0.9,3.3,2.7,3.8,4.9c0.9,5.4-5.2,12.5-8.8,16.7l-0.1,0.2l0,0.2c0.7,7.1,6.3,10.5,11.7,13.8c2.6,1.4,5.1,3.2,7.3,5.2
			c1.3,1.4,2.5,2.9,3.5,4.5c1.7,2.5,3.4,5,6,6.6c4.2,2.5,20.2,6.2,24.5,5.9c2.2-0.4,4.3-1.1,6.2-2.1c2.6-1.2,5.3-2.2,8-2.9
			c3.5-0.8,7.2-0.4,10.9,0c2.8,0.4,5.6,0.5,8.4,0.4c3.3-0.3,6.4-1.2,9.4-2.5c2.4-1.3,4.7-2.8,6.8-4.6c3.3-2.7,6.8-5.4,10.8-6.5
			c3.3-0.9,7.5-0.6,12-0.3c5.9,0.4,12.7,0.9,19-1.3c5.3-1.8,10.1-5.5,14.7-9c5.4-4.2,10.6-8.1,16.4-9.1c3.9-0.7,10.8,0.5,12,1.4
			c3.2,2.3,4.9,4.7,4.9,7.2c0.2,4.8-5.5,9.6-11,14.2c-2.5,2-4.8,4.1-7,6.4c-6,6.5-14.9,24.2-10.6,34.7c1.3,3.1,4.2,5.5,7.2,8.1
			c1.5,1.2,2.9,2.5,4.3,3.9c1.8,1.9,3.5,4.1,5.4,6.4c4.4,5.6,9,11.4,15.4,13.2c7.2,2.1,13-0.6,19.2-3.4c5-2.3,10.1-4.6,16.3-4.5
			c2.8,2.1,4.2,5.3,5.5,8.3c0.6,1.3,1.1,2.6,1.8,3.8c1,1.7,2.1,3.4,3.1,5.1c1.9,2.7,3.5,5.5,4.7,8.6c1,2.6,1.1,5.6,1.3,8.7
			c0.1,2.5,0.3,5.1,0.8,7.6c0.3,1.1,0.6,2.1,1.1,3.2c0.4,1,0.8,2,1,3.1c1.7,9.8-0.1,24.3-3.9,32.3c-1.4,2.5-3,4.8-5,6.8
			c-2.4,2.8-5,5.8-6,9.3c-2.4,8.3,3,13.9,7.8,18.7c1.9,1.8,3.6,3.7,5.1,5.8c4.5,6.9,8.3,14.4,11.2,22.1c2.8,9.8-4.5,14.8-11.6,19.6
			c-3.7,2.5-7.2,4.9-9,7.9c-2.5,4.3-1.7,10-1,15.5c1.2,8.6,2.3,16.7-7.8,20.2c-3.6-1.2-7.1-2.7-10.5-4.4c-4.5-2.2-8.8-4.3-14.4-5.4
			c-7-1.3-16.5-1.3-24.1-1.3c-1,0-2,0-3,0c-2.1,0-4.1,0.2-6.1,0.4c-3.6,0.4-6.8,0.7-10.1-0.5c-14-5.3-25.5-22-20.1-36.6
			c1.8-4.9,4.7-7,8.3-9.7c1.3-1,2.7-2,4.2-3.3c1.4-1.2,2.9-2.7,4.5-4.2c2.4-2.5,4.9-4.8,7.6-6.9c1.4-1,2.6-1.9,3.8-2.7
			c9.3-6.5,14-9.8,10-23c-3.8-12.8-12.6-20.7-21.8-29.2c-6.5-6-13.3-12.2-18.3-20.3c-2.9-4.7-5.3-9.3-7.7-13.7
			c-5.4-10.2-10.1-19-17.3-23.9c-4.7-3.2-20.5-8.6-26.9-9.6c-12.3-1.9-18.4,4.4-24.2,10.6c-1.8,1.9-3.7,3.7-5.6,5.4
			c-2.9,2.3-6,4.3-9.3,6.1c-2.4,1.4-4.8,2.9-7,4.6c-1.3,1.1-2.5,2.3-3.6,3.5c-2.1,2.2-4,4.3-6.8,5.4c-9.6,3.8-23.3-1.1-28.1-10
			c-1.3-2.4-1.7-5.5-2.1-8.4c-0.2-1.9-0.6-3.9-1.1-5.8c-0.5-1.7-1.1-3.3-1.8-4.9c-1.3-3.1-2.4-5.7-1.7-8.5c1.5-2.8,3.5-3.2,5.9-3.7
			c1.8-0.2,3.5-0.9,5-1.8c5.5-3.8,6.3-9,7.2-15.1c0.4-3.4,1.1-6.8,2.1-10c0.8-2.3,1.7-4.5,2.8-6.6c2.8-5.9,5.4-11.5,0.7-14.8
			l-0.1-0.1c-2.8-1-5.1-0.1-7.5,0.9c-1.2,0.5-2.4,0.9-3.6,1.2c-2,0.4-4,0.7-6.1,0.9c-3.1,0.2-6.3,0.8-9.3,1.7c-3.3,1.3-6.4,3-9.3,5
			c-3.2,2.1-6.5,3.9-9.9,5.5c-1.7,0.8-3.2,1.3-4.8,1.9c-4.1,1.5-7.7,2.9-9.9,6.1c-1.7,2.5-2.3,6.4-2.8,10.1
			c-0.6,4.3-1.3,8.8-3.7,11.2c-2,2-5,2.3-8.1,2.7c-2.4,0.3-4.9,0.5-7,1.6c-3.1,1.7-5.4,4.9-7.8,8.3c-2.2,3-4.4,6.2-7.3,8.3
			c-1.8,1.2-3.7,2.1-5.7,2.8c-1.2,0.5-2.5,1-3.8,1.6c-2.4,1.1-5,2.5-7.5,3.8c-3.5,1.9-7.1,3.8-10.5,5.2c-16.7,6.8-38.1,8.5-51,4
			c-7.4-2.5-11.5-6.9-16.7-12.4c-1.3-1.4-2.7-2.8-4.1-4.3c-1.1-1.1-2.3-2.2-3.5-3.3c-3.2-2.9-6.2-5.7-7.5-8.6
			c-1.6-3.6-1.1-7.7-0.5-12c0.3-2.3,0.5-4.5,0.5-6.8c0-1.6-0.2-3.1-0.5-4.6c-0.4-1.7-0.5-3.4-0.4-5.1c0.8-5.6,4.1-10.6,7.2-15.4
			c2.8-4.4,5.8-8.9,7-14c1.1-4.5,0.3-8.2-0.5-12.1c-0.7-3.5-1.4-7.1-0.9-11.5c8-7.1,16.1-4.2,24.7-1c6.1,2.2,12.4,4.5,18.5,2.8
			c13.7-3.9,26.8-28.7,28.5-40.1c0.5-3.5-0.4-6.4-1.3-9.2c-0.6-1.6-1-3.2-1.2-4.9c-1.4-10.7,3.9-22.5,10.8-30.2h-1.2
			c-6.8,7.9-11.9,19.6-10.5,30.3c0.3,1.7,0.7,3.4,1.3,5.1c0.9,2.8,1.7,5.4,1.2,8.8c-1.6,11.2-14.5,35.5-27.8,39.3
			c-5.8,1.7-11.9-0.6-17.9-2.7c-8.5-3.1-17.3-6.3-25.7,1.3l-0.1,0.1l0,0.2c-0.7,4.6,0.1,8.3,0.8,11.9c0.8,3.8,1.5,7.4,0.5,11.7
			c-1.2,4.9-4.1,9.4-6.9,13.7c-3.2,4.9-6.5,9.9-7.3,15.7c-0.1,1.8,0,3.6,0.4,5.4c0.3,1.5,0.4,3,0.5,4.5c0,2.2-0.2,4.5-0.5,6.7
			c-0.5,4.4-1,8.6,0.6,12.5c1.3,3.1,4.4,6,7.7,9c1.2,1,2.3,2.1,3.4,3.2c1.5,1.5,2.8,2.9,4.1,4.3c5.3,5.6,9.4,10,17.1,12.6
			c13.1,4.5,34.9,2.8,51.7-4.1c3.4-1.4,7.1-3.3,10.6-5.2c2.5-1.3,5-2.7,7.4-3.8c1.3-0.6,2.5-1.1,3.7-1.6c2.1-0.7,4.1-1.7,5.9-2.9
			c3-2.2,5.3-5.4,7.5-8.5c2.4-3.3,4.6-6.5,7.5-8c1.9-1,4.3-1.3,6.6-1.5c3.2-0.3,6.4-0.7,8.7-2.9c2.6-2.5,3.2-7.2,3.9-11.7
			c0.5-3.7,1.1-7.5,2.7-9.8c2.1-3,5.4-4.2,9.5-5.7c1.6-0.6,3.1-1.2,4.9-1.9c3.5-1.6,6.8-3.5,10-5.6c2.8-2,5.9-3.6,9.1-4.9
			c2.9-0.9,6-1.5,9-1.7c2.1-0.1,4.2-0.4,6.2-0.9c1.3-0.3,2.5-0.8,3.7-1.3c2.3-1,4.3-1.8,6.8-0.9c4.1,2.8,1.7,7.8-1,13.6
			c-1.1,2.2-2,4.4-2.9,6.7c-1,3.3-1.8,6.7-2.1,10.2c-0.9,6.1-1.6,10.9-6.8,14.5c-1.4,0.9-3,1.4-4.6,1.7c-2.4,0.5-4.9,1-6.6,4.2
			l0,0.1c-0.8,3.1,0.4,6,1.7,9.1c0.7,1.6,1.3,3.1,1.8,4.8c0.5,1.8,0.8,3.7,1,5.6c0.4,3.1,0.9,6.3,2.3,8.8c5.1,9.5,19,14.4,29.2,10.4
			c3-1.2,5.1-3.4,7.2-5.6c1.1-1.2,2.3-2.4,3.5-3.4c2.2-1.7,4.5-3.2,6.9-4.5c3.3-1.8,6.4-3.9,9.4-6.2c2-1.7,3.9-3.6,5.7-5.5
			c6-6.2,11.6-12.1,23.4-10.3c6.2,0.9,22,6.4,26.5,9.4c7,4.8,11.6,13.5,17,23.6c2.4,4.5,4.8,9.1,7.7,13.8c5,8.2,11.8,14.4,18.5,20.5
			c9.1,8.4,17.8,16.3,21.5,28.8c3.8,12.6-0.4,15.5-9.6,22c-1.2,0.8-2.5,1.7-3.8,2.7c-2.8,2.1-5.4,4.4-7.8,6.9c-1.5,1.5-3,3-4.4,4.2
			c-1.5,1.3-2.8,2.3-4.2,3.3c-3.6,2.7-6.7,5-8.6,10.2c-5.6,15,6.3,32.3,20.6,37.8c3.6,1.3,6.9,1,10.6,0.6c2-0.2,4-0.4,6.1-0.4h3
			c7.6,0,17-0.1,23.9,1.3c5.5,1.1,9.7,3.1,14.2,5.3c3.5,1.8,7.1,3.3,10.8,4.5l0.2,0l0.1,0c10.9-3.8,9.7-12.7,8.6-21.3
			c-0.7-5.3-1.5-10.8,0.9-14.9c1.6-2.8,5.1-5.1,8.7-7.6c7-4.7,15-10.2,11.9-20.6v0c-2.9-7.9-6.7-15.4-11.3-22.4
			c-1.6-2.1-3.3-4.1-5.2-6c-4.8-4.9-9.8-10-7.6-17.8c1-3.4,3.4-6.2,5.8-9c2-2.1,3.7-4.5,5.1-7c4-8.2,5.8-22.6,4-32.8
			c-0.2-1.1-0.6-2.2-1.1-3.3c-0.4-1-0.8-2-1-3c-0.4-2.5-0.7-5-0.8-7.5c-0.2-3.2-0.3-6.2-1.4-9c-1.3-3.1-2.9-6-4.8-8.7
			c-1-1.6-2.1-3.3-3.1-5c-0.7-1.2-1.2-2.5-1.8-3.8c-1.4-3.2-2.8-6.5-5.9-8.8l-0.1-0.1h-0.1c-6.4-0.1-11.7,2.3-16.8,4.6
			c-6,2.7-11.7,5.3-18.6,3.4c-6.1-1.7-10.6-7.4-14.9-12.9c-1.7-2.2-3.5-4.4-5.4-6.4c-1.4-1.4-2.9-2.7-4.4-3.9
			c-3-2.5-5.8-4.9-6.9-7.7c-3.8-9.3,3.8-26.4,10.4-33.7C638,91.9,640.3,89.8,642.7,87.9z"/>
		<path class="st0" d="M795.8,99.5c-0.2-2.4-0.5-4.9-2.7-6.5l-0.1-0.1l-0.1,0c-1-0.2-2-0.3-3-0.3c-8.3,0-15.1,6.2-21.1,11.8
			c-2,1.8-3.9,3.6-5.9,5.1l-0.2,0.1l0,0.2c-0.8,11.8,8.4,24.5,18.3,25.2c4.1,0.5,8.1-1.1,10.8-4.3c5.6-6.4,6.4-19.1,4.5-28.4v0
			C796,101.4,795.9,100.4,795.8,99.5z M791.1,130.1c-2.5,2.9-6.2,4.4-10,4c-9.2-0.7-18.2-13-17.5-24c1.9-1.5,3.8-3.2,5.8-5
			c6.9-6.3,14.1-12.9,23.2-11.2c1.8,1.4,2.1,3.6,2.3,5.8c0.1,1,0.2,2,0.5,2.9C797.3,111.6,796.4,123.9,791.1,130.1z"/>
		<path class="st0" d="M879,260.5c-0.7-1.9-1.4-3.9-2.1-5.9c-2.3-6.8-4.8-13.8-9-19.5c-1.5-1.8-3.1-3.5-4.9-5
			c-1.9-1.7-3.6-3.4-5.3-5.3c-2.3-2.9-4.3-6-6-9.2c-1.9-3.5-4.1-6.8-6.5-9.9c-6.3-7.3-13.2-14.2-20.5-20.6c-1.5-1.3-3-2.7-4.5-4
			c-6.7-6.1-12.9-11.9-19.8-14.7c-2.8-1-5.7-1.7-8.7-2.1c-2.2-0.4-4.5-0.9-6.5-1.4c-2.3-0.6-4.7-1.4-7.3-2.2c-6.3-2-13-4.2-18.4-4.2
			c-4.2,0-7.5,1.3-9.3,4.9c-1.8,3.6,0.5,8.7,3.1,14.6c0.8,1.7,1.5,3.5,2.2,5.3c1.5,4,2.7,8.1,3.6,12.3c1.7,6.7,3.2,13.1,8.4,19.7
			c5,6.3,12.2,10.6,19.1,14.8c9.5,5.7,18.5,11.1,21.2,21c1,3.8,0.9,8.3,0.8,12.6c-0.1,4.7-0.2,9.5,1.1,13.5c3,8.9,9,14.4,16.7,15.2
			c3.7,0.4,7-1.3,10.5-3.1c2.7-1.5,5.6-2.6,8.6-3.3c3.6-0.5,7,0.7,10.5,2c5,1.8,10.2,3.7,16.1,0.1c6.3-3.9,8.5-12.2,6.8-25.5
			L879,260.5z M871.8,285.3c-5.5,3.4-10.3,1.6-15.3-0.2c-3.5-1.3-7.2-2.6-11-2c-3.1,0.6-6.1,1.8-8.9,3.4c-3.4,1.7-6.5,3.3-9.9,3
			c-10.3-1.1-14.5-10.5-15.9-14.6c-1.3-3.8-1.2-8.6-1-13.2c0.1-4.4,0.2-8.9-0.8-12.8c-2.8-10.3-11.9-15.8-21.6-21.6
			c-6.9-4.1-14-8.4-18.9-14.6c-5.1-6.4-6.5-12.4-8.2-19.3c-0.9-4.2-2.2-8.4-3.7-12.4c-0.7-1.8-1.5-3.6-2.3-5.3
			c-2.4-5.4-4.7-10.6-3.1-13.8c3.7-7.6,15.8-3.7,26.5-0.2c2.6,0.8,5.1,1.6,7.3,2.2c2.1,0.5,4.4,1,6.6,1.4c2.9,0.4,5.7,1.1,8.5,2.1
			c6.7,2.8,12.9,8.5,19.5,14.5c1.5,1.4,3,2.7,4.5,4.1c8.9,7.9,15.8,14.8,20.4,20.4c2.4,3.1,4.5,6.4,6.4,9.8c1.8,3.3,3.8,6.4,6.1,9.3
			c1.7,1.9,3.5,3.7,5.4,5.4c1.7,1.5,3.3,3.1,4.8,4.9c4.2,5.6,6.5,12.5,8.9,19.2c0.7,2,1.4,4,2.1,5.9
			C879.8,273.7,877.7,281.7,871.8,285.3L871.8,285.3z"/>
		<path class="st0" d="M850,235.4c-4.7-5.3-7.4-11.1-9.9-16.7c-2.3-5-4.4-9.7-7.9-14c-3.1-3.5-6.5-6.7-10.3-9.5
			c-1.8-1.4-3.6-2.9-5.5-4.5c-2-1.8-4-3.8-5.8-5.9c-2.4-2.8-5-5.3-7.8-7.5c-6.1-4.2-13.3-6.6-20.8-6.8c-4.6,0-8.8,1.3-11.4,4.5
			c-7.4,9-1.1,28.2,8.9,36.9c4,3.5,9.6,4.8,14.6,6c2.7,0.5,5.4,1.3,7.9,2.4c5.7,2.8,8.6,7.4,11.5,11.9c2.4,3.8,4.6,7.3,8.3,9.3
			c3.4,1.8,7.2,1.6,10.9,1.5c3-0.1,5.8-0.2,8.3,0.6c3.6,3.3,5.5,8.5,7.4,13.5c3.1,8.4,6.3,17.1,17.4,17.2h0.1l0.1,0
			c1.9-0.5,3.5-1.8,4.3-3.6l0-0.1c2.3-11.8-7.8-22.1-15.8-30.4C852.8,238.4,851.3,236.9,850,235.4z M869.3,270.3
			c-0.8,1.5-2.1,2.6-3.7,3c-10.4-0.1-13.4-8.1-16.4-16.5c-1.9-5.2-3.9-10.5-7.7-14l-0.2-0.1c-2.7-0.9-5.8-0.8-8.7-0.7
			c-3.6,0.1-7.3,0.2-10.5-1.4c-3.5-1.8-5.6-5.3-8-8.9c-2.8-4.4-5.9-9.4-11.9-12.3c-2.6-1.1-5.3-1.9-8.1-2.5
			c-4.9-1.2-10.3-2.4-14.2-5.8c-9.8-8.5-15.9-26.9-8.8-35.6c6-7.4,22.9-3.6,30.9,2.5c2.8,2.2,5.4,4.7,7.7,7.4c1.8,2.1,3.8,4.1,5.9,6
			c1.9,1.6,3.8,3.1,5.6,4.5c3.7,3,7.2,5.7,10.2,9.4c3.4,4.2,5.5,8.8,7.7,13.7c2.5,5.7,5.2,11.5,10,16.9c1.3,1.5,2.9,3.1,4.5,4.7
			C861.6,248.9,871.4,259,869.3,270.3z"/>
		<path class="st0" d="M796.2,183.1c-1.9-1.1-4.1-1.7-6.3-1.8c-2.9,0-5.7,1.4-7.3,3.8c-3,4.1-2.8,8.8,0.4,13.1
			c4.7,6.1,15.6,10.5,25,7l0.2-0.1l0.1-0.2C810.9,197.7,803.9,187.2,796.2,183.1z M807.5,204.5c-9,3.3-19.3-0.9-23.7-6.8
			c-3-4-3.1-8.2-0.4-11.9c3.8-5.3,9.4-3.4,12.4-1.8C802.9,187.8,809.7,197.7,807.5,204.5z"/>
		<path class="st0" d="M825.4,384.6c-4.6-4.9-11-7.6-17.7-7.7c-4-0.1-7.9,1.2-11.1,3.7l-0.1,0.1c-3.6,6.3-3.4,16.1,0.5,22.8
			c2.6,4.5,6.5,7,10.9,7h0c5,0,14.2-6.3,17.9-13.7C828.2,392.3,828,388.1,825.4,384.6L825.4,384.6z M825.1,396.4
			c-3.5,7-12.5,13.2-17.1,13.2h0c-4.1,0-7.7-2.3-10.1-6.5c-3.7-6.4-3.9-15.8-0.5-21.8c8-6.4,21.1-3.2,27.5,4
			C827.7,389.2,826.5,393.5,825.1,396.4L825.1,396.4z"/>
		<path class="st0" d="M776.1,277.9l0.2,0.2l0.2-0.2c1.9-1.5,3-3.8,3.2-6.3c0.3-2.7-0.5-5.4-2.2-7.5l-0.1-0.1
			c-1.6-1.1-3.5-1.7-5.4-1.7c-1.9,0-3.8,0.5-5.4,1.4c-2.5,1.3-3.8,4-3.4,6.8l0.1,0.2c1.9,2.8,5.2,4.1,8.5,5.3
			C773.3,276.6,774.7,277.2,776.1,277.9z M764.2,270.3c-0.3-2.3,0.8-4.6,2.9-5.7c3.1-1.8,7.3-1.7,9.7,0.1c1.5,1.9,2.3,4.4,2,6.8
			c-0.1,2.1-1,4-2.5,5.4c-1.3-0.7-2.7-1.2-4-1.7C769.1,274,765.9,272.9,764.2,270.3z"/>
		<path class="st0" d="M565,262.7c-4-0.9-7.7-1.8-10.6-4.7c-3.7-3.8-3.8-8.7-3.8-13.4c0.1-2.6-0.2-5.2-0.7-7.8l-0.1-0.2l-0.2-0.1
			c-5.6-2.7-13-4.2-20.8-5.9c-4.7-0.9-9.5-1.9-14-3.2c-1.9-0.6-3.7-1.3-5.4-2.1c-4-1.7-8.2-3.5-11.9-3c-2.6,0.4-5.6,2.5-8.8,4.9
			c-2.5,2-5.2,3.7-8.1,5.2c-3.1,1.3-6.3,2.1-9.6,2.5c-2.6,0.4-5.1,1-7.5,1.9c-3.8,1.6-7.2,4.9-10.8,8.4c-1.5,1.4-3,2.9-4.6,4.3
			c-1.5,1.3-3,2.4-4.6,3.5c-1.9,1.3-3.7,2.7-5.3,4.4c-5.4,6.5-6.5,13.9-3.6,23.2c-0.6,3.3-1.5,6.6-2.6,9.8
			c-1.3,3.7-2.3,7.4-2.8,11.3c-0.3,2.6-0.3,5.3-0.1,7.9c0.1,3.7,0.2,7.2-0.8,10.6c-0.8,2.2-1.8,4.4-3,6.4c-2.6,4.5-5.3,9.2-2.6,15.3
			l0.1,0.1c6.5,6.3,6.1,14,5.5,23.9c-0.4,5.4-0.4,10.8,0,16.2c0.8,7.7,3.8,17.4,6.6,25.9c2.7,8.2,5.5,15.7,9.4,17.9
			c1.7,1,3.6,1.5,5.6,1.6c5.7,0,10.8-4.7,15.7-9.3c5.6-5.2,11.4-10.6,18.4-9.8c1.3,0.3,2.6,0.7,4,1.1c8.9,2.5,20,5.7,35.1,4.4
			c17.1-1.4,21.2-5.5,22.3-21.9c0.5-7.7,0.4-12.9-0.4-16.2c-1.1-4-2.6-7.9-4.3-11.6c-4-9.6-8.5-20.4-5.4-26.9
			c1.5-3.2,4.5-4.9,7.4-6.6c1.5-0.8,3-1.7,4.3-2.8c3.4-3,6.6-6.2,9.7-9.5c3.3-3.5,6.8-7.1,10.4-10.4c5.8-5.3,15.6-14.3,16.5-21
			c0.9-6.7-4-16.3-7.7-19.7C572.8,264.5,568.8,263.6,565,262.7z M582.6,286.9c-0.9,6.4-10.8,15.6-16.2,20.5
			c-3.6,3.4-7.1,7-10.5,10.5c-3,3.3-6.2,6.5-9.6,9.5c-1.3,1-2.7,1.9-4.2,2.7c-3,1.7-6.2,3.5-7.8,7c-3.3,6.9,1.3,17.9,5.4,27.6
			c1.7,3.7,3.1,7.6,4.3,11.5c0.8,3.2,0.9,8.5,0.4,15.9c-1,15.9-4.8,19.6-21.4,21c-14.9,1.2-25.9-1.9-34.7-4.4
			c-1.4-0.4-2.8-0.8-4.1-1.2c-7.4-0.8-13.4,4.7-19.2,10.1c-6.5,6.1-12.6,11.8-20.2,7.6c-4-2.2-7-11.3-9-17.4
			c-2.8-8.4-5.8-18-6.6-25.7c-0.5-5.4-0.5-10.7,0-16.1c0.6-9.6,1.1-17.9-5.7-24.5c-2.4-5.7,0.1-9.9,2.7-14.4
			c1.3-2.1,2.3-4.3,3.1-6.6c1-3.6,0.9-7.3,0.8-10.9c-0.2-2.6-0.1-5.2,0.2-7.8c0.6-3.8,1.5-7.5,2.8-11.1c1.1-3.3,2-6.6,2.6-10l0-0.1
			l0-0.1c-2.9-9.2-1.8-16.2,3.4-22.5c1.5-1.6,3.2-3,5.1-4.2c1.6-1.1,3.2-2.3,4.7-3.6c1.6-1.4,3.1-2.9,4.6-4.3
			c3.6-3.5,6.9-6.7,10.5-8.3c2.4-0.9,4.8-1.5,7.3-1.8c3.4-0.4,6.6-1.3,9.8-2.6c2.9-1.5,5.7-3.2,8.2-5.3c3.1-2.3,6-4.4,8.3-4.7
			c3.4-0.5,7.5,1.3,11.4,3c1.8,0.8,3.7,1.5,5.6,2.1c4.5,1.3,9.4,2.3,14.1,3.2c7.7,1.6,15,3,20.4,5.7c0.5,2.4,0.7,4.9,0.6,7.3
			c0.1,4.9,0.1,10,4.1,14.1c3,3.1,7.1,4,11,4.9c3.7,0.9,7.5,1.7,10.4,4.4C578.7,271.3,583.4,280.5,582.6,286.9z"/>
		<path class="st0" d="M828.2,375.1c-8-4.5-19.8-6.9-28.5-6.9c-4.3,0-7.9,0.6-9.9,1.8c-2.9,1.7-5.3,6.5-6.8,13.4
			c-2.5,11.3-2.4,27.5,2,34c3.2,4.7,7.4,7.6,12.2,8.3c5.7,0.9,12-1.1,18.2-5.8c10.2-7.8,22.2-20.1,20.9-34.6
			C836.2,381.6,833.5,378.1,828.2,375.1z M814.8,419.2c-5,3.9-10.1,5.9-14.9,5.9c-0.9,0-1.7-0.1-2.6-0.2c-4.6-0.8-8.5-3.4-11.5-7.9
			c-4.2-6.1-4.3-22.1-1.9-33.2c1.5-6.7,3.8-11.3,6.4-12.9c5.7-3.4,26-1.4,37.5,5.1c3.5,1.9,7.6,5.2,7.6,9.5v0
			C836.6,399.5,824.8,411.6,814.8,419.2z"/>
		<path class="st0" d="M825.8,362.5c-1.8-0.3-3.7-0.4-5.6-0.3c-2.2,0.1-4.4,0.1-6.6-0.1c-1.7-0.1-3.7-0.4-5.8-0.7
			c-3.7-0.7-7.5-1-11.2-1.1c-2.5,0-4.9,0.3-7.3,0.9c-8.7,2.5-18.2,9.8-18.6,19.7c0.1,2.3,0.5,4.5,1.2,6.7c0.7,2.2,1.1,4.4,1.4,6.7
			c0.4,3.2,0.4,6.5,0.4,9.7c0.1,5.8,0.1,11.3,1.9,16.2c2.8,7.7,10.1,15.7,17.4,19c3.9,1.8,7.6,2.1,10.8,1c2.6-1,5.1-3.5,7.8-6.2
			c1.1-1.1,2.2-2.2,3.4-3.3c16.8-15.5,30.9-30,31.6-50.8v-0.1C845,371.7,833.3,364.5,825.8,362.5z M814.3,430
			c-1.2,1-2.3,2.2-3.4,3.3c-2.6,2.6-5,5.1-7.4,6c-2.9,1.1-6.4,0.8-10.1-0.9c-7-3.2-14.1-11-16.9-18.5c-1.7-4.7-1.8-10.1-1.8-15.9
			c0-3.3-0.1-6.5-0.4-9.8c-0.3-2.3-0.8-4.6-1.5-6.8c-0.7-2.1-1.1-4.3-1.2-6.4c0.3-9,9.2-16.3,17.9-18.8c5.7-1.6,12.3-0.7,18.2,0.2
			c2.1,0.3,4.1,0.6,5.9,0.7c1.4,0.1,2.7,0.2,4,0.2c1,0,1.9,0,2.7,0c1.8-0.1,3.5-0.1,5.3,0.2c6.4,1.7,18.5,8.5,20,16.4
			C844.8,400.3,831,414.6,814.3,430L814.3,430z"/>
		<path class="st0" d="M365.1,228.3c-5.8-0.2-11.6,2.8-17.7,5.9c-4.9,2.5-9.9,5.2-15.1,6.1c-2.7,0.4-5.4,0.5-8.1,0.4
			c-4.7,0-9.6,0-12.4,1.6c-3.8,2-6.6,5.6-7.6,9.7c-1.1,4.9-0.1,10,2.7,14.1c2.9,4.3,13.3,12.4,20.1,17.7c1.1,0.9,2.1,1.6,3,2.3
			c4.4,3.5,9,6.7,14,9.4l0,0c6.3,2.9,12.2,4.3,17.6,4.1l0.1,0c7.3-2.5,10.7-8.1,14.6-14.7c1.8-3.1,3.7-6.1,5.9-9
			c2-2.6,5.3-5.2,8.5-7.7c3.6-2.8,7.2-5.6,9.4-8.7c0.9-1.2,1.6-2.6,1.9-4.1c0.6-3.7-0.6-7.4-3.5-11.1
			C391.4,235.7,375.1,228.7,365.1,228.3z M401.1,255.3c-0.8,4.4-5.9,8.4-10.9,12.2c-3.3,2.5-6.6,5.2-8.7,7.8
			c-0.4,0.5-0.8,1.1-1.2,1.6c-1.8,2.5-3.3,5-4.7,7.5c-3.8,6.4-7.1,11.9-14,14.3c-5.2,0.1-11-1.2-17.1-4c-4.9-2.7-9.5-5.8-13.8-9.3
			c-0.8-0.7-1.9-1.5-3-2.3c-6.4-5-17.1-13.3-19.9-17.5c-2.7-3.9-3.6-8.8-2.5-13.4c0.9-3.9,3.5-7.3,7.1-9.1c2.6-1.4,7.3-1.4,11.9-1.5
			c2.8,0.1,5.6-0.1,8.3-0.4c5.3-1,10.4-3.6,15.4-6.2c6-3.1,11.7-6.1,17.2-5.8c9.7,0.4,25.8,7.3,32.6,15.8
			C400.5,248.5,401.7,252,401.1,255.3L401.1,255.3z"/>
		<path class="st0" d="M397,223.2l-0.1-0.1l-0.1-0.1c-2.7-1.7-6.3-1.6-10-1.5c-1.8,0-3.6,0.1-5.5,0c-2.3-0.2-4.6-0.6-6.8-1.1
			c-2.7-0.7-5.5-1-8.3-1.1c-5.4,0.1-11.2,3.1-17.3,6.3c-6.9,3.5-14.1,7.2-21.7,7.6c-2.6,0.2-4.9,0.1-7.2,0.1
			c-8-0.1-13.9-0.1-20.9,8.1c-6.1,7.1-8.6,12.9-7.9,18.3c1,8.2,9.6,14.3,20.4,22.2c3.8,2.7,7.7,5.6,11.8,8.8
			c2.4,1.9,4.5,3.8,6.5,5.6c3.4,3.1,6.5,6,10.2,8l0.1,0.1c2.4,0.6,4.8,1.4,7.1,2.5c5.2,2.2,11.1,4.7,16.1,3.3
			c6.9-1.9,11.5-10.2,16.4-18.9c3.4-6.1,6.9-12.4,11.3-16.7c1.6-1.4,3.3-2.6,5.1-3.6c4.1-2.6,9.3-5.8,12.6-10.4
			c1.4-1.9,2.4-4.1,2.9-6.5c1.7-8.2-4-15.6-9-22.2C400.3,228.7,398.1,225.8,397,223.2z M410.8,253.8c-1.7,7.9-9.4,12.8-15,16.3
			c-1.9,1.1-3.6,2.3-5.2,3.7c-1.7,1.6-3.2,3.4-4.5,5.3c-2.6,3.8-4.9,7.6-7,11.7c-4.8,8.6-9.2,16.7-15.8,18.5
			c-4.7,1.3-10.5-1.2-15.5-3.3c-2.3-1.1-4.7-1.9-7.2-2.6c-3.6-2-6.7-4.8-10-7.8c-2-1.9-4.2-3.8-6.5-5.6c-4.1-3.3-8-6.1-11.9-8.8
			c-10.6-7.7-19.1-13.8-20-21.5c-0.6-5,1.8-10.6,7.7-17.5c6.7-7.9,12.3-7.8,20.2-7.8c2.3,0,4.6,0,7.3-0.1c7.9-0.5,15.1-4.2,22.1-7.7
			c6.1-3.1,11.8-6,17-6.2c2.7,0.1,5.4,0.4,8.1,1.1c2.3,0.5,4.6,0.9,6.9,1.1c1.9,0.1,3.8,0.1,5.6,0c3.7-0.1,6.9-0.2,9.4,1.3
			c1.2,2.7,3.4,5.6,5.8,8.7C406.9,238.8,412.4,246,410.8,253.8z"/>
		<path class="st0" d="M381.7,243.4c-7.6-4.5-18.8-6.8-25-5.2c-9.3,2.4-25.5,9.9-28.6,15.5c-4.9,8.6,1.8,15.6,7.7,21.7l1.1,1.2
			c0.8,0.9,1.7,1.8,2.5,2.8c3.4,3.9,7.2,8.3,13.8,11.2c9.2,4.9,15.7-4.5,23.3-15.4c2-2.9,4.1-5.8,6.3-8.7c0.7-0.9,1.5-1.8,2.2-2.7
			c1-1.2,1.9-2.3,2.8-3.5c1.8-2.5,2.9-5,2.2-7.8C389.1,249.4,386.2,246.1,381.7,243.4z M384.2,263.4c-0.7,0.9-1.5,1.8-2.2,2.7
			c-1.2,1.6-2.4,3.2-3.6,4.9c-0.9,1.3-1.8,2.6-2.7,3.8c-7.3,10.5-13.7,19.6-22.1,15.1l0,0c-6.4-2.9-10.2-7.2-13.5-11
			c-0.9-1-1.7-1.9-2.5-2.8l-1.1-1.2c-6-6.2-12.2-12.6-7.6-20.6c3-5.2,18.8-12.6,28.1-15.1c6-1.6,17,0.7,24.3,5.1
			c4.3,2.6,7,5.6,7.8,8.7C389.9,256.7,387.3,259.8,384.2,263.4z"/>
		<path class="st0" d="M366.9,247.4c-7.9-1.4-18.2,2.2-20.8,10.6c-2.7,8.6,4,20.8,13,23.8l0.2,0c4.5-0.6,10-5,13.7-10.3
			c2.6-3.6,4.4-7.7,4.6-11.1C378,253.5,374,248.6,366.9,247.4z M376.7,260.3c-0.4,7.9-10.3,19.6-17.4,20.6
			c-8.6-2.9-14.9-14.5-12.3-22.6c2.5-7.9,12.2-11.3,19.8-9.9C373.3,249.5,377,253.9,376.7,260.3L376.7,260.3z"/>
		<path class="st0" d="M532.9,282.5c-2.1-2.3-3.9-4.9-5.4-7.6c-1.4-2.9-2.5-5.8-3.4-8.9c-1.3-4.2-2.5-8.1-5.4-11.3l-0.1-0.1
			c-9.9-5.3-28.8-10-37.4,0.1c-1.4,1.7-2.3,4.9-3.4,8.7c-1.2,4.5-2.6,9.5-5.3,12.5c-2.1,2.3-4.7,4.1-7.6,5.3
			c-1.5,0.7-2.9,1.5-4.2,2.4c-6.6,5.1-15.9,17.6-12.6,29.2c2.5,8.9,8.7,13.1,16.5,18.4c2.5,1.7,5.1,3.5,7.8,5.5
			c-15.2,8.8-37.6,22.1-30.7,45.8l0,0.1c0.5,1,1,2.1,1.4,3.3c1.8,4.3,3.8,8.8,8.6,10.3l0.1,0l0.1,0c8.7-1.8,13-4.1,17.3-9.1
			c2.6-3,3.5-6.8,4.3-10.4c0.7-3.1,1.4-6.3,3.3-9.1c2.8-4.3,8.5-7.5,12.8-9.1c2-0.6,4-1,6.1-1c3.1-0.2,6.2-0.3,9.4-2.3
			c4.5-2.7,6.1-8.1,7.6-13.3c0.6-2.3,1.5-4.6,2.4-6.8c3-5.9,8.2-9.6,12.7-12.7c3.7-2.5,7.1-5,9.1-8.2c4.3-7.3,4-16.9,1.7-22.8
			C537.6,288.2,535.3,285.5,532.9,282.5z M536.3,313.8c-1.9,3.1-5.2,5.4-8.8,7.9c-4.6,3.3-9.9,7-13,13.1c-1,2.2-1.9,4.6-2.5,6.9
			c-1.5,5-3.1,10.2-7.2,12.7c-3,1.8-6,2-9,2.1c-2.2,0-4.3,0.3-6.4,1c-4.5,1.6-10.3,5-13.3,9.5c-1.9,2.9-2.7,6.2-3.4,9.4
			c-0.9,3.7-1.7,7.2-4.1,10c-4.1,4.8-8.3,7-16.7,8.8c-4.3-1.5-6.1-5.7-7.9-9.8c-0.5-1.1-0.9-2.3-1.5-3.3
			c-6.7-23.3,15.9-36.4,30.9-45l0.6-0.4l-0.5-0.4c-2.9-2.3-5.7-4.2-8.4-6c-7.6-5.2-13.7-9.3-16.1-17.9c-3.2-11.2,5.9-23.3,12.3-28.3
			c1.2-0.9,2.6-1.7,4-2.3c3-1.3,5.7-3.2,7.9-5.5c2.7-3.1,4.2-8.3,5.5-12.8c1-3.5,1.9-6.8,3.2-8.3c8.2-9.6,26.5-5.1,36.1,0.1
			c2.7,3,3.9,6.8,5.2,10.9c0.9,3.1,2,6.2,3.5,9.1c1.6,2.8,3.4,5.3,5.6,7.7c2.4,2.9,4.6,5.6,5.8,8.7
			C540.2,297.7,540.3,307.1,536.3,313.8z"/>
		<path class="st0" d="M548.6,279.9c-3-2.9-6.5-6.1-9-11.4c-1.5-3.3-2.7-6.7-3.7-10.1c-2.1-7.1-4-13.2-11.5-17
			c-2.5-1.3-5.8-1.6-9.4-2c-1.6-0.2-3.3-0.4-4.9-0.7c-1.8-0.3-3.5-0.7-5.2-1.1c-3.4-0.8-6.7-1.6-9.6-1.3c-2.4,0.2-5.5,1.5-8.8,2.9
			c-2.2,0.9-4.5,1.9-6.7,2.6c-1.7,0.5-3.4,0.9-5,1.3c-6.2,1.5-12,2.8-15.2,10.8c-1.2,3.1-1,5.8-0.7,8.6c0.4,2.9,0.3,5.9-0.5,8.8
			c-2.5,4.8-6.1,9-9.6,13c-5.7,6.6-11,12.8-12.1,21.2c-0.6,5,0.7,9.4,2.1,14.1c1.3,4.4,2.8,8.9,2.4,14.1
			c-6.9,16.8-6.9,35.8-6.1,50.6l0,0.1l0.1,0.1c1.5,2.5,2.3,6.7,3.1,11.2c1.6,8.6,3.4,18.4,11,20.7c0.7,0.2,1.5,0.3,2.2,0.3
			c4.7,0,9.4-4.4,14.3-9c5.4-5.1,11.1-10.4,17.3-10.5c3.3,0,5.8,1.4,8.7,3.2c2.9,1.9,6,3.3,9.2,4.3c8,2.3,23.2,1.3,29.6-5.6
			c4.7-5.1,5.8-14.8,2.2-20c-1.7-2.5-4.1-3.6-6.6-4.8c-2.7-1.1-5.2-2.7-7.3-4.6c-1.8-3.7-0.5-7.6,0.9-11.9c0.4-1.4,0.9-2.9,1.3-4.4
			c0.5-2.5,0.9-5,1.2-7.6c0.5-4.9,1-9.2,4.1-13.3c1.5-1.9,4.1-3.5,6.9-5.3c3.1-1.8,5.9-3.9,8.5-6.3c5-5.2,13-19.6,13.8-26.2
			C556.6,287.5,552.9,284,548.6,279.9z M554.8,294.7c-0.8,6.5-8.6,20.7-13.5,25.7c-2.5,2.4-5.3,4.5-8.3,6.2
			c-2.8,1.8-5.5,3.4-7.1,5.5c-3.3,4.2-3.8,8.8-4.3,13.7c-0.2,2.5-0.6,5-1.2,7.5c-0.3,1.4-0.8,2.9-1.3,4.3c-1.4,4.3-2.7,8.6-0.8,12.7
			l0.1,0.1c2.2,2.1,4.8,3.7,7.6,4.9c2.5,1.2,4.6,2.1,6.2,4.4c3.3,4.8,2.2,14.1-2.1,18.9c-6.2,6.7-20.9,7.6-28.7,5.3
			c-3.2-1-6.2-2.4-9-4.2c-3-1.8-5.7-3.4-9.3-3.4c-6.6,0.1-12.3,5.5-17.9,10.7c-5.5,5.1-10.7,10-15.6,8.5c-7.1-2.2-8.8-11.7-10.4-20
			c-0.8-4.5-1.6-8.8-3.2-11.5c-0.8-14.6-0.8-33.5,6-50.1l0-0.2c0.4-5.4-1.1-10.1-2.4-14.5c-1.4-4.6-2.7-8.9-2.1-13.7
			c1-8.1,6.3-14.2,11.9-20.7c3.5-4.1,7.2-8.3,9.8-13.3c0.8-3,1-6.1,0.5-9.2c-0.3-2.7-0.5-5.3,0.6-8.2c3-7.5,8.4-8.8,14.5-10.3
			c1.7-0.4,3.4-0.8,5.1-1.3c2.3-0.7,4.6-1.7,6.8-2.6c3.3-1.4,6.3-2.6,8.6-2.8c2.7-0.3,5.9,0.5,9.2,1.3c1.7,0.4,3.4,0.8,5.3,1.1
			c1.7,0.3,3.4,0.5,5,0.7c3.4,0.4,6.7,0.7,9,1.9c7.1,3.6,8.9,9.6,11,16.5c1,3.5,2.2,6.9,3.7,10.2c2.6,5.4,6.1,8.7,9.3,11.7
			C552.2,284.6,555.6,287.9,554.8,294.7L554.8,294.7z"/>
		<path class="st0" d="M496.1,260.1c-7.8,2.8-11,10.9-14.2,18.8c-1.9,4.8-3.9,9.7-6.8,13.5c-3.8,1.8-8.2,5.3-9.4,9.9
			c-0.8,2.8-0.2,5.8,1.6,8.2c2.5,5.4,7.9,6.2,13.6,7.1c1.4,0.2,2.9,0.4,4.3,0.7c1.6,0.3,3.2,0.8,4.9,1.3c2.8,1,5.8,1.6,8.8,1.8
			c1.6,0,3.2-0.4,4.6-1.2l0.2-0.1l0-0.2c0.4-3,0-6-1.1-8.8c-0.8-1.8-1.1-3.8-1-5.7c0.6-5.1,4.1-8.3,7.4-11.4c2.5-2.3,5-4.6,6.4-7.6
			c3.1-7.5,1.7-16.2-3.7-22.3C507.9,259.5,501.6,258,496.1,260.1z M514.7,285.9c-1.3,2.9-3.7,5-6.1,7.3c-3.5,3.2-7.1,6.5-7.7,12
			c-0.2,2.1,0.2,4.2,1,6.1c1,2.6,1.4,5.4,1.1,8.1c-3.4,1.9-8,0.5-12.5-0.8c-1.7-0.5-3.4-1-5-1.3c-1.5-0.3-3-0.5-4.4-0.7
			c-5.7-0.9-10.6-1.6-12.9-6.6l-0.1-0.1c-1.6-2.1-2.2-4.9-1.5-7.4c1.1-4.3,5.4-7.6,9-9.4l0.1,0l0.1-0.1c3.1-3.9,5.1-8.9,7-13.8
			c3.2-8,6.2-15.6,13.6-18.3c1.6-0.6,3.3-0.9,5-0.9c3.7,0,7.3,1.7,9.7,4.5C516.3,270.4,517.7,278.7,514.7,285.9z"/>
		<path class="st0" d="M402.1,435.7c-2.9-3.1-8.2-5-13.5-5c-0.6,0-1.2,0-1.8,0.1c-4.9,0.4-8.8,2.3-10.9,5.5l-0.1,0.1l0,0.2
			c0.7,6.4,2.9,10,7.2,11.9c5.1,2.2,12.7-0.4,16.7-4.2c2.7-2.6,3.6-5.6,2.5-8.3L402.1,435.7z M399.1,443.5
			c-3.7,3.6-10.9,6.1-15.6,4.1c-4-1.7-6-5-6.7-10.9c2-2.8,5.6-4.6,10.1-4.9c5.7-0.4,11.5,1.4,14.5,4.6
			C402.6,439.4,400.5,442.2,399.1,443.5L399.1,443.5z"/>
		<path class="st0" d="M405.9,211.2c-2.9-2.8-10-5.7-15.2-5.4c-2.1,0.2-4.2,0.8-6,1.8c-1.9,0.9-4,1.6-6.1,2.2
			c-2.2,0.4-4.4,0.7-6.7,0.8c-2.4,0.1-4.7,0.4-7.1,0.8c-6.9,1.3-13.2,4.4-19.3,7.4c-7,3.4-13.6,6.6-20.9,7.4c-2.5,0.2-5,0.3-7.5,0.2
			c-4.9,0-9.2,0-14.2,2.7c-2.3,1.2-4.6,3.4-7,5.7c-2,2.1-4.2,3.9-6.6,5.6c-3.2,2-6.6,3.7-10.2,5c-6.3,2.6-12.3,5.1-14.1,10.7
			c-1.7,5,0.7,12,7.5,14.7l0.1,0c9.1,0.6,12.6,3.3,21.9,10.4l1.6,1.2c3.7,2.7,7.6,5.1,11.7,7.2c4.2,2.2,8.2,4.7,12.1,7.4
			c2.4,1.9,4.6,4.1,6.6,6.4c1.7,2,3.6,3.9,5.5,5.6c8.4,7.3,21.6,14.5,29.5,13.2c10.3-1.6,18-16.6,24.1-28.6c1.6-3.1,3.1-6.1,4.5-8.5
			c3.8-6.6,9.5-11.1,14.9-15.5c4.1-3.3,8-6.4,10.8-10.3c3-4.1,4.3-9.3,3.6-14.4C418.6,239.2,410.2,215.5,405.9,211.2z M404.4,269.2
			c-4.7,3.8-9.5,7.6-13.3,12.9c-0.6,0.9-1.3,1.9-1.8,2.8c-1.4,2.5-2.9,5.4-4.5,8.5c-6.1,11.8-13.6,26.6-23.4,28.1
			c-7.4,1.2-20.4-5.7-28.7-13c-1.9-1.7-3.8-3.6-5.5-5.6c-2-2.4-4.3-4.5-6.7-6.5c-3.9-2.8-8-5.3-12.2-7.5c-4-2.1-7.9-4.5-11.6-7.2
			l-1.6-1.2c-9.1-7.1-12.9-10-22.3-10.6c-6-2.4-8.4-8.9-6.9-13.5c1.8-5.2,7.5-7.7,13.6-10.2c3.6-1.4,7.1-3.1,10.3-5.1
			c2.4-1.7,4.6-3.6,6.7-5.7c2.4-2.3,4.6-4.4,6.8-5.6c4.9-2.6,9-2.6,13.8-2.5c2.5,0.1,5.1,0,7.6-0.2c7.4-0.8,14.4-4.2,21.2-7.5
			c6.1-3,12.3-6,19.1-7.3c2.3-0.4,4.6-0.7,7-0.8c2.3-0.1,4.6-0.4,6.8-0.9c2.1-0.5,4.2-1.3,6.2-2.2c1.8-0.9,3.7-1.5,5.7-1.7
			c4.9-0.3,11.8,2.5,14.5,5.2c4.2,4.1,12.5,27.8,13.2,33.4C419.8,256.8,412.7,262.6,404.4,269.2z"/>
		<path class="st0" d="M944.2,92.3c-7.7,0.5-16.3,4.2-25.6,10.9c-2.7,2.1-5.2,4.5-7.5,7.1c-5.6,6-12,12.8-22.8,14.6
			c-5.3,0.8-9,1.6-13.4,4.4l-0.1,0.1l-0.1,0.1c-3.5,5.8-3.3,9.7-2.5,14.5c1.9,12.6,9,14.5,18.9,17.2c2.1,0.6,4.2,1.1,6.4,1.8
			c1.4,0.5,2.8,1,4.2,1.5c2.3,0.9,4.6,1.7,7,2.3c4.9,1,9.5,0.8,14,0.6c3.4-0.3,6.9-0.2,10.2,0.3c5.1,0.9,9.9,3.1,14.5,5.2
			c3.9,1.9,7.9,3.5,12.1,4.6v-1c-4-1.1-8-2.6-11.7-4.5c-4.7-2.1-9.5-4.3-14.7-5.3c-3.5-0.5-7-0.6-10.5-0.3
			c-4.4,0.2-8.9,0.4-13.7-0.6c-2.3-0.6-4.6-1.3-6.9-2.2c-1.4-0.5-2.8-1-4.3-1.5c-2.3-0.7-4.4-1.3-6.5-1.9
			c-9.6-2.6-16.5-4.4-18.3-16.4c-0.7-4.8-0.9-8.3,2.3-13.8c4.2-2.6,7.9-3.4,13-4.2c11.1-1.8,17.6-8.7,23.3-14.8
			c2.2-2.6,4.7-4.9,7.4-7c9-6.5,17.7-10.2,25.1-10.7c4.7-0.3,10.1,2,15.4,4.5v-1C954.3,94.2,949,92,944.2,92.3z"/>
		<path class="st0" d="M953.4,245.1l-0.1,0.2l0.1,0.1c1.5,4.9,3.6,8.2,6.3,9.9v-1.2c-2.2-1.7-4-4.6-5.3-8.9c1.2-2.4,3-4.5,5.3-5.9
			v-1.1C956.9,239.9,954.7,242.3,953.4,245.1z"/>
		<path class="st0" d="M945.2,283.4c-0.8-0.7-1.6-1.5-2.3-2.3c-2.7-3-6-6.8-11.3-3.7c-5.6,3.3-3.3,8.9-0.9,14.8c0.5,1.3,1,2.7,1.5,4
			c0.5,1.5,0.9,3,1.3,4.4c0.3,1.5,0.8,2.9,1.3,4.3c3.4,7.8,14.4,28.4,24.1,30.3c0.2,0,0.4,0.1,0.6,0.1v-0.9c-0.1,0-0.3,0-0.4,0
			c-9.3-1.8-20.3-22.6-23.5-29.7c-0.5-1.4-1-2.7-1.3-4.2c-0.4-1.4-0.8-2.9-1.3-4.4c-0.5-1.4-1-2.7-1.6-4.1c-2.4-6-4.3-10.8,0.5-13.7
			c4.6-2.7,7.4,0.5,10.1,3.5c0.7,0.9,1.5,1.7,2.4,2.5c3.9,3.2,7.5,5.2,11,6c1.3,0.3,2.6,0.5,4,0.5v-0.9c-1.3,0-2.5-0.1-3.8-0.4
			C952.5,288.4,949,286.5,945.2,283.4z"/>
		<path class="st0" d="M943.5,116.8c-4.1,1-15.7,6.4-19.8,13.7c-1.4,2.3-1.7,5-1,7.6c2.8,8.4,20,16.9,29.8,18.2
			c2.4,0.4,4.8,0.3,7.1-0.2v-1c-1.3,0.3-2.6,0.5-3.9,0.5c-1,0-2.1-0.1-3.1-0.2c-9.6-1.3-26.3-9.5-29-17.6c-0.7-2.3-0.4-4.8,0.9-6.8
			c3.7-6.6,14.5-12.1,19.2-13.3c5.4-1.3,11.1-0.5,15.9,2.3v-1.1c-3.3-1.8-7-2.8-10.7-2.8C947.1,116.1,945.3,116.3,943.5,116.8z"/>
		<path class="st0" d="M955.9,301.7c-2.2,0-4.3,0.9-5.8,2.6l-0.1,0.2c-1.3,3.9-0.8,8.1,1.3,11.6c1.8,3.3,4.7,5.7,8.3,6.7v-1
			c-3.2-1-5.9-3.2-7.5-6.2c-1.9-3.2-2.4-7.2-1.2-10.8c2-2.1,5-2.8,7.7-1.8c0.3,0.1,0.7,0.3,1,0.4v-1c-0.2-0.1-0.5-0.2-0.7-0.3
			C958,301.9,957,301.7,955.9,301.7z"/>
		<path class="st0" d="M946.5,140.6h2.8l0.1-0.4c0-0.4,0.1-0.5,0.1-0.5c0.1,0,0.2,0,0.2,0l0.6,0.1v-2.9l-0.4,0
			c-0.4,0-0.5-0.1-0.5-0.1c0-0.1,0-0.2,0-0.3l0.1-0.6h-2.9l0,0.4c0,0.4-0.1,0.5-0.1,0.5c0,0-0.1,0-0.3,0l-0.6-0.1v2.8l0.4,0.1
			c0.4,0,0.5,0.1,0.5,0.1c0,0,0,0.1,0,0.2L946.5,140.6z M946.6,138.8v-1c0.2,0,0.3-0.1,0.4-0.2c0.2-0.2,0.4-0.5,0.4-0.8h1
			c0,0.2,0.1,0.3,0.2,0.5c0.2,0.2,0.5,0.4,0.8,0.4v1c-0.2,0-0.3,0.1-0.4,0.2c-0.2,0.2-0.4,0.5-0.4,0.8h-1c0-0.2-0.1-0.3-0.2-0.4
			C947.2,139,946.9,138.8,946.6,138.8L946.6,138.8z"/>
		<path class="st0" d="M953.5,46.9c-2.2,1.6-4.3,2.9-6.6,4.3c-3.1,2-6.3,4-10.2,6.8c-13,9.5-36.7,12.5-57.5,7.2
			c-2.1-0.5-5.8-0.4-9.4-0.3c-2.3,0.1-4.7,0.2-6.5,0.1C851.9,64.5,838.3,55,833,44c-2.6-5.4-4.3-13.8,2-22.4
			c4.1-5.5,7.7-12.2,12-19.9c0.3-0.5,0.6-1.1,0.9-1.6h-1.1c-0.2,0.4-0.4,0.8-0.7,1.2c-4.2,7.7-7.9,14.3-11.9,19.8
			c-6.6,9-4.8,17.7-2.1,23.4c5.4,11.3,19.3,21,31.1,21.7c1.9,0.1,4.2,0,6.6-0.1c3.6-0.1,7.2-0.2,9.2,0.3c21.1,5.3,45.1,2.3,58.3-7.4
			c3.8-2.8,7.1-4.9,10.2-6.8c2.2-1.4,4.3-2.8,6.6-4.3c2-1.4,3.9-3,5.6-4.8v-1.3C957.8,43.6,955.8,45.4,953.5,46.9z"/>
		<path class="st0" d="M953.5,74.4c-5.5,1-10.9,3.4-16.7,5.8c-3.7,1.6-7.5,3.2-11.3,4.5c-9,3-16,8.2-22.9,13.3
			c-7.3,5.4-14.8,11-24.6,13.7c-1.6,0.4-3.1,0.8-4.6,1.2c-14.2,3.6-25.4,6.4-22,28.3c2.3,15,6.4,24.9,12.1,29.4
			c3,2.4,9.1,4.3,12.5,5.3c2.5,0.7,5.3,1.6,8,2.4c5.7,1.7,11.5,3.5,15.3,4.1c4.3,0.6,9.2-0.1,14.4-0.8c6.9-1,14.1-2,20.9-0.1
			c7.1,2,17.2,6.9,24.9,12.4v-1.1c-7.7-5.4-17.6-10.2-24.6-12.2c-7-1.9-14.3-0.9-21.3,0.1c-5.1,0.8-10,1.4-14.1,0.8
			c-3.7-0.6-9.6-2.4-15.2-4.1c-2.7-0.8-5.5-1.7-8-2.4c-3.3-0.9-9.3-2.8-12.2-5.1c-5.5-4.4-9.5-14.1-11.8-28.9
			c-3.2-21,7.1-23.6,21.3-27.2c1.5-0.4,3-0.8,4.6-1.2c10-2.7,17.6-8.4,24.9-13.9c6.7-5,13.7-10.2,22.6-13.1
			c3.9-1.3,7.7-2.9,11.4-4.5c5.7-2.4,11.1-4.7,16.5-5.7c1.4-0.2,2.8-0.4,4.2-0.4c0.6,0,1.1-0.1,1.7-0.1v-0.9
			c-0.6,0.1-1.2,0.1-1.7,0.1C956.4,74,954.9,74.2,953.5,74.4z"/>
		<path class="st0" d="M912.3,243.3c-5.1,0.2-9.7,3-12.2,7.4c-6,9.8-5.7,28.9,2.9,34.9l0.1,0.1h0.1c5.1,0.8,9.1-3.4,12.6-7l0.5-0.6
			c6.5-6.7,15.3-15.9,14.4-24.4l0-0.1l-0.1-0.1c-4.6-6.3-11.3-10.2-17.7-10.2C912.7,243.2,912.5,243.2,912.3,243.3z M929.8,253.9
			c0.8,8-7.8,17-14.1,23.6l-0.5,0.5c-3.5,3.6-7.1,7.4-11.6,6.8c-8-5.7-8.2-24.3-2.6-33.6c2.3-4.2,6.7-6.8,11.4-7
			C918.6,243.9,925.3,247.6,929.8,253.9L929.8,253.9z"/>
		<path class="st0" d="M947.9,83.9c-8.6,1-25.7,8.1-32.1,12.8c-3.1,2.3-6,4.9-8.8,7.6c-2.1,1.9-4,3.8-6.1,5.4c-5.8,4.6-9,6-18.2,7.7
			c-1.5,0.3-2.4,0.4-3.3,0.5c-0.8,0.1-1.4,0.2-2.3,0.4c-17.8,3.8-17.2,20.5-16,27.5c2,12.9,8.2,19.6,19.9,21.9
			c5.2,1,9.9,2.3,14.4,3.6c7.9,2.2,14.7,4.2,22,3.7c2-0.1,3.8-0.4,5.6-0.7c4-0.6,7.8-1.1,11.9-0.1c3.6,0.9,8.1,3.1,12.8,5.4
			c3.9,2,7.9,3.8,12,5.4v-1c-3.8-1.4-7.8-3.4-11.6-5.2c-4.7-2.3-9.3-4.5-13-5.4c-4.3-1.1-8.2-0.5-12.3,0.1c-1.8,0.3-3.6,0.5-5.6,0.6
			c-7.2,0.5-13.9-1.4-21.8-3.6c-4.5-1.3-9.2-2.6-14.4-3.6c-11.2-2.1-17.1-8.7-19.1-21.1c-1.1-6.7-1.7-22.8,15.3-26.4
			c0.8-0.2,1.5-0.3,2.3-0.4c0.8-0.1,1.8-0.3,3.3-0.6c9.2-1.7,12.7-3.2,18.6-7.9c2.1-1.7,4.1-3.5,6.1-5.5c2.7-2.7,5.6-5.2,8.7-7.5
			c6.3-4.6,23.1-11.6,31.7-12.6c3.9-0.4,7.7,0.5,11.6,1.9v-1C955.9,84.2,951.9,83.6,947.9,83.9z"/>
		<path class="st0" d="M955.1,103.2c-1.7-1-3.6-1.7-5.5-2.3c-2-0.4-3.9-0.6-5.9-0.6c-16.5,0-28.6,15.1-38.6,27.6
			c-1.5,1.8-2.9,3.6-4.2,5.2c-0.9,1.1-1.9,2.1-3,3c-2.4,2.3-4.9,4.6-5.2,8.1v0.1l0,0.1c4.1,9.7,17.3,12.5,29.9,15.1
			c3.8,0.8,7.7,1.6,11.3,2.6c3.5,1.1,7,2.5,10.2,4.3c4.7,2.4,9.6,4.8,15.5,5.1v-0.9c-5.7-0.4-10.3-2.7-15.1-5
			c-3.3-1.8-6.8-3.3-10.4-4.4c-3.6-1-7.5-1.8-11.4-2.6c-13-2.7-25.2-5.3-29.2-14.5c0.3-3.1,2.5-5.2,4.9-7.4c1.1-1,2.1-2,3.1-3.1
			c1.4-1.6,2.8-3.4,4.2-5.2c11-13.7,24.7-30.7,43.6-26.6c1.8,0.5,3.6,1.3,5.3,2.2c1.2,0.6,2.4,1.2,3.7,1.7c0.4,0.2,0.9,0.3,1.3,0.5
			v-1c-0.3-0.1-0.6-0.2-0.9-0.4C957.5,104.4,956.2,103.8,955.1,103.2z"/>
		<path class="st0" d="M944.7,108c-10.3,0.5-24.3,9.6-29.9,19.5c-3.2,5.7-3.6,11.2-1.1,16c3,5.6,12.8,9.8,21.7,13.2
			c2,0.8,4,1.7,6.2,2.7c5.5,2.5,11.6,5.4,18.1,5.4V164c-6.2-0.1-12-2.8-17.7-5.4c-2.1-1-4.2-1.9-6.2-2.7
			c-8.8-3.4-18.3-7.5-21.2-12.8c-3-5.6-1.1-11.3,1.1-15.1c5.5-9.7,19.1-18.6,29.1-19c4.2-0.2,9.6,0.9,14.9,2.8v-1
			c-4.5-1.7-9.2-2.6-13.9-2.8C945.3,108,945,108,944.7,108z"/>
		<path class="st0" d="M50.4,80.1c-12.8,0-16.9-0.3-23.9-6.2c-0.7-0.6-1.2-1.4-1.6-2.2c-0.4-0.8-0.9-1.5-1.6-2
			c-4.4-3.2-8.2-1.3-12.5,0.8c-2.4,1.3-5,2.3-7.6,3c-1,0.2-2.1,0.3-3.2,0.4v0.9c1.1-0.1,2.3-0.2,3.4-0.4c2.7-0.7,5.3-1.7,7.8-3
			c4.2-2.1,7.6-3.8,11.6-0.9c0.6,0.5,1,1.1,1.3,1.7c0.5,0.9,1.1,1.8,1.9,2.5c7.4,6.1,12,6.4,25.2,6.4c20.1,0,27.4-3,37.3-10.1
			c9.4-6.8,31.8-8.2,49.7-6.6c4.5,0.4,8.9,1.2,13.3,2.6c6.7,2.1,12.8,5.7,17.9,8.9c0.8,0.5,1.7,1.1,2.6,1.8c1.9,1.5,4,2.7,6.3,3.7
			c0.4,0.1,0.8,0.2,1.2,0.2c0.6,0,1.3-0.1,1.9-0.2c0.7-0.2,1.4-0.2,2.1-0.2c2.1,0.1,4.2,0.6,6.2,1.4c2,0.6,4.1,1,6.2,1.2
			c1,0.1,2,0.2,2.9,0.3c3.1,0.5,6.3,1.1,9.5,1.7c5.4,1.2,11.3,2.6,18.4,4.6c2.5,0.7,5.8,0.7,9.4,0.7c2.5,0,4.9,0,7.4,0.2
			c9.1,0.9,15.6,4.2,17.5,8.7c1.5,3.7,0,8.2-4.4,13.2c-0.7,0.8-1.5,1.4-2.4,2c-2.2,1.5-4.4,3-5.4,8.7l0,0.1l0,0.1
			c1,3.3,2.1,6.7,3.3,10.2c5.6,16.6,11.4,33.8,2.6,49.5c-5.1,1.5-8.5,5.3-11.8,9c-1.8,2.1-3.8,4.1-5.9,5.9c-6.1,4.7-12.1,4-19.7,3.1
			c-2.9-0.3-5.9-0.6-9.2-0.8c-0.8-0.7-1.6-1.3-2.5-1.8c-0.7-0.5-1.3-0.9-2-1.5l-0.2-0.1c-2.4-1.1-4.7-2.5-6.6-4.4l-0.2-0.2
			c-0.4-0.4-0.8-0.7-1.3-1c-1.3-0.9-2.4-2-3.3-3.4c-0.7-1.3-2.2-4.8-1.2-7.8c0.3-0.8,0.8-1.4,1.4-1.9c1.1-0.8,2.7-1.1,5-0.9
			c3.2,0.3,6.4,0.8,9.5,1.5c3.3,0.7,6.6,1.2,9.9,1.5c8,0.9,15.2-4.9,16.1-12.9c0.2-1.5,0.1-2.9-0.2-4.4c-0.6-4.5-3-7.9-6.8-9.2
			c-2.7-1-10,0.1-15.5,1.8c-6.6,2-11.5,5.4-17.6,9.9c-1.7,0.5-2.7-0.1-4.1-0.8c-0.4-0.2-0.8-0.5-1.3-0.7l-0.6-0.3
			c-1.4-0.6-2.8-1.4-4-2.4c-3.8-3.5-7.6,0-10.4,2.5c-0.3,0.3-0.6,0.5-0.8,0.8c-1,0.9-2,1.7-2.9,2.6c-2.8,2.7-5.8,5.1-9,7.3
			c-4.5,2.8-9.2,5.3-13.9,7.5c-8.7,4.3-17,8.3-18.9,12.9c-0.9,2.1-0.9,6.3-0.8,10.7c0,2.8,0.1,5.6-0.1,8.1c-0.2,2.4-0.3,4.8-0.4,7
			c-0.2,7.2-0.5,14.1-5,21.8c-4.2,3.4-6.2,1.6-9.9-1.8c-1.6-1.6-3.4-3-5.3-4.3c-3-1.9-6.2-3.6-9.5-4.9c-3.3-1.4-6.4-2.7-8.6-4.8
			c-2.2-2.1-4.3-4.4-6.2-6.8c-2.1-2.8-4.6-5.4-7.3-7.7c-8.9-6.9-21.5-10-30.2-11.8c-4.3-0.9-7-2.4-8.4-4.7c-2.3-3.9-0.7-9.5,1-15.4
			c0.9-2.8,1.6-5.7,2.1-8.6l0-0.3l-0.2-0.2c-5.4-3.9-11.9-1.2-18.8,1.6c-3.1,1.4-6.2,2.4-9.5,3.2c-3.2,0.6-6.5,0.5-9.7-0.3v1
			c3.2,0.8,6.6,0.9,9.9,0.2c3.3-0.8,6.5-1.9,9.6-3.3c6.5-2.7,12.7-5.2,17.7-1.8c-0.5,2.8-1.2,5.5-2,8.2c-1.8,6.1-3.5,11.9-0.9,16.1
			c1.5,2.6,4.5,4.3,9,5.2c8.6,1.8,21.1,4.9,29.8,11.7c2.7,2.2,5.1,4.7,7.2,7.5c1.9,2.4,4,4.7,6.3,6.9c2.3,2.2,5.5,3.5,8.9,5
			c3.3,1.3,6.4,2.9,9.4,4.8c1.8,1.3,3.6,2.7,5.2,4.2c3.7,3.4,6.4,5.8,11.2,1.8l0.1-0.1c4.7-8,4.9-14.9,5.2-22.3
			c0.1-2.2,0.2-4.6,0.4-7c0.2-2.5,0.2-5.4,0.1-8.2c-0.1-4.3-0.1-8.3,0.8-10.3c1.9-4.2,9.9-8.2,18.5-12.4c4.8-2.2,9.5-4.7,14.1-7.5
			c3.2-2.2,6.2-4.7,9.1-7.4c1-0.9,1.9-1.7,2.9-2.6c0.3-0.2,0.6-0.5,0.9-0.8c2.8-2.5,6-5.4,9.2-2.5c1.3,1,2.7,1.9,4.2,2.5l0.6,0.3
			c0.5,0.2,0.9,0.5,1.2,0.6c1.5,0.8,2.8,1.6,4.9,0.9l0.1-0.1c6.1-4.5,10.9-7.9,17.4-9.8c5.2-1.6,12.4-2.7,14.9-1.8
			c3.4,1.2,5.6,4.3,6.1,8.4c0.6,4.6-1,10.7-6.1,14.1c-2.7,1.6-5.8,2.3-8.9,2c-3.3-0.3-6.6-0.8-9.8-1.5c-3.2-0.7-6.4-1.2-9.6-1.5
			c-2.5-0.2-4.3,0.2-5.7,1.1c-0.8,0.6-1.4,1.4-1.7,2.4c-1.1,3.2,0.5,7,1.2,8.5c0.9,1.5,2.1,2.7,3.5,3.7c0.4,0.3,0.8,0.6,1.2,1
			l0.2,0.2c2,1.9,4.3,3.4,6.8,4.5c0.6,0.5,1.3,1,2,1.5c0.9,0.5,1.7,1.2,2.4,1.9l0.1,0.1h0.2c3.4,0.1,6.4,0.4,9.3,0.8
			c7.8,0.9,14,1.6,20.4-3.3c2.2-1.8,4.2-3.8,6.1-6c3.4-3.8,6.5-7.4,11.5-8.8l0.2-0.1l0.1-0.2c9.1-16.1,3.2-33.6-2.4-50.5
			c-1.2-3.5-2.3-6.8-3.3-10.1c0.9-5.2,2.9-6.6,5-8c1-0.6,1.8-1.3,2.6-2.1c4.7-5.4,6.2-10.1,4.6-14.2c-1.9-4.9-8.6-8.3-18.2-9.3
			c-2.4-0.2-5-0.3-7.5-0.3c-3.5,0-6.8,0-9.2-0.7c-7.1-2-13-3.5-18.4-4.6c-3.2-0.7-6.4-1.3-9.5-1.7c-0.9-0.1-1.9-0.2-2.9-0.3
			c-2-0.1-4-0.5-6-1.1c-2.1-0.8-4.3-1.3-6.5-1.4c-0.8,0-1.5,0.1-2.3,0.2c-0.9,0.2-1.7,0.3-2.6,0.1c-2.1-0.9-4.2-2.1-6-3.5
			c-0.9-0.6-1.8-1.3-2.6-1.8c-5.1-3.2-11.3-6.8-18.1-9c-4.4-1.4-8.9-2.3-13.4-2.6c-4.3-0.4-9.2-0.6-14-0.6c-14,0-28.7,1.9-36.3,7.4
			c-9.7,7-16.9,9.9-36.8,9.9L50.4,80.1z"/>
		<path class="st0" d="M37.5,8.3c11.8,2.5,24.8,3.5,32.8-8.3h-1.1C61.5,10.8,49,9.8,37.7,7.4C31.2,6,29.7,3.8,27.4,0h-1.1l0.1,0.1
			C28.9,4.3,30.4,6.8,37.5,8.3z"/>
		<path class="st0" d="M66.8,67.1c2.2-0.3,4.1-1.5,5.2-3.4c1-0.6,1.5-1.7,1.3-2.8c-0.3-0.8-0.9-1.5-1.6-1.9l-0.4-0.3l-1,0.3
			c-3.3,1-8.2,2.4-8.5,6.3l0,0.2l0.1,0.1C63.2,66.9,65,67.5,66.8,67.1z M62.8,65.2c0.4-3,4.8-4.4,7.8-5.2l0.6-0.2l0.1,0.1
			c0.5,0.4,1.1,0.7,1.2,1.2c0.1,0.8-0.3,1.5-1,1.9L71.3,63l-0.1,0.2c-1,1.7-2.7,2.8-4.6,3c-0.3,0-0.6,0.1-0.9,0.1
			C64.6,66.3,63.6,65.9,62.8,65.2z"/>
		<path class="st0" d="M0,155.2v1c2.7-0.6,5.2-2,7.1-4.1c4-4.6,5-12.6,2.7-20.8c-1.5-5.2-5-9.6-9.7-12.2v1.1
			c4.3,2.5,7.5,6.6,8.8,11.4v0c2.3,7.9,1.3,15.6-2.5,20C4.7,153.3,2.5,154.6,0,155.2z"/>
		<path class="st0" d="M0,164.9c1.6,0,3.3-0.1,4.9-0.5c13.9-3,22.2-15.8,19.8-30.4c-0.6-3.7-1.9-7.1-4-10.2c-3.7-5-12.1-10-20.6-13
			v1c8.2,3,16.3,7.8,19.8,12.6c2,2.9,3.3,6.3,3.9,9.8v0c2.4,14.1-5.6,26.5-19,29.4c-1.4,0.3-2.9,0.5-4.4,0.5H0V164.9z"/>
		<path class="st0" d="M232.6,230L232.6,230c-0.6-11.6-11.2-11.1-19.6-10.6c-2.2,0.2-4.5,0.2-6.7,0.1c-0.4,0-1.2-0.6-3-3.5l-0.2-0.3
			c-0.4-0.6-0.7-1.1-1-1.7c-0.6-1.1-1.3-2.1-2.1-3.1c-2.6-3.1-5.8-3.3-9.2-3.4c-0.7,0-1.5-0.1-2.3-0.1c-1.6-0.1-3.4-0.3-5.1-0.3
			c-3.9,0-7.7,0.8-10.3,3.9c-2.4,3-4.4,6.2-5.9,9.7c-2.9,6.5-3.8,16,0.2,21.7c2.2,3.1,4.9,3.2,7.8,3.4c0.8,0,1.7,0.1,2.6,0.2
			c1.5,0.1,2.9,0.2,4.4,0.2c1.8,0,3.5,0.1,5.3,0.4c3.5,0.6,7,1.7,8.2,5.9c0.5,1.8,0.7,3.6,0.6,5.4l0,0.1c0,0.3,0,0.7,0,1.2
			c-0.1,2-0.1,3.7,0.4,4.4c6.5,8.6,18.4,5.6,27.1,3.4l1.4-0.4l0.1-0.1c6.8-6.1,6.6-14.7,6.4-22.9C231.6,238.9,231.5,234.2,232.6,230
			L232.6,230z M230.8,243.5c0.2,8.4,0.3,16.3-6,22.2l-1.2,0.3c-8.9,2.2-20,5-26.1-3.1c-0.4-0.5-0.3-2.6-0.2-3.8c0-0.4,0-0.9,0-1.3
			v-0.1c0-1.9-0.2-3.8-0.7-5.7c-1.4-4.7-5.3-5.9-9-6.5c-1.8-0.3-3.6-0.4-5.4-0.4c-1.4,0-2.9-0.1-4.3-0.2c-0.9-0.1-1.8-0.1-2.6-0.2
			c-2.9-0.1-5.2-0.2-7.1-3c-3.7-5.3-2.8-14.6-0.1-20.7c1.6-3.4,3.5-6.6,5.8-9.5c3.4-4.3,9.6-3.7,14.6-3.3c0.8,0.1,1.6,0.1,2.3,0.1
			c3.3,0.2,6.2,0.3,8.5,3.1c0.7,1,1.4,2,2,3c0.3,0.6,0.7,1.2,1,1.7l0.2,0.3c1.3,2,2.6,3.8,3.7,3.9c0.6,0.1,1.3,0.1,2,0.1
			c1.5,0,3.1-0.1,4.8-0.2c8.9-0.4,18-0.9,18.7,9.6C230.6,234.2,230.7,238.9,230.8,243.5L230.8,243.5z"/>
		<path class="st0" d="M217.1,238.9c-0.9-1.4-2.4-2.3-4-2.6c-0.5-0.1-1.1-0.1-1.6-0.1c-2.6,0-5.2,0.9-7.2,2.4l-0.1,0.1
			c-0.4,1.2-0.5,2.5-0.1,3.7l0.1,0.1c1.8,3.1,5.2,3.4,8.2,3.7c0.7,0.1,1.5,0.2,2.1,0.3l0.1,0l0.1,0c2.1-0.8,3.6-2.6,4-4.8
			C218.7,240.6,218.2,239.5,217.1,238.9z M214.4,245.7c-0.7-0.1-1.4-0.2-2.1-0.2c-2.9-0.3-5.9-0.6-7.4-3.2c-0.2-0.9-0.2-1.9,0-2.9
			c2.3-1.7,5.2-2.4,8-2c1.4,0.2,2.7,1,3.4,2.2l0.1,0.1l0.1,0c0.8,0.4,1.2,1.2,1.1,2C217.3,243.5,216.1,244.9,214.4,245.7
			L214.4,245.7z"/>
		<path class="st0" d="M0,171.5c2.8,0.2,5.6-0.1,8.4-0.8c15.7-3.9,31.3-19.4,29.3-40.4v-0.1c-3.7-14.7-16-18.3-28-21.8
			c-3.2-1-6.6-2-9.7-3.2v1c3.1,1.2,6.3,2.1,9.4,3.1c11.7,3.4,23.7,7,27.3,21.1c1.9,20.4-13.3,35.5-28.6,39.4c-2.7,0.7-5.4,1-8.2,0.8
			V171.5z"/>
		<path class="st0" d="M114,271c15.4-1.7,21.6-7.9,23.6-23.7c1.1-7.5,2.8-14.8,5.1-22c1.2-4.3,2.4-8.3,3.3-12.4l0.3-1.3
			c1.6-7.2,2.5-11.6,8.7-16.4c2-1.4,4.1-2.8,6.3-3.9c1.9-1.1,3.9-2.2,5.8-3.5c0.5-0.3,1-0.7,1.6-1c2.5-1.8,5.2-3.3,8-4.7
			c3.3-1.5,6.7-3.5,6.1-8.3c-0.2-1.6-0.8-2.6-1.9-3.1c-2.1-0.8-5.2,1.4-6.4,2.4c-3.1,2.7-6.4,5-10,6.9c-2.9,1.4-5.7,3.1-8.5,4.6
			c-0.7,0.4-1.4,0.8-2.1,1.2c-3.9,2.1-7.4,4.7-10.5,7.8c-7.7,8.1-9.1,19.9-10.3,30.4c-0.2,1.9-0.4,3.7-0.7,5.4
			c-0.2,1.5-0.4,3.1-0.6,4.8c-1.1,9-2.3,19.3-8.1,23.4c-2.7,1.9-6,2.3-10.3,1.4c-6.5-1.5-18.5-6-23.3-10.9
			c-2.9-3.2-5.4-6.7-7.5-10.5c-2.5-4.2-4.9-8.2-8.7-11.4c-9.7-8.4-23-16.6-39.2-5.6c-6.4-3.9-9.3-10.6-12-17.1
			c-2.7-6.5-5.3-12.6-11.2-15.6c-2.1-1-4.4-1.8-6.6-2.4c-1-0.3-2-0.6-3-0.9c-0.5-0.2-1-0.4-1.6-0.6v1c0.4,0.1,0.8,0.3,1.3,0.4
			c1,0.3,2,0.6,3,0.9c2.2,0.6,4.4,1.4,6.5,2.4c5.6,2.9,8.1,8.8,10.8,15.1c2.8,6.7,5.8,13.6,12.7,17.7l0.3,0.2l0.2-0.2
			c15.7-10.8,28.2-3.4,38.3,5.3c3.7,3.2,6,7.1,8.6,11.2c2.1,3.8,4.7,7.4,7.6,10.7c5.5,5.6,18.4,9.9,23.8,11.1
			c4.5,1,8.2,0.5,11.1-1.5c6.1-4.4,7.4-14.8,8.5-24.1c0.2-1.6,0.4-3.2,0.6-4.7c0.2-1.7,0.5-3.5,0.7-5.4c1.2-10.3,2.5-22,10.1-29.9
			c3.1-3,6.5-5.6,10.3-7.6c0.7-0.4,1.4-0.8,2.1-1.2c2.7-1.6,5.5-3.2,8.4-4.6c3.7-1.9,7.1-4.3,10.2-7.1c1.7-1.5,4.1-2.8,5.5-2.3
			c0.7,0.3,1.1,1,1.3,2.3c0.5,3.8-1.7,5.6-5.5,7.4c-2.8,1.4-5.5,3-8.1,4.8c-0.5,0.4-1,0.7-1.6,1c-1.9,1.2-3.9,2.4-5.7,3.5
			c-2.2,1.2-4.3,2.5-6.4,4c-6.5,5.1-7.5,9.8-9.1,16.9l-0.3,1.3c-0.9,4.1-2,8.1-3.2,12.3c-2.3,7.2-4,14.6-5.1,22.1
			c-2.3,17.3-10.1,21.5-22.8,22.9c-9.3,1-13.5,3.1-15.2,12.9l0,0.1l0,0.1c1.7,4.7,1.1,9.9-1.6,14.1c-2.7,1.2-5.7,0.8-8.1-0.9
			c-2-7.7-6.1-14.6-10.1-21.3c-4.8-8.1-9.7-16.4-10.9-26.1c0.2-0.6,0.4-1.2,0.7-1.8c0.8-1.9,1.6-4.1,0.3-6.1c-1.3-1.9-3.9-2.3-5.8-1
			c-0.9,0.8-1.6,1.9-1.9,3.1c-0.1,0.4-0.3,0.8-0.5,1.3c-4.4,3.7-8,3-12.6,2.2c-3.5-0.8-7.1-1-10.6-0.7c-5.9,0.7-11.7,3.2-17.2,5.6
			c-7.1,3.1-13.8,6-18.8,3.7c-0.6-0.3-1.1-0.6-1.6-1v1.2c0.4,0.3,0.8,0.5,1.2,0.7c5.3,2.4,12.2-0.5,19.5-3.7
			c5.5-2.4,11.2-4.8,17-5.5c3.5-0.3,7-0.1,10.4,0.6c4.7,0.9,8.7,1.6,13.5-2.5l0.1-0.2c0.2-0.5,0.4-0.9,0.6-1.4
			c0.3-1,0.8-1.9,1.6-2.6c1.5-1,3.4-0.6,4.5,0.8c1.1,1.6,0.4,3.4-0.4,5.3c-0.3,0.7-0.5,1.3-0.7,2l0,0.1l0,0.1
			c1.2,9.9,6.2,18.4,11.1,26.6c4,6.7,8.1,13.6,10,21.2l0,0.2l0.1,0.1c2.7,2,6.3,2.4,9.3,1l0.1-0.1l0.1-0.1c2.9-4.4,3.5-9.9,1.8-14.9
			C101.4,273.5,105.6,272,114,271z"/>
		<path class="st0" d="M180.9,366.5L180.9,366.5l-0.2,0c-6,1.3-10.7,5.1-15.2,8.8c-1.3,1-2.6,2.1-4,3.1c-7.1,0.7-9.8-5.3-12.4-11.1
			c-1-2.3-2.1-4.6-3.5-6.7c-1.1-1.5-1.7-1.7-3.5-1.5c-3.6,0.5-6.8-1.1-9.8-2.6c-0.9-0.4-1.8-0.9-2.7-1.3c-0.6-0.3-1.2-0.4-1.9-0.4
			c-2.1,0-3.9,1.4-5.5,2.5l-0.3,0.2c-5.4,4-9.1,10-10.4,16.6c-0.7,3.8,0.2,6.9,2.4,8.8l0.1,0.1l0.1,0c4.2,0.9,10-0.6,13.9-3.7
			c0.7-0.7,1.6-1.2,2.5-1.4c0.5-0.1,1-0.2,1.5-0.1c2.4,0,4.9,0,7.3,0h0.6c0.2,0,0.7-0.1,1.3-0.1c1-0.2,2-0.2,3-0.2
			c8.6,6.3,22.3,11,31.7,7.6c5.3-1.9,8.8-5.9,10.4-12.1l0-0.1l0-0.1C185.7,370.3,184.3,366.9,180.9,366.5z M175.7,384.3
			c-9.2,3.3-22.5-1.3-30.9-7.5c-0.4-0.3-1.4-0.2-3.7,0c-0.5,0.1-1,0.1-1.2,0.1h-0.6c-2.4,0-4.8,0-7.2,0c-0.6,0-1.2,0-1.7,0.2
			c-1.1,0.3-2.1,0.9-2.9,1.6c-3.1,2.4-8.6,4.4-13,3.5c-2.4-2.1-2.4-5.4-2-7.9c1.2-6.4,4.8-12.1,10.1-16l0.2-0.2c2.1-1.5,4.2-3,6.5-2
			c0.9,0.4,1.8,0.8,2.6,1.3c2.8,1.4,5.7,2.8,9,2.8c0.5,0,0.9,0,1.4-0.1c1.4-0.2,1.7,0,2.6,1.2c1.3,2.1,2.5,4.2,3.4,6.5
			c2.7,6.1,5.6,12.5,13.5,11.6l0.1,0l0.1-0.1c1.4-1,2.8-2.1,4.1-3.2c4.5-3.6,9-7.3,14.8-8.6c2.7,0.4,3.9,3.3,4.6,5.5
			C183.9,378.7,180.7,382.6,175.7,384.3z"/>
		<path class="st0" d="M142.3,291.5L142.3,291.5c-2.8-2.2-6.1-3.3-9.6-3.3c-2.2,0-4.3,0.5-6.3,1.3c-4.6,1.9-7.8,6.2-8.3,11.2
			c-0.4,4.3,1.4,8.5,4.9,11.2c3.2,2.3,7.4,2.7,11,1.1c6.1-2.4,7.9-8.6,9.9-15.2l0.3-1l-0.3-0.9c-0.4-1.5-1-3-1.6-4.4L142.3,291.5z
			 M143.2,297l-0.2,0.7c-1.9,6.3-3.7,12.3-9.3,14.6c-3.3,1.5-7.1,1.1-10.1-1c-3.2-2.5-4.8-6.4-4.5-10.4c0.4-4.6,3.4-8.7,7.7-10.5
			c4.9-2.2,10.5-1.5,14.7,1.7c0.6,1.4,1.1,2.8,1.5,4.2L143.2,297z"/>
		<path class="st0" d="M260.6,313.4c-4.2-2.5-7.7-1.7-11.4-0.7c-3,0.8-6.2,1.5-10,0.4c-2.8-0.8-5.1-2.7-7.4-4.5
			c-2.4-1.9-4.6-3.6-7.2-4.1c-2.1-0.4-4.2-0.2-6.1,0.8c-1.6,0.8-2.9,2.2-3.7,3.8c-1.9,4-0.9,8.7,2.4,11.6c4.6,4.1,11.3,3.3,18.5,2.4
			c4.4-0.5,8.9-1.1,13-0.4c1.8,0.3,3.6,0.8,5.3,1.4c4.5,1.4,8.4,2.6,10.8-1.7l0.1-0.2C265.3,319,264.1,314.1,260.6,313.4z
			 M263.9,321.9c-2,3.6-5.2,2.6-9.6,1.2c-1.8-0.6-3.6-1.1-5.5-1.4c-4.2-0.7-8.8-0.1-13.2,0.4c-6.9,0.9-13.4,1.6-17.7-2.2
			c-3-2.6-3.9-6.9-2.2-10.5c1.6-3.2,5.3-4.9,8.8-4.1c2.4,0.4,4.5,2.1,6.8,4c2.3,1.8,4.7,3.8,7.7,4.6c4,1.2,7.3,0.4,10.5-0.4
			c3.5-0.9,6.8-1.7,10.8,0.7l0.2,0.1C263.1,314.8,264.3,319.1,263.9,321.9L263.9,321.9z"/>
		<path class="st0" d="M239.8,176.5c9.3-13.5,8.2-24.4-3.3-33.2c-1.8-1.3-3.7-2.3-5.8-3c-2.5-0.9-4.8-2.2-6.8-3.9
			c-2.8-2.6-4.2-6-5.6-9.2c-1.8-4.2-3.6-8.5-8.4-11.3c-0.7-0.4-1.6-0.9-2.5-1.4c-4.1-2.3-10.2-5.7-13.2-9.6c-0.8-1.1-2.6-1.5-4-1.8
			c-0.3-0.1-0.6-0.1-0.9-0.2c-1.5-0.3-3-0.6-4.5-0.6c-0.4,0-0.9-0.1-1.3-0.1c-0.7-0.1-1.4-0.1-2.1-0.2c-1-0.1-2-0.1-3-0.3
			c-10.1-2.9-17.1-6.1-24.3-10.8c-6.8-4.6-12.7-8.1-21.4-8.8c-12.7-1-19.9,7.1-26.9,15c-3.7,4.2-7.6,8.6-12.2,11.5
			c-4.2,2.6-8.8,2.5-15.1,2.4l-1.6,0c-1.3,0-2.4-0.1-3.5-0.2c-5.3-0.3-9.1-0.5-16.4,4.7c-1.4-1.1-2.6-2.4-3.8-3.7
			c-2.1-2.3-4-4.3-7.8-5.2c-2.2-0.4-4.4-0.3-6.6,0.2c-1.2,0.3-2.5,0.4-3.7,0.4c-6.5-0.8-13-2.1-19.4-3.7l-0.1,0
			c-3.9-0.9-8.3-3-12.5-5.1c-1-0.5-2-1-3-1.4v1c0.9,0.4,1.7,0.8,2.5,1.2c4.2,2.1,8.6,4.2,12.6,5.2l0.1,0c6.4,1.6,12.9,2.9,19.5,3.7
			c1.3,0,2.7-0.1,4-0.4c2-0.5,4.1-0.6,6.2-0.2c3.5,0.8,5.2,2.6,7.3,4.9c1.3,1.5,2.7,2.8,4.2,4l0.3,0.2l0.3-0.2
			c7.3-5.2,10.8-5.1,16.2-4.8c1.1,0.1,2.3,0.1,3.5,0.2l1.6,0c6.5,0.1,11.2,0.2,15.6-2.6c4.8-3,8.6-7.4,12.4-11.6
			c7.1-8,13.8-15.7,26.1-14.7c8.5,0.7,14.3,4.2,21,8.7c7.2,4.9,14.4,8,24.7,11c1,0.1,2.1,0.2,3.1,0.3c0.7,0,1.3,0.1,2.1,0.2
			c0.4,0,0.9,0.1,1.3,0.1c1.5,0.1,2.9,0.3,4.4,0.6c0.3,0.1,0.6,0.2,1,0.2c1.2,0.3,2.8,0.6,3.4,1.4c3.1,4,9.1,7.4,13.5,9.9
			c1,0.5,1.8,1,2.5,1.4c4.5,2.7,6.2,6.7,8,10.9c1.4,3.3,2.9,6.8,5.8,9.5c2.1,1.8,4.5,3.1,7.1,4.1c2,0.7,3.9,1.7,5.6,2.9
			c11,8.5,12.1,19,3.1,32c-7.1,10.3-12.8,16.4-31.8,14.4l-0.3,0l-0.1,0.3c-0.5,1.4-0.5,3.1,0.1,4.5l0.1,0.2c0.2,0.2,0.5,0.5,0.8,0.7
			c0.5,0.5,1,0.9,1.5,1.3l0.2,0.1l0.2,0c2.6-0.2,5.2-0.2,7.8,0.1c2.8,0.4,5.7,0.3,8.4-0.2c9.3-2.2,21.9-17.8,25-23.7
			c7.5-14.2-0.3-30.5-10.7-39.6c-1-0.8-2-1.5-3.2-2.1c-2.2-1.1-4.1-2.7-5.6-4.7c-2-3.1-3.4-6.5-4.3-10c-0.9-3.4-1.8-6.3-4.6-9.1
			c-2-1.9-4.2-3.4-6.7-4.6c-2.4-1.3-4.9-2.4-7.3-3.5c-2.7-1.2-5.4-2.4-8-3.8c-2.3-1.3-4.5-2.8-6.6-4.6c-1.9-1.5-4.2-1.7-6.4-1.9
			c-0.5,0-1-0.1-1.5-0.1c-1.5-0.1-2.9-0.2-4.4-0.2c-1.1,0-2.3,0-3.4-0.1c-1.7-0.2-3.3-0.7-4.8-1.4c-0.4-0.1-0.8-0.3-1.2-0.4
			c-4.3-1.6-8.3-3.5-12.7-5.7l-2.1-1c-7.5-3.7-15.3-7.5-23.6-9.3c-5-1.1-10.1-1.3-15.2-0.5c-5.5,0.9-10.8,3-15.3,6.3
			c-1.4,1.2-2.7,2.6-3.7,4.1c-0.9,1.4-2,2.7-3.3,3.8c-5.2,4.5-10.8,6-19.5,5.1c-1.4-0.1-2.8-0.3-4.2-0.4c-8.4-0.9-17.1-1.9-24.8-0.3
			c-2.7,0.6-5.2,1.3-7.7,2.1c-5.6,1.7-10.9,3.3-17.3,2.4c-5.5-0.8-10.6-3.1-15.6-5.2c-2.4-1.1-4.8-2.1-7.2-3v1
			c2.3,0.8,4.5,1.8,6.8,2.8c5,2.2,10.2,4.5,15.8,5.3c6.6,1,12-0.6,17.7-2.4c2.4-0.8,5-1.5,7.6-2.1c7.6-1.6,16.2-0.6,24.5,0.3
			c1.4,0.2,2.8,0.3,4.2,0.5c8.9,0.9,14.9-0.7,20.2-5.3c1.3-1.2,2.4-2.6,3.4-4c1-1.5,2.1-2.8,3.5-3.9c4.4-3.1,9.5-5.2,14.9-6.1
			c4.9-0.8,9.9-0.6,14.8,0.5c8.2,1.8,15.9,5.6,23.4,9.3l2.1,1c4.2,2.1,8.5,4,12.9,5.7c0.4,0.1,0.8,0.3,1.2,0.4
			c1.6,0.7,3.3,1.2,5.1,1.4c1.2,0.1,2.3,0.1,3.5,0.1c1.4,0,2.8,0,4.2,0.2c0.5,0.1,1,0.1,1.5,0.1c2.2,0.2,4.3,0.4,6,1.7
			c2.1,1.7,4.4,3.3,6.7,4.6c2.6,1.4,5.4,2.7,8,3.9c2.4,1.1,4.9,2.2,7.3,3.4c2.4,1.1,4.5,2.6,6.4,4.4c2.7,2.7,3.5,5.5,4.4,8.7
			c0.9,3.7,2.4,7.1,4.4,10.3c1.5,2.1,3.6,3.8,5.9,5c1.1,0.6,2.1,1.3,3,2.1c10.1,8.9,17.7,24.7,10.5,38.4
			c-3.1,5.8-15.4,21.1-24.4,23.3c-2.7,0.5-5.4,0.6-8.1,0.2c-2.6-0.3-5.2-0.4-7.8-0.1c-0.4-0.3-0.9-0.7-1.3-1.1
			c-0.2-0.2-0.5-0.4-0.7-0.6c-0.4-1-0.5-2.2-0.2-3.3C226.7,193.2,232.7,186.7,239.8,176.5z"/>
		<path class="st0" d="M352.7,361.4L352.7,361.4c-0.6-0.4-1.2-0.7-1.7-1c-4.8-3-9.7-6-15.3-6.1l-0.3,0l-0.1,0.2
			c-2.4,3.7-2.1,8.3,0.8,12.9c4.3,6.7,13.2,11.6,19.4,10.8l0.1,0l0.1-0.1c1.7-1.3,2.6-3.3,2.6-5.4
			C358.4,368.6,355.5,364.1,352.7,361.4z M355.2,377.3c-5.9,0.7-14.3-4-18.3-10.4c-2.7-4.2-3-8.3-1-11.7c5.2,0.1,10,3.1,14.6,5.9
			c0.5,0.3,1.1,0.7,1.6,1c2.6,2.4,5.4,6.7,5.3,10.5C357.4,374.4,356.6,376.2,355.2,377.3z"/>
		<path class="st0" d="M272.6,304.4c-6.6-5.5-12.3-4.8-18.4-4.1c-2.6,0.4-5.2,0.5-7.7,0.5c-4.4-0.1-8.2-2.2-11.9-4.2
			c-3-1.7-5.8-3.2-8.9-3.7c-4.4-0.7-11.7,1-17,3.7c-2.2,1-4.1,2.5-5.5,4.4c-3.2,5-2,24.1,5.9,30.7c2.2,1.8,4.9,2.5,8.2,3.3
			c1.2,0.3,2.4,0.6,3.7,1c2.8,0.8,5.7,1.8,8.7,2.8c11.3,3.8,23,7.7,34.2,4.5c9.7-2.8,21.5-6.9,26.1-14l0.1-0.1l0-0.1
			c0-0.3,0-0.5,0-0.8c0-0.5,0-1,0-1.4l0-0.1l0-0.1C287.3,319.2,279.2,309.8,272.6,304.4z M289,328.7c-4.5,6.9-16.7,11-25.5,13.6
			c-10.9,3.1-22.4-0.7-33.6-4.5c-3-1-5.9-2-8.7-2.8c-1.3-0.4-2.5-0.7-3.7-1c-3.2-0.8-5.8-1.4-7.8-3.1c-7.4-6.2-8.7-24.8-5.7-29.5
			c2.8-4.4,14.9-8.7,21.6-7.6c3,0.5,5.7,2,8.7,3.6c3.8,2.1,7.7,4.2,12.3,4.3c2.6,0,5.3-0.2,7.9-0.6c6.1-0.7,11.4-1.3,17.7,3.9
			c6.5,5.4,14.4,14.5,17,21.6c-0.1,0.5-0.1,0.9-0.1,1.4C289,328.3,289,328.5,289,328.7z"/>
		<path class="st0" d="M389.1,389.3c2.9-3.7,2.1-8.4-2.3-13.9l-0.1-0.1c-4.6-2.9-8.4-7-12-11c-2.7-3.1-5.6-5.9-8.6-8.6
			c-4-3.2-8.7-5.8-13.8-8.6c-6.3-3.5-12.8-7.1-17.6-11.8c-1.8-1.9-3.3-3.9-4.7-6.1c-1.9-2.8-3.7-5.4-6.4-7.2
			c-3.8-2.5-8.6-3.3-13.2-4c-4.4-0.7-8.6-1.4-12-3.5c-3.5-2.1-5.8-5.2-8-8.2c-1.4-2-3-3.9-4.7-5.7c-4.9-4.6-11.1-8.2-16.5-9.6
			c-4.5-1.2-9-0.6-13.4-0.1c-4.2,0.5-8.2,1-12.2,0c-2.4-0.7-4.6-1.8-6.7-3.1c-2.2-1.4-4.6-2.5-7.2-3.3c-4.3-1-8.6-0.2-13.1,0.7
			c-3.2,0.7-6.5,1.1-9.8,1.2c-2.6-0.1-5.2-0.5-7.8-1.2c-4.3-1-8.4-1.9-13,0l0,0l-0.1,0c-3.2,2.5-6.9,6.4-6.6,11
			c0.2,3.7,3.5,6.6,6.6,9.5c1.7,1.5,3.3,3.1,4.7,4.9c2.5,3.6,4.2,8.9,5.8,14.1c1.5,4.7,3,9.5,5.2,13.2c1.4,2.4,3.1,4.6,4.9,6.6
			c0.6,0.7,1.2,1.4,1.8,2.1l0.1,0.1l0.1,0.1c15.9,6.6,25.5,8.2,42.8,7c5.3-0.4,10.8-2.3,16.7-4.3c9.7-3.4,19.8-6.9,28.9-2.9
			c3.2,1.4,6.1,4.1,9.1,7c1.6,1.5,3.3,3.1,5,4.5c2.1,1.7,4.6,3.3,7,4.9c2.3,1.4,4.4,2.9,6.5,4.5c4.8,3.9,10.1,9.7,15.3,15.3l1.4,1.5
			c1,1.1,2,2.4,3,3.5c2.4,3,4.9,6,8.2,7.5C357.7,397.7,382.4,398,389.1,389.3z M352.8,394.5c-3.1-1.4-5.4-4.3-7.8-7.2
			c-1-1.2-2-2.5-3-3.6l-1.4-1.6c-5.2-5.6-10.6-11.4-15.4-15.4c-2.1-1.7-4.3-3.2-6.6-4.6c-2.4-1.5-4.7-3.1-6.9-4.8
			c-1.7-1.4-3.4-3-5-4.5c-3.1-3-6.1-5.8-9.4-7.2c-9.5-4.2-19.7-0.6-29.6,2.9c-5.8,2-11.3,3.9-16.4,4.3c-17.1,1.2-26.6-0.4-42.3-6.9
			c-0.6-0.7-1.1-1.3-1.7-2c-1.8-2-3.4-4.1-4.8-6.4c-2.1-3.7-3.6-8.4-5.1-13.1c-1.7-5.2-3.4-10.6-6-14.3c-1.4-1.9-3-3.5-4.8-5.1
			c-3-2.7-6.1-5.5-6.3-8.8c-0.3-4.2,3.2-7.8,6.2-10.2c4.4-1.7,8.3-0.8,12.4,0.1c2.6,0.7,5.3,1.1,8,1.2c3.4-0.1,6.7-0.5,10-1.2
			c4.4-0.8,8.6-1.7,12.7-0.7c2.4,0.7,4.8,1.8,6.9,3.1c2.1,1.4,4.5,2.5,6.9,3.2c4.1,1.1,8.4,0.5,12.5,0c4.3-0.5,8.7-1,13,0.1
			c5.3,1.3,11.3,4.8,16.1,9.4c1.7,1.7,3.3,3.6,4.6,5.6c2.3,3.1,4.6,6.3,8.3,8.5c3.6,2.2,8.1,2.9,12.4,3.6c4.5,0.7,9.2,1.5,12.9,3.9
			c2.5,1.6,4.3,4.2,6.1,6.9c1.4,2.2,3,4.3,4.8,6.2c4.9,4.8,11.4,8.5,17.8,12c4.8,2.5,9.4,5.3,13.7,8.5c3.1,2.6,5.9,5.4,8.5,8.5
			c3.7,4,7.4,8.2,12.1,11.1c4.1,5.1,4.8,9.4,2.3,12.7C382,396.9,357.8,396.7,352.8,394.5z"/>
		<path class="st0" d="M0,335.1c5.5,0.6,12.9-3.8,15.6-9.5c1.9-3.9,1.8-8,1.7-12.1c-0.1-3.2-0.1-6.2,0.9-8.8
			c2.6-6.5,7.9-11.6,14.6-13.7c3.8-1,6.1-0.5,10.6,0.5c1.8,0.4,3.9,0.9,6.7,1.3l0.3,0l0.2-0.2c2.8-3.5-2.1-8.5-5.6-12.2
			c-0.4-0.4-0.8-0.8-1.1-1.2c-4.3-4.6-9.4-9.3-14.8-9.2c-0.3,0-0.7,0-1,0c-5.6,0.6-9.4,5.2-13,9.6c-4,4.9-8.2,9.9-15,10v0.9
			c7.2-0.1,11.5-5.3,15.7-10.4c3.7-4.5,7.2-8.7,12.4-9.3c5.4-0.6,10.7,4.2,15.1,8.9c0.4,0.4,0.8,0.8,1.1,1.2c3.2,3.4,7.6,8,5.7,10.8
			c-2.6-0.5-4.7-0.9-6.4-1.3c-4.6-1-7.1-1.5-11.1-0.5c-7,2.2-12.6,7.5-15.2,14.3c-1,2.8-1,5.9-0.9,9.2c0.1,3.9,0.2,8-1.6,11.7
			c-2.6,5.4-9.7,9.6-14.8,9L0,335.1z"/>
		<path class="st0" d="M81,204.8c13.4,1.6,18.6-8.5,23.1-17.3c3.4-6.6,6.6-12.8,12.7-14.2c2.7-0.6,6,0.9,9.6,2.5
			c2.8,1.3,5.8,2.6,8.6,2.9c14.8,1.5,37.1-17.2,40.5-30.4c0.7-3.2,0.7-6.5-0.1-9.7c-0.5-2.1-0.9-4.2-1.2-6.3
			c-1.1-6.6-2.2-12.8-7.5-17c-3.2-2.5-7.2-3.7-11.1-4.9c-4-1.2-7.8-2.4-10.8-4.8c-1.1-1-2.1-2.1-3-3.3c-1.1-1.5-2.4-2.9-4-3.9
			c-2.3-1.3-4.9-1.9-7.6-1.9c-3.6,0.1-7.1,1.1-10.3,2.8c-5.3,2.6-9.3,7.7-13.2,12.6c-3,3.7-6,7.6-9.6,10.4c-1.5,1-3.1,1.9-4.8,2.6
			c-3,1.3-6.1,2.7-7.9,5.4l-0.1,0.1v0.1c-0.5,5.1,0.9,10.3,2.2,15.3c1.9,7.2,3.9,14.8,0.3,22.1c-1.1,0.5-2.3,1-3.5,1.5
			c-7.4,3-14.7,6.4-21.7,10.4c-0.8,0.5-1.6,0.9-2.5,1.3c-3.7,1.9-7.8,4-8,8.7v0.1l0.1,0.1C56.5,198,70.5,203.5,81,204.8z M59.6,182
			c0.9-0.5,1.7-0.9,2.6-1.4c7-3.9,14.2-7.3,21.6-10.3c1.3-0.6,2.5-1.1,3.7-1.6l0.2-0.1l0.1-0.2c3.9-7.7,1.8-15.4-0.1-22.9
			c-1.4-5.1-2.7-10-2.2-14.8c1.7-2.4,4.6-3.7,7.5-5c1.7-0.7,3.4-1.6,5-2.7c3.6-2.8,6.8-6.8,9.7-10.5c3.8-4.9,7.8-9.9,12.8-12.4
			c4.2-2.1,10.5-4.4,17-0.9c1.5,0.9,2.7,2.2,3.7,3.6c0.9,1.2,2,2.4,3.1,3.4c3.1,2.6,7.2,3.8,11.1,5c3.8,1.1,7.7,2.3,10.8,4.7
			c5,3.9,6.1,10,7.2,16.4c0.4,2.1,0.8,4.2,1.2,6.4l0,0.1c0.7,3,0.7,6.1,0.1,9.1c-3.1,12.2-23.8,29.8-37.9,29.8c-0.5,0-1.1,0-1.6-0.1
			c-2.6-0.3-5.5-1.6-8.3-2.8c-3.7-1.7-7.2-3.3-10.1-2.6c-6.5,1.4-9.8,7.9-13.3,14.7c-4.7,9-9.5,18.4-22.2,16.9
			c-10.3-1.2-23.9-6.6-29-14.2C52.3,185.6,56,183.8,59.6,182z"/>
		<path class="st0" d="M142.9,152.6c1.4-0.1,2.6-1.1,3.1-2.4c0.4-1.1,0-2.3-1-2.9l-0.1-0.1c-0.8-0.3-1.6-0.8-2.4-1.2
			c-3.5-1.7-7.7-3.8-11.3-3.8c-0.7,0-1.4,0.1-2.1,0.2l-0.6,0.2l0.4,0.5C131.5,147,136.8,151.8,142.9,152.6z M142.1,146.8
			c0.8,0.4,1.6,0.8,2.4,1.2c0.6,0.4,0.8,1.2,0.6,1.9c-0.3,1-1.1,1.7-2.1,1.8c-5.5-0.6-10.2-4.8-12.9-8.4
			C133.7,142.6,138.3,144.9,142.1,146.8z"/>
		<path class="st0" d="M66.5,159.7c5.8-2.7,10.2-8.7,7-16l0-0.1c-3.6-5.8-9.3-11.5-15.2-11.5c-0.7,0-1.4,0.1-2.1,0.2
			c-3.2,0.8-5.9,3.2-7.6,6.8c-2.4,4.9-2.5,11.2-0.4,15.5C51.6,161.8,60.2,162.6,66.5,159.7z M48.9,154.2c-1.9-4-1.8-10.1,0.4-14.7
			c1.6-3.4,4.1-5.6,7-6.3c6.1-1.5,12.4,4.6,16.3,10.8c3,6.8-1.1,12.3-6.5,14.8C60,161.7,52.2,161,48.9,154.2z"/>
		<path class="st0" d="M120.5,159c1.6,0.9,3.2,1.8,4.7,2.7c1.3,0.9,2.6,1.8,3.8,2.7c2.6,1.9,4.8,3.5,7.2,4
			c10,2.2,20.3-4.1,27.5-16.9l0-0.1c3.8-14.7-5.2-20.7-19.2-28.1c-1.5-0.8-3.1-1.7-4.6-2.6c-4.7-2.8-9.3-5.5-14.3-5.5
			c-1.4,0-2.8,0.2-4.1,0.6c-6,1.7-10.9,7.2-13.1,14.6c-2.5,8.3-1.1,17.2,3.5,22.7C113.9,155.3,117.1,157.1,120.5,159z M109.4,130.8
			c2.1-7.1,6.8-12.4,12.5-14c6.4-1.9,11.8,1.4,17.6,4.8c1.5,0.9,3,1.8,4.6,2.6c13.6,7.2,22.3,13,18.8,27
			c-7,12.3-16.9,18.5-26.5,16.4c-2.2-0.5-4.4-2.1-6.9-3.9c-1.2-0.9-2.5-1.8-3.9-2.7c-1.5-0.9-3.1-1.9-4.7-2.7
			c-3.3-1.8-6.5-3.6-8.2-5.6C108.3,147.4,107,138.8,109.4,130.8z"/>
		<path class="st0" d="M0.9,322.1c-0.3-0.1-0.6-0.1-0.9-0.2v1c0.3,0.1,0.5,0.2,0.8,0.2l0.1,0H1c2.1-0.3,4-1.6,5.1-3.5
			c1.4-2.3,1.7-5.1,0.9-7.7c-0.5-4.1-3.1-7.6-7-9.3v1c3.3,1.5,5.6,4.7,6,8.3l0,0.1c0.7,2.3,0.5,4.9-0.8,7
			C4.3,320.6,2.7,321.8,0.9,322.1z"/>
		<path class="st0" d="M0,239.5c1.7-1.1,3.5-2.1,5.4-3c2.1-0.9,4.1-2.1,5.9-3.6c10.4-9.7,5.4-23.3-2.7-32.8
			c-2.5-2.8-5.4-5.3-8.5-7.4v1.1c2.8,2,5.5,4.3,7.8,6.8c7.8,9.2,12.7,22.2,2.8,31.5c-1.7,1.4-3.6,2.6-5.7,3.5
			c-1.7,0.8-3.3,1.7-4.9,2.7V239.5z"/>
	</g>
</g>
</svg>
