<?xml version="1.0" encoding="utf-8"?>
<!-- Generator: Adobe Illustrator 17.0.0, SVG Export Plug-In . SVG Version: 6.00 Build 0)  -->
<!DOCTYPE svg PUBLIC "-//W3C//DTD SVG 1.1//EN" "http://www.w3.org/Graphics/SVG/1.1/DTD/svg11.dtd">
<svg version="1.1" id="Layer_1" xmlns="http://www.w3.org/2000/svg" xmlns:xlink="http://www.w3.org/1999/xlink" x="0px" y="0px"
	 width="16px" height="16px" viewBox="0 0 16 16" enable-background="no" xml:space="preserve">
<path d="M8,0C5.862,0,3.852,0.832,2.34,2.344c-3.12,3.12-3.12,8.198,0,11.318C3.852,15.174,5.862,16.007,8,16.007
	s4.148-0.832,5.659-2.344c3.12-3.12,3.12-8.198,0-11.318C12.147,0.832,10.137,0,8,0z M13.213,12.24L9.828,8.856L8.893,9.791
	l3.385,3.385c-1.203,0.992-2.697,1.533-4.27,1.533c-1.794,0-3.484-0.694-4.753-1.963c-2.618-2.618-2.62-6.876-0.002-9.495
	c1.268-1.268,2.954-1.966,4.747-1.966s3.488,0.69,4.756,1.959C15.217,5.705,15.375,9.604,13.213,12.24z"/>
</svg>
